<?xml version="1.0" encoding="utf-8" ?>
<svg baseProfile="tiny" height="100%" version="1.2" width="100%" xmlns="http://www.w3.org/2000/svg" xmlns:ev="http://www.w3.org/2001/xml-events" xmlns:xlink="http://www.w3.org/1999/xlink"><defs /><text x="0" y="15">king</text><rect fill="#b6f5b6" height="15" width="10" x="90" y="0" /><text x="0" y="15">king</text><rect fill="#e9f3e9" height="15" width="10" x="100" y="0" /><text x="0" y="15">king</text><rect fill="#f4d4d4" height="15" width="10" x="110" y="0" /><text x="0" y="15">king</text><rect fill="#f4d4d4" height="15" width="10" x="120" y="0" /><text x="0" y="15">king</text><rect fill="#cef4ce" height="15" width="10" x="130" y="0" /><text x="0" y="15">king</text><rect fill="#e0f3e0" height="15" width="10" x="140" y="0" /><text x="0" y="15">king</text><rect fill="#f5baba" height="15" width="10" x="150" y="0" /><text x="0" y="15">king</text><rect fill="#f6afaf" height="15" width="10" x="160" y="0" /><text x="0" y="15">king</text><rect fill="#f4d2d2" height="15" width="10" x="170" y="0" /><text x="0" y="15">king</text><rect fill="#c3f5c3" height="15" width="10" x="180" y="0" /><text x="0" y="15">king</text><rect fill="#f4d1d1" height="15" width="10" x="190" y="0" /><text x="0" y="15">king</text><rect fill="#f4d4d4" height="15" width="10" x="200" y="0" /><text x="0" y="15">king</text><rect fill="#00ff00" height="15" width="10" x="210" y="0" /><text x="0" y="15">king</text><rect fill="#e2f3e2" height="15" width="10" x="220" y="0" /><text x="0" y="15">king</text><rect fill="#f3e9e9" height="15" width="10" x="230" y="0" /><text x="0" y="15">king</text><rect fill="#d6f4d6" height="15" width="10" x="240" y="0" /><text x="0" y="15">king</text><rect fill="#f4d5d5" height="15" width="10" x="250" y="0" /><text x="0" y="15">king</text><rect fill="#f3ebeb" height="15" width="10" x="260" y="0" /><text x="0" y="15">king</text><rect fill="#f1f2f1" height="15" width="10" x="270" y="0" /><text x="0" y="15">king</text><rect fill="#f5bbbb" height="15" width="10" x="280" y="0" /><text x="0" y="15">king</text><rect fill="#eef2ee" height="15" width="10" x="290" y="0" /><text x="0" y="15">king</text><rect fill="#f5c7c7" height="15" width="10" x="300" y="0" /><text x="0" y="15">king</text><rect fill="#e1f3e1" height="15" width="10" x="310" y="0" /><text x="0" y="15">king</text><rect fill="#bdf5bd" height="15" width="10" x="320" y="0" /><text x="0" y="15">king</text><rect fill="#f5bebe" height="15" width="10" x="330" y="0" /><text x="0" y="30">queen</text><rect fill="#97f797" height="15" width="10" x="90" y="15" /><text x="0" y="30">queen</text><rect fill="#c8f4c8" height="15" width="10" x="100" y="15" /><text x="0" y="30">queen</text><rect fill="#f4cdcd" height="15" width="10" x="110" y="15" /><text x="0" y="30">queen</text><rect fill="#f3e1e1" height="15" width="10" x="120" y="15" /><text x="0" y="30">queen</text><rect fill="#eef2ee" height="15" width="10" x="130" y="15" /><text x="0" y="30">queen</text><rect fill="#bef5be" height="15" width="10" x="140" y="15" /><text x="0" y="30">queen</text><rect fill="#f79696" height="15" width="10" x="150" y="15" /><text x="0" y="30">queen</text><rect fill="#f5baba" height="15" width="10" x="160" y="15" /><text x="0" y="30">queen</text><rect fill="#e2f3e2" height="15" width="10" x="170" y="15" /><text x="0" y="30">queen</text><rect fill="#b8f5b8" height="15" width="10" x="180" y="15" /><text x="0" y="30">queen</text><rect fill="#f0f2f0" height="15" width="10" x="190" y="15" /><text x="0" y="30">queen</text><rect fill="#f3e9e9" height="15" width="10" x="200" y="15" /><text x="0" y="30">queen</text><rect fill="#00ff00" height="15" width="10" x="210" y="15" /><text x="0" y="30">queen</text><rect fill="#caf4ca" height="15" width="10" x="220" y="15" /><text x="0" y="30">queen</text><rect fill="#c9f4c9" height="15" width="10" x="230" y="15" /><text x="0" y="30">queen</text><rect fill="#f3eaea" height="15" width="10" x="240" y="15" /><text x="0" y="30">queen</text><rect fill="#e9f3e9" height="15" width="10" x="250" y="15" /><text x="0" y="30">queen</text><rect fill="#ebf3eb" height="15" width="10" x="260" y="15" /><text x="0" y="30">queen</text><rect fill="#f2f0f0" height="15" width="10" x="270" y="15" /><text x="0" y="30">queen</text><rect fill="#f5bbbb" height="15" width="10" x="280" y="15" /><text x="0" y="30">queen</text><rect fill="#dbf3db" height="15" width="10" x="290" y="15" /><text x="0" y="30">queen</text><rect fill="#f4cdcd" height="15" width="10" x="300" y="15" /><text x="0" y="30">queen</text><rect fill="#d2f4d2" height="15" width="10" x="310" y="15" /><text x="0" y="30">queen</text><rect fill="#d2f4d2" height="15" width="10" x="320" y="15" /><text x="0" y="30">queen</text><rect fill="#f4d9d9" height="15" width="10" x="330" y="15" /><text x="0" y="45">boy</text><rect fill="#d2f4d2" height="15" width="10" x="90" y="30" /><text x="0" y="45">boy</text><rect fill="#f3e4e4" height="15" width="10" x="100" y="30" /><text x="0" y="45">boy</text><rect fill="#f5c3c3" height="15" width="10" x="110" y="30" /><text x="0" y="45">boy</text><rect fill="#f2efef" height="15" width="10" x="120" y="30" /><text x="0" y="45">boy</text><rect fill="#f3ecec" height="15" width="10" x="130" y="30" /><text x="0" y="45">boy</text><rect fill="#f2f0f0" height="15" width="10" x="140" y="30" /><text x="0" y="45">boy</text><rect fill="#f79898" height="15" width="10" x="150" y="30" /><text x="0" y="45">boy</text><rect fill="#f6a2a2" height="15" width="10" x="160" y="30" /><text x="0" y="45">boy</text><rect fill="#e1f3e1" height="15" width="10" x="170" y="30" /><text x="0" y="45">boy</text><rect fill="#f2f1f1" height="15" width="10" x="180" y="30" /><text x="0" y="45">boy</text><rect fill="#c9f4c9" height="15" width="10" x="190" y="30" /><text x="0" y="45">boy</text><rect fill="#f3e3e3" height="15" width="10" x="200" y="30" /><text x="0" y="45">boy</text><rect fill="#00ff00" height="15" width="10" x="210" y="30" /><text x="0" y="45">boy</text><rect fill="#bcf5bc" height="15" width="10" x="220" y="30" /><text x="0" y="45">boy</text><rect fill="#e8f3e8" height="15" width="10" x="230" y="30" /><text x="0" y="45">boy</text><rect fill="#f3eded" height="15" width="10" x="240" y="30" /><text x="0" y="45">boy</text><rect fill="#f4cfcf" height="15" width="10" x="250" y="30" /><text x="0" y="45">boy</text><rect fill="#a8f6a8" height="15" width="10" x="260" y="30" /><text x="0" y="45">boy</text><rect fill="#cdf4cd" height="15" width="10" x="270" y="30" /><text x="0" y="45">boy</text><rect fill="#f4d0d0" height="15" width="10" x="280" y="30" /><text x="0" y="45">boy</text><rect fill="#f5c6c6" height="15" width="10" x="290" y="30" /><text x="0" y="45">boy</text><rect fill="#f79b9b" height="15" width="10" x="300" y="30" /><text x="0" y="45">boy</text><rect fill="#f3eaea" height="15" width="10" x="310" y="30" /><text x="0" y="45">boy</text><rect fill="#ecf3ec" height="15" width="10" x="320" y="30" /><text x="0" y="45">boy</text><rect fill="#f3e1e1" height="15" width="10" x="330" y="30" /><text x="0" y="60">girl</text><rect fill="#b7f5b7" height="15" width="10" x="90" y="45" /><text x="0" y="60">girl</text><rect fill="#e2f3e2" height="15" width="10" x="100" y="45" /><text x="0" y="60">girl</text><rect fill="#f5b5b5" height="15" width="10" x="110" y="45" /><text x="0" y="60">girl</text><rect fill="#f2f1f1" height="15" width="10" x="120" y="45" /><text x="0" y="60">girl</text><rect fill="#f4d3d3" height="15" width="10" x="130" y="45" /><text x="0" y="60">girl</text><rect fill="#e0f3e0" height="15" width="10" x="140" y="45" /><text x="0" y="60">girl</text><rect fill="#fb5050" height="15" width="10" x="150" y="45" /><text x="0" y="60">girl</text><rect fill="#f4d1d1" height="15" width="10" x="160" y="45" /><text x="0" y="60">girl</text><rect fill="#bff5bf" height="15" width="10" x="170" y="45" /><text x="0" y="60">girl</text><rect fill="#f3e5e5" height="15" width="10" x="180" y="45" /><text x="0" y="60">girl</text><rect fill="#acf6ac" height="15" width="10" x="190" y="45" /><text x="0" y="60">girl</text><rect fill="#f3dbdb" height="15" width="10" x="200" y="45" /><text x="0" y="60">girl</text><rect fill="#00ff00" height="15" width="10" x="210" y="45" /><text x="0" y="60">girl</text><rect fill="#bff5bf" height="15" width="10" x="220" y="45" /><text x="0" y="60">girl</text><rect fill="#c0f5c0" height="15" width="10" x="230" y="45" /><text x="0" y="60">girl</text><rect fill="#f4d8d8" height="15" width="10" x="240" y="45" /><text x="0" y="60">girl</text><rect fill="#f5c6c6" height="15" width="10" x="250" y="45" /><text x="0" y="60">girl</text><rect fill="#9ef79e" height="15" width="10" x="260" y="45" /><text x="0" y="60">girl</text><rect fill="#d8f4d8" height="15" width="10" x="270" y="45" /><text x="0" y="60">girl</text><rect fill="#f4d5d5" height="15" width="10" x="280" y="45" /><text x="0" y="60">girl</text><rect fill="#f6a5a5" height="15" width="10" x="290" y="45" /><text x="0" y="60">girl</text><rect fill="#f5b9b9" height="15" width="10" x="300" y="45" /><text x="0" y="60">girl</text><rect fill="#f3e6e6" height="15" width="10" x="310" y="45" /><text x="0" y="60">girl</text><rect fill="#e0f3e0" height="15" width="10" x="320" y="45" /><text x="0" y="60">girl</text><rect fill="#e6f3e6" height="15" width="10" x="330" y="45" /><text x="0" y="75">man</text><rect fill="#f4d4d4" height="15" width="10" x="90" y="60" /><text x="0" y="75">man</text><rect fill="#d2f4d2" height="15" width="10" x="100" y="60" /><text x="0" y="75">man</text><rect fill="#f0f2f0" height="15" width="10" x="110" y="60" /><text x="0" y="75">man</text><rect fill="#bff5bf" height="15" width="10" x="120" y="60" /><text x="0" y="75">man</text><rect fill="#d8f4d8" height="15" width="10" x="130" y="60" /><text x="0" y="75">man</text><rect fill="#f4d7d7" height="15" width="10" x="140" y="60" /><text x="0" y="75">man</text><rect fill="#f3e9e9" height="15" width="10" x="150" y="60" /><text x="0" y="75">man</text><rect fill="#f4cbcb" height="15" width="10" x="160" y="60" /><text x="0" y="75">man</text><rect fill="#cbf4cb" height="15" width="10" x="170" y="60" /><text x="0" y="75">man</text><rect fill="#f4d5d5" height="15" width="10" x="180" y="60" /><text x="0" y="75">man</text><rect fill="#d3f4d3" height="15" width="10" x="190" y="60" /><text x="0" y="75">man</text><rect fill="#f3dede" height="15" width="10" x="200" y="60" /><text x="0" y="75">man</text><rect fill="#00ff00" height="15" width="10" x="210" y="60" /><text x="0" y="75">man</text><rect fill="#f3eded" height="15" width="10" x="220" y="60" /><text x="0" y="75">man</text><rect fill="#f4d4d4" height="15" width="10" x="230" y="60" /><text x="0" y="75">man</text><rect fill="#f4d5d5" height="15" width="10" x="240" y="60" /><text x="0" y="75">man</text><rect fill="#f79494" height="15" width="10" x="250" y="60" /><text x="0" y="75">man</text><rect fill="#f3ebeb" height="15" width="10" x="260" y="60" /><text x="0" y="75">man</text><rect fill="#abf6ab" height="15" width="10" x="270" y="60" /><text x="0" y="75">man</text><rect fill="#b6f5b6" height="15" width="10" x="280" y="60" /><text x="0" y="75">man</text><rect fill="#f4d1d1" height="15" width="10" x="290" y="60" /><text x="0" y="75">man</text><rect fill="#f97474" height="15" width="10" x="300" y="60" /><text x="0" y="75">man</text><rect fill="#dff3df" height="15" width="10" x="310" y="60" /><text x="0" y="75">man</text><rect fill="#f3dede" height="15" width="10" x="320" y="60" /><text x="0" y="75">man</text><rect fill="#f5b5b5" height="15" width="10" x="330" y="60" /><text x="0" y="90">woman</text><rect fill="#a8f6a8" height="15" width="10" x="90" y="75" /><text x="0" y="90">woman</text><rect fill="#d7f4d7" height="15" width="10" x="100" y="75" /><text x="0" y="90">woman</text><rect fill="#d8f4d8" height="15" width="10" x="110" y="75" /><text x="0" y="90">woman</text><rect fill="#f3e6e6" height="15" width="10" x="120" y="75" /><text x="0" y="90">woman</text><rect fill="#f4c8c8" height="15" width="10" x="130" y="75" /><text x="0" y="90">woman</text><rect fill="#e6f3e6" height="15" width="10" x="140" y="75" /><text x="0" y="90">woman</text><rect fill="#f79090" height="15" width="10" x="150" y="75" /><text x="0" y="90">woman</text><rect fill="#e0f3e0" height="15" width="10" x="160" y="75" /><text x="0" y="90">woman</text><rect fill="#ebf3eb" height="15" width="10" x="170" y="75" /><text x="0" y="90">woman</text><rect fill="#f3dbdb" height="15" width="10" x="180" y="75" /><text x="0" y="90">woman</text><rect fill="#f3e3e3" height="15" width="10" x="190" y="75" /><text x="0" y="90">woman</text><rect fill="#f4d0d0" height="15" width="10" x="200" y="75" /><text x="0" y="90">woman</text><rect fill="#00ff00" height="15" width="10" x="210" y="75" /><text x="0" y="90">woman</text><rect fill="#f3dddd" height="15" width="10" x="220" y="75" /><text x="0" y="90">woman</text><rect fill="#cff4cf" height="15" width="10" x="230" y="75" /><text x="0" y="90">woman</text><rect fill="#f2f2f2" height="15" width="10" x="240" y="75" /><text x="0" y="90">woman</text><rect fill="#f5bcbc" height="15" width="10" x="250" y="75" /><text x="0" y="90">woman</text><rect fill="#ecf3ec" height="15" width="10" x="260" y="75" /><text x="0" y="90">woman</text><rect fill="#f5c5c5" height="15" width="10" x="270" y="75" /><text x="0" y="90">woman</text><rect fill="#d4f4d4" height="15" width="10" x="280" y="75" /><text x="0" y="90">woman</text><rect fill="#f79393" height="15" width="10" x="290" y="75" /><text x="0" y="90">woman</text><rect fill="#f6b4b4" height="15" width="10" x="300" y="75" /><text x="0" y="90">woman</text><rect fill="#c8f4c8" height="15" width="10" x="310" y="75" /><text x="0" y="90">woman</text><rect fill="#8df88d" height="15" width="10" x="320" y="75" /><text x="0" y="90">woman</text><rect fill="#cef4ce" height="15" width="10" x="330" y="75" /><text x="0" y="105">purple</text><rect fill="#b2f6b2" height="15" width="10" x="90" y="90" /><text x="0" y="105">purple</text><rect fill="#88f888" height="15" width="10" x="100" y="90" /><text x="0" y="105">purple</text><rect fill="#f5c1c1" height="15" width="10" x="110" y="90" /><text x="0" y="105">purple</text><rect fill="#f2f2f2" height="15" width="10" x="120" y="90" /><text x="0" y="105">purple</text><rect fill="#e5f3e5" height="15" width="10" x="130" y="90" /><text x="0" y="105">purple</text><rect fill="#f6abab" height="15" width="10" x="140" y="90" /><text x="0" y="105">purple</text><rect fill="#f5bcbc" height="15" width="10" x="150" y="90" /><text x="0" y="105">purple</text><rect fill="#d4f4d4" height="15" width="10" x="160" y="90" /><text x="0" y="105">purple</text><rect fill="#f3dfdf" height="15" width="10" x="170" y="90" /><text x="0" y="105">purple</text><rect fill="#eef2ee" height="15" width="10" x="180" y="90" /><text x="0" y="105">purple</text><rect fill="#f4cfcf" height="15" width="10" x="190" y="90" /><text x="0" y="105">purple</text><rect fill="#f3dbdb" height="15" width="10" x="200" y="90" /><text x="0" y="105">purple</text><rect fill="#00ff00" height="15" width="10" x="210" y="90" /><text x="0" y="105">purple</text><rect fill="#a2f6a2" height="15" width="10" x="220" y="90" /><text x="0" y="105">purple</text><rect fill="#a4f6a4" height="15" width="10" x="230" y="90" /><text x="0" y="105">purple</text><rect fill="#e7f3e7" height="15" width="10" x="240" y="90" /><text x="0" y="105">purple</text><rect fill="#f6afaf" height="15" width="10" x="250" y="90" /><text x="0" y="105">purple</text><rect fill="#bcf5bc" height="15" width="10" x="260" y="90" /><text x="0" y="105">purple</text><rect fill="#f4d5d5" height="15" width="10" x="270" y="90" /><text x="0" y="105">purple</text><rect fill="#f88080" height="15" width="10" x="280" y="90" /><text x="0" y="105">purple</text><rect fill="#a1f7a1" height="15" width="10" x="290" y="90" /><text x="0" y="105">purple</text><rect fill="#f4cccc" height="15" width="10" x="300" y="90" /><text x="0" y="105">purple</text><rect fill="#f5b8b8" height="15" width="10" x="310" y="90" /><text x="0" y="105">purple</text><rect fill="#f2f2f2" height="15" width="10" x="320" y="90" /><text x="0" y="105">purple</text><rect fill="#e7f3e7" height="15" width="10" x="330" y="90" /><text x="0" y="120">orange</text><rect fill="#cef4ce" height="15" width="10" x="90" y="105" /><text x="0" y="120">orange</text><rect fill="#a3f6a3" height="15" width="10" x="100" y="105" /><text x="0" y="120">orange</text><rect fill="#e5f3e5" height="15" width="10" x="110" y="105" /><text x="0" y="120">orange</text><rect fill="#eef2ee" height="15" width="10" x="120" y="105" /><text x="0" y="120">orange</text><rect fill="#c7f5c7" height="15" width="10" x="130" y="105" /><text x="0" y="120">orange</text><rect fill="#f79797" height="15" width="10" x="140" y="105" /><text x="0" y="120">orange</text><rect fill="#f5c6c6" height="15" width="10" x="150" y="105" /><text x="0" y="120">orange</text><rect fill="#cbf4cb" height="15" width="10" x="160" y="105" /><text x="0" y="120">orange</text><rect fill="#f4c8c8" height="15" width="10" x="170" y="105" /><text x="0" y="120">orange</text><rect fill="#f3e5e5" height="15" width="10" x="180" y="105" /><text x="0" y="120">orange</text><rect fill="#f6a8a8" height="15" width="10" x="190" y="105" /><text x="0" y="120">orange</text><rect fill="#def3de" height="15" width="10" x="200" y="105" /><text x="0" y="120">orange</text><rect fill="#00ff00" height="15" width="10" x="210" y="105" /><text x="0" y="120">orange</text><rect fill="#b3f6b3" height="15" width="10" x="220" y="105" /><text x="0" y="120">orange</text><rect fill="#f3eaea" height="15" width="10" x="230" y="105" /><text x="0" y="120">orange</text><rect fill="#ecf3ec" height="15" width="10" x="240" y="105" /><text x="0" y="120">orange</text><rect fill="#f6adad" height="15" width="10" x="250" y="105" /><text x="0" y="120">orange</text><rect fill="#c4f5c4" height="15" width="10" x="260" y="105" /><text x="0" y="120">orange</text><rect fill="#f2f2f2" height="15" width="10" x="270" y="105" /><text x="0" y="120">orange</text><rect fill="#f97272" height="15" width="10" x="280" y="105" /><text x="0" y="120">orange</text><rect fill="#b9f5b9" height="15" width="10" x="290" y="105" /><text x="0" y="120">orange</text><rect fill="#e5f3e5" height="15" width="10" x="300" y="105" /><text x="0" y="120">orange</text><rect fill="#f4d0d0" height="15" width="10" x="310" y="105" /><text x="0" y="120">orange</text><rect fill="#e1f3e1" height="15" width="10" x="320" y="105" /><text x="0" y="120">orange</text><rect fill="#f3dcdc" height="15" width="10" x="330" y="105" /><text x="0" y="135">green</text><rect fill="#bbf5bb" height="15" width="10" x="90" y="120" /><text x="0" y="135">green</text><rect fill="#a9f6a9" height="15" width="10" x="100" y="120" /><text x="0" y="135">green</text><rect fill="#f3e1e1" height="15" width="10" x="110" y="120" /><text x="0" y="135">green</text><rect fill="#e9f3e9" height="15" width="10" x="120" y="120" /><text x="0" y="135">green</text><rect fill="#e0f3e0" height="15" width="10" x="130" y="120" /><text x="0" y="135">green</text><rect fill="#f5b9b9" height="15" width="10" x="140" y="120" /><text x="0" y="135">green</text><rect fill="#f5b6b6" height="15" width="10" x="150" y="120" /><text x="0" y="135">green</text><rect fill="#def3de" height="15" width="10" x="160" y="120" /><text x="0" y="135">green</text><rect fill="#f5bdbd" height="15" width="10" x="170" y="120" /><text x="0" y="135">green</text><rect fill="#e3f3e3" height="15" width="10" x="180" y="120" /><text x="0" y="135">green</text><rect fill="#f6a5a5" height="15" width="10" x="190" y="120" /><text x="0" y="135">green</text><rect fill="#d8f4d8" height="15" width="10" x="200" y="120" /><text x="0" y="135">green</text><rect fill="#00ff00" height="15" width="10" x="210" y="120" /><text x="0" y="135">green</text><rect fill="#b8f5b8" height="15" width="10" x="220" y="120" /><text x="0" y="135">green</text><rect fill="#e9f3e9" height="15" width="10" x="230" y="120" /><text x="0" y="135">green</text><rect fill="#a4f6a4" height="15" width="10" x="240" y="120" /><text x="0" y="135">green</text><rect fill="#f4cbcb" height="15" width="10" x="250" y="120" /><text x="0" y="135">green</text><rect fill="#dbf3db" height="15" width="10" x="260" y="120" /><text x="0" y="135">green</text><rect fill="#f4d3d3" height="15" width="10" x="270" y="120" /><text x="0" y="135">green</text><rect fill="#f6a3a3" height="15" width="10" x="280" y="120" /><text x="0" y="135">green</text><rect fill="#aff6af" height="15" width="10" x="290" y="120" /><text x="0" y="135">green</text><rect fill="#eef2ee" height="15" width="10" x="300" y="120" /><text x="0" y="135">green</text><rect fill="#f3dfdf" height="15" width="10" x="310" y="120" /><text x="0" y="135">green</text><rect fill="#e1f3e1" height="15" width="10" x="320" y="120" /><text x="0" y="135">green</text><rect fill="#f3e2e2" height="15" width="10" x="330" y="120" /><text x="0" y="150">red</text><rect fill="#ddf3dd" height="15" width="10" x="90" y="135" /><text x="0" y="150">red</text><rect fill="#b8f5b8" height="15" width="10" x="100" y="135" /><text x="0" y="150">red</text><rect fill="#f5c5c5" height="15" width="10" x="110" y="135" /><text x="0" y="150">red</text><rect fill="#daf4da" height="15" width="10" x="120" y="135" /><text x="0" y="150">red</text><rect fill="#f3dbdb" height="15" width="10" x="130" y="135" /><text x="0" y="150">red</text><rect fill="#f6b1b1" height="15" width="10" x="140" y="135" /><text x="0" y="150">red</text><rect fill="#f5bfbf" height="15" width="10" x="150" y="135" /><text x="0" y="150">red</text><rect fill="#f5bebe" height="15" width="10" x="160" y="135" /><text x="0" y="150">red</text><rect fill="#eaf3ea" height="15" width="10" x="170" y="135" /><text x="0" y="150">red</text><rect fill="#d8f4d8" height="15" width="10" x="180" y="135" /><text x="0" y="150">red</text><rect fill="#f7a0a0" height="15" width="10" x="190" y="135" /><text x="0" y="150">red</text><rect fill="#c0f5c0" height="15" width="10" x="200" y="135" /><text x="0" y="150">red</text><rect fill="#00ff00" height="15" width="10" x="210" y="135" /><text x="0" y="150">red</text><rect fill="#d9f4d9" height="15" width="10" x="220" y="135" /><text x="0" y="150">red</text><rect fill="#d5f4d5" height="15" width="10" x="230" y="135" /><text x="0" y="150">red</text><rect fill="#daf4da" height="15" width="10" x="240" y="135" /><text x="0" y="150">red</text><rect fill="#f4cbcb" height="15" width="10" x="250" y="135" /><text x="0" y="150">red</text><rect fill="#d8f4d8" height="15" width="10" x="260" y="135" /><text x="0" y="150">red</text><rect fill="#f4d3d3" height="15" width="10" x="270" y="135" /><text x="0" y="150">red</text><rect fill="#f6b0b0" height="15" width="10" x="280" y="135" /><text x="0" y="150">red</text><rect fill="#aef6ae" height="15" width="10" x="290" y="135" /><text x="0" y="150">red</text><rect fill="#f2efef" height="15" width="10" x="300" y="135" /><text x="0" y="150">red</text><rect fill="#f5b7b7" height="15" width="10" x="310" y="135" /><text x="0" y="150">red</text><rect fill="#c7f5c7" height="15" width="10" x="320" y="135" /><text x="0" y="150">red</text><rect fill="#f3e3e3" height="15" width="10" x="330" y="135" /><text x="0" y="165">monday</text><rect fill="#c3f5c3" height="15" width="10" x="90" y="150" /><text x="0" y="165">monday</text><rect fill="#f5c3c3" height="15" width="10" x="100" y="150" /><text x="0" y="165">monday</text><rect fill="#f4d7d7" height="15" width="10" x="110" y="150" /><text x="0" y="165">monday</text><rect fill="#a7f6a7" height="15" width="10" x="120" y="150" /><text x="0" y="165">monday</text><rect fill="#f3dddd" height="15" width="10" x="130" y="150" /><text x="0" y="165">monday</text><rect fill="#c7f5c7" height="15" width="10" x="140" y="150" /><text x="0" y="165">monday</text><rect fill="#fb4c4c" height="15" width="10" x="150" y="150" /><text x="0" y="165">monday</text><rect fill="#d7f4d7" height="15" width="10" x="160" y="150" /><text x="0" y="165">monday</text><rect fill="#cff4cf" height="15" width="10" x="170" y="150" /><text x="0" y="165">monday</text><rect fill="#f0f2f0" height="15" width="10" x="180" y="150" /><text x="0" y="165">monday</text><rect fill="#cbf4cb" height="15" width="10" x="190" y="150" /><text x="0" y="165">monday</text><rect fill="#f3dede" height="15" width="10" x="200" y="150" /><text x="0" y="165">monday</text><rect fill="#00ff00" height="15" width="10" x="210" y="150" /><text x="0" y="165">monday</text><rect fill="#f79696" height="15" width="10" x="220" y="150" /><text x="0" y="165">monday</text><rect fill="#f6a5a5" height="15" width="10" x="230" y="150" /><text x="0" y="165">monday</text><rect fill="#c9f4c9" height="15" width="10" x="240" y="150" /><text x="0" y="165">monday</text><rect fill="#f4caca" height="15" width="10" x="250" y="150" /><text x="0" y="165">monday</text><rect fill="#abf6ab" height="15" width="10" x="260" y="150" /><text x="0" y="165">monday</text><rect fill="#b0f6b0" height="15" width="10" x="270" y="150" /><text x="0" y="165">monday</text><rect fill="#d7f4d7" height="15" width="10" x="280" y="150" /><text x="0" y="165">monday</text><rect fill="#b4f6b4" height="15" width="10" x="290" y="150" /><text x="0" y="165">monday</text><rect fill="#d5f4d5" height="15" width="10" x="300" y="150" /><text x="0" y="165">monday</text><rect fill="#f3dede" height="15" width="10" x="310" y="150" /><text x="0" y="165">monday</text><rect fill="#f5c2c2" height="15" width="10" x="320" y="150" /><text x="0" y="165">monday</text><rect fill="#f4d0d0" height="15" width="10" x="330" y="150" /><text x="0" y="180">tuesday</text><rect fill="#b2f6b2" height="15" width="10" x="90" y="165" /><text x="0" y="180">tuesday</text><rect fill="#f5c7c7" height="15" width="10" x="100" y="165" /><text x="0" y="180">tuesday</text><rect fill="#f3e0e0" height="15" width="10" x="110" y="165" /><text x="0" y="180">tuesday</text><rect fill="#a4f6a4" height="15" width="10" x="120" y="165" /><text x="0" y="180">tuesday</text><rect fill="#f4d4d4" height="15" width="10" x="130" y="165" /><text x="0" y="180">tuesday</text><rect fill="#aef6ae" height="15" width="10" x="140" y="165" /><text x="0" y="180">tuesday</text><rect fill="#fa6464" height="15" width="10" x="150" y="165" /><text x="0" y="180">tuesday</text><rect fill="#b9f5b9" height="15" width="10" x="160" y="165" /><text x="0" y="180">tuesday</text><rect fill="#caf4ca" height="15" width="10" x="170" y="165" /><text x="0" y="180">tuesday</text><rect fill="#d9f4d9" height="15" width="10" x="180" y="165" /><text x="0" y="180">tuesday</text><rect fill="#def3de" height="15" width="10" x="190" y="165" /><text x="0" y="180">tuesday</text><rect fill="#f3dddd" height="15" width="10" x="200" y="165" /><text x="0" y="180">tuesday</text><rect fill="#00ff00" height="15" width="10" x="210" y="165" /><text x="0" y="180">tuesday</text><rect fill="#f79b9b" height="15" width="10" x="220" y="165" /><text x="0" y="180">tuesday</text><rect fill="#f6b4b4" height="15" width="10" x="230" y="165" /><text x="0" y="180">tuesday</text><rect fill="#c1f5c1" height="15" width="10" x="240" y="165" /><text x="0" y="180">tuesday</text><rect fill="#f5c7c7" height="15" width="10" x="250" y="165" /><text x="0" y="180">tuesday</text><rect fill="#a4f6a4" height="15" width="10" x="260" y="165" /><text x="0" y="180">tuesday</text><rect fill="#98f798" height="15" width="10" x="270" y="165" /><text x="0" y="180">tuesday</text><rect fill="#e3f3e3" height="15" width="10" x="280" y="165" /><text x="0" y="180">tuesday</text><rect fill="#c4f5c4" height="15" width="10" x="290" y="165" /><text x="0" y="180">tuesday</text><rect fill="#c7f5c7" height="15" width="10" x="300" y="165" /><text x="0" y="180">tuesday</text><rect fill="#f5bdbd" height="15" width="10" x="310" y="165" /><text x="0" y="180">tuesday</text><rect fill="#f3dbdb" height="15" width="10" x="320" y="165" /><text x="0" y="180">tuesday</text><rect fill="#f5b8b8" height="15" width="10" x="330" y="165" /><text x="0" y="195">wednesday</text><rect fill="#b0f6b0" height="15" width="10" x="90" y="180" /><text x="0" y="195">wednesday</text><rect fill="#f4cbcb" height="15" width="10" x="100" y="180" /><text x="0" y="195">wednesday</text><rect fill="#f4d7d7" height="15" width="10" x="110" y="180" /><text x="0" y="195">wednesday</text><rect fill="#9ff79f" height="15" width="10" x="120" y="180" /><text x="0" y="195">wednesday</text><rect fill="#f3e8e8" height="15" width="10" x="130" y="180" /><text x="0" y="195">wednesday</text><rect fill="#b3f6b3" height="15" width="10" x="140" y="180" /><text x="0" y="195">wednesday</text><rect fill="#fa5e5e" height="15" width="10" x="150" y="180" /><text x="0" y="195">wednesday</text><rect fill="#bbf5bb" height="15" width="10" x="160" y="180" /><text x="0" y="195">wednesday</text><rect fill="#c3f5c3" height="15" width="10" x="170" y="180" /><text x="0" y="195">wednesday</text><rect fill="#d3f4d3" height="15" width="10" x="180" y="180" /><text x="0" y="195">wednesday</text><rect fill="#dff3df" height="15" width="10" x="190" y="180" /><text x="0" y="195">wednesday</text><rect fill="#f4d2d2" height="15" width="10" x="200" y="180" /><text x="0" y="195">wednesday</text><rect fill="#00ff00" height="15" width="10" x="210" y="180" /><text x="0" y="195">wednesday</text><rect fill="#f6a4a4" height="15" width="10" x="220" y="180" /><text x="0" y="195">wednesday</text><rect fill="#f6abab" height="15" width="10" x="230" y="180" /><text x="0" y="195">wednesday</text><rect fill="#bcf5bc" height="15" width="10" x="240" y="180" /><text x="0" y="195">wednesday</text><rect fill="#f4cece" height="15" width="10" x="250" y="180" /><text x="0" y="195">wednesday</text><rect fill="#aaf6aa" height="15" width="10" x="260" y="180" /><text x="0" y="195">wednesday</text><rect fill="#9ff79f" height="15" width="10" x="270" y="180" /><text x="0" y="195">wednesday</text><rect fill="#f2efef" height="15" width="10" x="280" y="180" /><text x="0" y="195">wednesday</text><rect fill="#b9f5b9" height="15" width="10" x="290" y="180" /><text x="0" y="195">wednesday</text><rect fill="#cbf4cb" height="15" width="10" x="300" y="180" /><text x="0" y="195">wednesday</text><rect fill="#f4cccc" height="15" width="10" x="310" y="180" /><text x="0" y="195">wednesday</text><rect fill="#f3e1e1" height="15" width="10" x="320" y="180" /><text x="0" y="195">wednesday</text><rect fill="#f5c1c1" height="15" width="10" x="330" y="180" /><text x="0" y="210">tomorrow</text><rect fill="#b7f5b7" height="15" width="10" x="90" y="195" /><text x="0" y="210">tomorrow</text><rect fill="#f5bcbc" height="15" width="10" x="100" y="195" /><text x="0" y="210">tomorrow</text><rect fill="#f5c3c3" height="15" width="10" x="110" y="195" /><text x="0" y="210">tomorrow</text><rect fill="#8df88d" height="15" width="10" x="120" y="195" /><text x="0" y="210">tomorrow</text><rect fill="#cbf4cb" height="15" width="10" x="130" y="195" /><text x="0" y="210">tomorrow</text><rect fill="#c9f4c9" height="15" width="10" x="140" y="195" /><text x="0" y="210">tomorrow</text><rect fill="#fa5959" height="15" width="10" x="150" y="195" /><text x="0" y="210">tomorrow</text><rect fill="#b4f6b4" height="15" width="10" x="160" y="195" /><text x="0" y="210">tomorrow</text><rect fill="#d6f4d6" height="15" width="10" x="170" y="195" /><text x="0" y="210">tomorrow</text><rect fill="#edf3ed" height="15" width="10" x="180" y="195" /><text x="0" y="210">tomorrow</text><rect fill="#a7f6a7" height="15" width="10" x="190" y="195" /><text x="0" y="210">tomorrow</text><rect fill="#f3e9e9" height="15" width="10" x="200" y="195" /><text x="0" y="210">tomorrow</text><rect fill="#00ff00" height="15" width="10" x="210" y="195" /><text x="0" y="210">tomorrow</text><rect fill="#f6afaf" height="15" width="10" x="220" y="195" /><text x="0" y="210">tomorrow</text><rect fill="#f88585" height="15" width="10" x="230" y="195" /><text x="0" y="210">tomorrow</text><rect fill="#caf4ca" height="15" width="10" x="240" y="195" /><text x="0" y="210">tomorrow</text><rect fill="#f3ebeb" height="15" width="10" x="250" y="195" /><text x="0" y="210">tomorrow</text><rect fill="#8df88d" height="15" width="10" x="260" y="195" /><text x="0" y="210">tomorrow</text><rect fill="#a4f6a4" height="15" width="10" x="270" y="195" /><text x="0" y="210">tomorrow</text><rect fill="#e5f3e5" height="15" width="10" x="280" y="195" /><text x="0" y="210">tomorrow</text><rect fill="#b2f6b2" height="15" width="10" x="290" y="195" /><text x="0" y="210">tomorrow</text><rect fill="#cff4cf" height="15" width="10" x="300" y="195" /><text x="0" y="210">tomorrow</text><rect fill="#f4c9c9" height="15" width="10" x="310" y="195" /><text x="0" y="210">tomorrow</text><rect fill="#f6abab" height="15" width="10" x="320" y="195" /><text x="0" y="210">tomorrow</text><rect fill="#f5b7b7" height="15" width="10" x="330" y="195" /></svg>