<?xml version="1.0" encoding="utf-8" ?>
<svg baseProfile="tiny" height="100%" version="1.2" width="100%" xmlns="http://www.w3.org/2000/svg" xmlns:ev="http://www.w3.org/2001/xml-events" xmlns:xlink="http://www.w3.org/1999/xlink"><defs /><text x="0" y="22">red</text><rect fill="#f4f4ff" height="24" width="10" x="90" y="0" /><text x="0" y="22">red</text><rect fill="#ffb4b4" height="24" width="10" x="100" y="0" /><text x="0" y="22">red</text><rect fill="#cbcbff" height="24" width="10" x="110" y="0" /><text x="0" y="22">red</text><rect fill="#fff4f4" height="24" width="10" x="120" y="0" /><text x="0" y="22">red</text><rect fill="#ffcdcd" height="24" width="10" x="130" y="0" /><text x="0" y="22">red</text><rect fill="#fcfcff" height="24" width="10" x="140" y="0" /><text x="0" y="22">red</text><rect fill="#a7a7ff" height="24" width="10" x="150" y="0" /><text x="0" y="22">red</text><rect fill="#d2d2ff" height="24" width="10" x="160" y="0" /><text x="0" y="22">red</text><rect fill="#e6e6ff" height="24" width="10" x="170" y="0" /><text x="0" y="22">red</text><rect fill="#c1c1ff" height="24" width="10" x="180" y="0" /><text x="0" y="22">red</text><rect fill="#ffeded" height="24" width="10" x="190" y="0" /><text x="0" y="22">red</text><rect fill="#fff0f0" height="24" width="10" x="200" y="0" /><text x="0" y="22">red</text><rect fill="#ffefef" height="24" width="10" x="210" y="0" /><text x="0" y="22">red</text><rect fill="#ffe0e0" height="24" width="10" x="220" y="0" /><text x="0" y="22">red</text><rect fill="#fffcfc" height="24" width="10" x="230" y="0" /><text x="0" y="22">red</text><rect fill="#e8e8ff" height="24" width="10" x="240" y="0" /><text x="0" y="22">red</text><rect fill="#efefff" height="24" width="10" x="250" y="0" /><text x="0" y="22">red</text><rect fill="#f6f6ff" height="24" width="10" x="260" y="0" /><text x="0" y="22">red</text><rect fill="#aaaaff" height="24" width="10" x="270" y="0" /><text x="0" y="22">red</text><rect fill="#afafff" height="24" width="10" x="280" y="0" /><text x="0" y="22">red</text><rect fill="#a8a8ff" height="24" width="10" x="290" y="0" /><text x="0" y="22">red</text><rect fill="#c4c4ff" height="24" width="10" x="300" y="0" /><text x="0" y="22">red</text><rect fill="#ffcece" height="24" width="10" x="310" y="0" /><text x="0" y="22">red</text><rect fill="#d9d9ff" height="24" width="10" x="320" y="0" /><text x="0" y="22">red</text><rect fill="#9898ff" height="24" width="10" x="330" y="0" /><text x="0" y="22">red</text><rect fill="#9999ff" height="24" width="10" x="340" y="0" /><text x="0" y="22">red</text><rect fill="#e3e3ff" height="24" width="10" x="350" y="0" /><text x="0" y="22">red</text><rect fill="#ff8080" height="24" width="10" x="360" y="0" /><text x="0" y="22">red</text><rect fill="#ffd1d1" height="24" width="10" x="370" y="0" /><text x="0" y="22">red</text><rect fill="#aaaaff" height="24" width="10" x="380" y="0" /><text x="0" y="22">red</text><rect fill="#ff0d0d" height="24" width="10" x="390" y="0" /><text x="0" y="22">red</text><rect fill="#ffe8e8" height="24" width="10" x="400" y="0" /><text x="0" y="22">red</text><rect fill="#d5d5ff" height="24" width="10" x="410" y="0" /><text x="0" y="22">red</text><rect fill="#ffe2e2" height="24" width="10" x="420" y="0" /><text x="0" y="22">red</text><rect fill="#f4f4ff" height="24" width="10" x="430" y="0" /><text x="0" y="22">red</text><rect fill="#ffcdcd" height="24" width="10" x="440" y="0" /><text x="0" y="22">red</text><rect fill="#fcfcff" height="24" width="10" x="450" y="0" /><text x="0" y="22">red</text><rect fill="#d7d7ff" height="24" width="10" x="460" y="0" /><text x="0" y="22">red</text><rect fill="#fffbfb" height="24" width="10" x="470" y="0" /><text x="0" y="22">red</text><rect fill="#eeeeff" height="24" width="10" x="480" y="0" /><text x="0" y="22">red</text><rect fill="#fff3f3" height="24" width="10" x="490" y="0" /><text x="0" y="22">red</text><rect fill="#ffe8e8" height="24" width="10" x="500" y="0" /><text x="0" y="22">red</text><rect fill="#eeeeff" height="24" width="10" x="510" y="0" /><text x="0" y="22">red</text><rect fill="#bfbfff" height="24" width="10" x="520" y="0" /><text x="0" y="22">red</text><rect fill="#ffa7a7" height="24" width="10" x="530" y="0" /><text x="0" y="22">red</text><rect fill="#fafaff" height="24" width="10" x="540" y="0" /><text x="0" y="22">red</text><rect fill="#e4e4ff" height="24" width="10" x="550" y="0" /><text x="0" y="22">red</text><rect fill="#bdbdff" height="24" width="10" x="560" y="0" /><text x="0" y="22">red</text><rect fill="#f1f1ff" height="24" width="10" x="570" y="0" /><text x="0" y="22">red</text><rect fill="#c0c0ff" height="24" width="10" x="580" y="0" /><text x="0" y="46">orange</text><rect fill="#dbdbff" height="24" width="10" x="90" y="24" /><text x="0" y="46">orange</text><rect fill="#ffdada" height="24" width="10" x="100" y="24" /><text x="0" y="46">orange</text><rect fill="#d4d4ff" height="24" width="10" x="110" y="24" /><text x="0" y="46">orange</text><rect fill="#ffcece" height="24" width="10" x="120" y="24" /><text x="0" y="46">orange</text><rect fill="#fff7f7" height="24" width="10" x="130" y="24" /><text x="0" y="46">orange</text><rect fill="#ffe9e9" height="24" width="10" x="140" y="24" /><text x="0" y="46">orange</text><rect fill="#c5c5ff" height="24" width="10" x="150" y="24" /><text x="0" y="46">orange</text><rect fill="#e4e4ff" height="24" width="10" x="160" y="24" /><text x="0" y="46">orange</text><rect fill="#e9e9ff" height="24" width="10" x="170" y="24" /><text x="0" y="46">orange</text><rect fill="#dfdfff" height="24" width="10" x="180" y="24" /><text x="0" y="46">orange</text><rect fill="#fbfbff" height="24" width="10" x="190" y="24" /><text x="0" y="46">orange</text><rect fill="#d1d1ff" height="24" width="10" x="200" y="24" /><text x="0" y="46">orange</text><rect fill="#ffacac" height="24" width="10" x="210" y="24" /><text x="0" y="46">orange</text><rect fill="#d9d9ff" height="24" width="10" x="220" y="24" /><text x="0" y="46">orange</text><rect fill="#d4d4ff" height="24" width="10" x="230" y="24" /><text x="0" y="46">orange</text><rect fill="#f8f8ff" height="24" width="10" x="240" y="24" /><text x="0" y="46">orange</text><rect fill="#a5a5ff" height="24" width="10" x="250" y="24" /><text x="0" y="46">orange</text><rect fill="#ffe0e0" height="24" width="10" x="260" y="24" /><text x="0" y="46">orange</text><rect fill="#d2d2ff" height="24" width="10" x="270" y="24" /><text x="0" y="46">orange</text><rect fill="#8d8dff" height="24" width="10" x="280" y="24" /><text x="0" y="46">orange</text><rect fill="#ebebff" height="24" width="10" x="290" y="24" /><text x="0" y="46">orange</text><rect fill="#cdcdff" height="24" width="10" x="300" y="24" /><text x="0" y="46">orange</text><rect fill="#ffcfcf" height="24" width="10" x="310" y="24" /><text x="0" y="46">orange</text><rect fill="#fafaff" height="24" width="10" x="320" y="24" /><text x="0" y="46">orange</text><rect fill="#6b6bff" height="24" width="10" x="330" y="24" /><text x="0" y="46">orange</text><rect fill="#b4b4ff" height="24" width="10" x="340" y="24" /><text x="0" y="46">orange</text><rect fill="#e7e7ff" height="24" width="10" x="350" y="24" /><text x="0" y="46">orange</text><rect fill="#ff8282" height="24" width="10" x="360" y="24" /><text x="0" y="46">orange</text><rect fill="#ffd4d4" height="24" width="10" x="370" y="24" /><text x="0" y="46">orange</text><rect fill="#c4c4ff" height="24" width="10" x="380" y="24" /><text x="0" y="46">orange</text><rect fill="#ff5555" height="24" width="10" x="390" y="24" /><text x="0" y="46">orange</text><rect fill="#ffe8e8" height="24" width="10" x="400" y="24" /><text x="0" y="46">orange</text><rect fill="#b6b6ff" height="24" width="10" x="410" y="24" /><text x="0" y="46">orange</text><rect fill="#efefff" height="24" width="10" x="420" y="24" /><text x="0" y="46">orange</text><rect fill="#fdfdff" height="24" width="10" x="430" y="24" /><text x="0" y="46">orange</text><rect fill="#fafaff" height="24" width="10" x="440" y="24" /><text x="0" y="46">orange</text><rect fill="#d4d4ff" height="24" width="10" x="450" y="24" /><text x="0" y="46">orange</text><rect fill="#c6c6ff" height="24" width="10" x="460" y="24" /><text x="0" y="46">orange</text><rect fill="#ffd0d0" height="24" width="10" x="470" y="24" /><text x="0" y="46">orange</text><rect fill="#bbbbff" height="24" width="10" x="480" y="24" /><text x="0" y="46">orange</text><rect fill="#fff6f6" height="24" width="10" x="490" y="24" /><text x="0" y="46">orange</text><rect fill="#fff3f3" height="24" width="10" x="500" y="24" /><text x="0" y="46">orange</text><rect fill="#d0d0ff" height="24" width="10" x="510" y="24" /><text x="0" y="46">orange</text><rect fill="#c8c8ff" height="24" width="10" x="520" y="24" /><text x="0" y="46">orange</text><rect fill="#ffecec" height="24" width="10" x="530" y="24" /><text x="0" y="46">orange</text><rect fill="#ffc6c6" height="24" width="10" x="540" y="24" /><text x="0" y="46">orange</text><rect fill="#d9d9ff" height="24" width="10" x="550" y="24" /><text x="0" y="46">orange</text><rect fill="#9e9eff" height="24" width="10" x="560" y="24" /><text x="0" y="46">orange</text><rect fill="#fff1f1" height="24" width="10" x="570" y="24" /><text x="0" y="46">orange</text><rect fill="#c9c9ff" height="24" width="10" x="580" y="24" /><text x="0" y="70">monday</text><rect fill="#ffe3e3" height="24" width="10" x="90" y="48" /><text x="0" y="70">monday</text><rect fill="#ffffff" height="24" width="10" x="100" y="48" /><text x="0" y="70">monday</text><rect fill="#fff2f2" height="24" width="10" x="110" y="48" /><text x="0" y="70">monday</text><rect fill="#ffb9b9" height="24" width="10" x="120" y="48" /><text x="0" y="70">monday</text><rect fill="#ffeded" height="24" width="10" x="130" y="48" /><text x="0" y="70">monday</text><rect fill="#b3b3ff" height="24" width="10" x="140" y="48" /><text x="0" y="70">monday</text><rect fill="#b0b0ff" height="24" width="10" x="150" y="48" /><text x="0" y="70">monday</text><rect fill="#ffc3c3" height="24" width="10" x="160" y="48" /><text x="0" y="70">monday</text><rect fill="#d6d6ff" height="24" width="10" x="170" y="48" /><text x="0" y="70">monday</text><rect fill="#c2c2ff" height="24" width="10" x="180" y="48" /><text x="0" y="70">monday</text><rect fill="#d6d6ff" height="24" width="10" x="190" y="48" /><text x="0" y="70">monday</text><rect fill="#9393ff" height="24" width="10" x="200" y="48" /><text x="0" y="70">monday</text><rect fill="#d0d0ff" height="24" width="10" x="210" y="48" /><text x="0" y="70">monday</text><rect fill="#ffefef" height="24" width="10" x="220" y="48" /><text x="0" y="70">monday</text><rect fill="#ffb5b5" height="24" width="10" x="230" y="48" /><text x="0" y="70">monday</text><rect fill="#ffe5e5" height="24" width="10" x="240" y="48" /><text x="0" y="70">monday</text><rect fill="#a9a9ff" height="24" width="10" x="250" y="48" /><text x="0" y="70">monday</text><rect fill="#aeaeff" height="24" width="10" x="260" y="48" /><text x="0" y="70">monday</text><rect fill="#b6b6ff" height="24" width="10" x="270" y="48" /><text x="0" y="70">monday</text><rect fill="#f3f3ff" height="24" width="10" x="280" y="48" /><text x="0" y="70">monday</text><rect fill="#ffbdbd" height="24" width="10" x="290" y="48" /><text x="0" y="70">monday</text><rect fill="#ffbaba" height="24" width="10" x="300" y="48" /><text x="0" y="70">monday</text><rect fill="#fffafa" height="24" width="10" x="310" y="48" /><text x="0" y="70">monday</text><rect fill="#bcbcff" height="24" width="10" x="320" y="48" /><text x="0" y="70">monday</text><rect fill="#f0f0ff" height="24" width="10" x="330" y="48" /><text x="0" y="70">monday</text><rect fill="#5e5eff" height="24" width="10" x="340" y="48" /><text x="0" y="70">monday</text><rect fill="#ffb6b6" height="24" width="10" x="350" y="48" /><text x="0" y="70">monday</text><rect fill="#ffcdcd" height="24" width="10" x="360" y="48" /><text x="0" y="70">monday</text><rect fill="#c5c5ff" height="24" width="10" x="370" y="48" /><text x="0" y="70">monday</text><rect fill="#ffdada" height="24" width="10" x="380" y="48" /><text x="0" y="70">monday</text><rect fill="#ff0000" height="24" width="10" x="390" y="48" /><text x="0" y="70">monday</text><rect fill="#ffebeb" height="24" width="10" x="400" y="48" /><text x="0" y="70">monday</text><rect fill="#ceceff" height="24" width="10" x="410" y="48" /><text x="0" y="70">monday</text><rect fill="#fffafa" height="24" width="10" x="420" y="48" /><text x="0" y="70">monday</text><rect fill="#f4f4ff" height="24" width="10" x="430" y="48" /><text x="0" y="70">monday</text><rect fill="#c4c4ff" height="24" width="10" x="440" y="48" /><text x="0" y="70">monday</text><rect fill="#ffd9d9" height="24" width="10" x="450" y="48" /><text x="0" y="70">monday</text><rect fill="#eaeaff" height="24" width="10" x="460" y="48" /><text x="0" y="70">monday</text><rect fill="#fff3f3" height="24" width="10" x="470" y="48" /><text x="0" y="70">monday</text><rect fill="#fff5f5" height="24" width="10" x="480" y="48" /><text x="0" y="70">monday</text><rect fill="#dbdbff" height="24" width="10" x="490" y="48" /><text x="0" y="70">monday</text><rect fill="#ffc7c7" height="24" width="10" x="500" y="48" /><text x="0" y="70">monday</text><rect fill="#fffbfb" height="24" width="10" x="510" y="48" /><text x="0" y="70">monday</text><rect fill="#cacaff" height="24" width="10" x="520" y="48" /><text x="0" y="70">monday</text><rect fill="#ffc0c0" height="24" width="10" x="530" y="48" /><text x="0" y="70">monday</text><rect fill="#ffeaea" height="24" width="10" x="540" y="48" /><text x="0" y="70">monday</text><rect fill="#c1c1ff" height="24" width="10" x="550" y="48" /><text x="0" y="70">monday</text><rect fill="#ffb5b5" height="24" width="10" x="560" y="48" /><text x="0" y="70">monday</text><rect fill="#ffe8e8" height="24" width="10" x="570" y="48" /><text x="0" y="70">monday</text><rect fill="#e2e2ff" height="24" width="10" x="580" y="48" /><text x="0" y="94">tuesday</text><rect fill="#ffe1e1" height="24" width="10" x="90" y="72" /><text x="0" y="94">tuesday</text><rect fill="#f9f9ff" height="24" width="10" x="100" y="72" /><text x="0" y="94">tuesday</text><rect fill="#ffeded" height="24" width="10" x="110" y="72" /><text x="0" y="94">tuesday</text><rect fill="#ffbaba" height="24" width="10" x="120" y="72" /><text x="0" y="94">tuesday</text><rect fill="#ffecec" height="24" width="10" x="130" y="72" /><text x="0" y="94">tuesday</text><rect fill="#bcbcff" height="24" width="10" x="140" y="72" /><text x="0" y="94">tuesday</text><rect fill="#b2b2ff" height="24" width="10" x="150" y="72" /><text x="0" y="94">tuesday</text><rect fill="#ffc7c7" height="24" width="10" x="160" y="72" /><text x="0" y="94">tuesday</text><rect fill="#d6d6ff" height="24" width="10" x="170" y="72" /><text x="0" y="94">tuesday</text><rect fill="#c8c8ff" height="24" width="10" x="180" y="72" /><text x="0" y="94">tuesday</text><rect fill="#d8d8ff" height="24" width="10" x="190" y="72" /><text x="0" y="94">tuesday</text><rect fill="#9797ff" height="24" width="10" x="200" y="72" /><text x="0" y="94">tuesday</text><rect fill="#d0d0ff" height="24" width="10" x="210" y="72" /><text x="0" y="94">tuesday</text><rect fill="#ffeded" height="24" width="10" x="220" y="72" /><text x="0" y="94">tuesday</text><rect fill="#ffb9b9" height="24" width="10" x="230" y="72" /><text x="0" y="94">tuesday</text><rect fill="#ffeaea" height="24" width="10" x="240" y="72" /><text x="0" y="94">tuesday</text><rect fill="#afafff" height="24" width="10" x="250" y="72" /><text x="0" y="94">tuesday</text><rect fill="#acacff" height="24" width="10" x="260" y="72" /><text x="0" y="94">tuesday</text><rect fill="#b2b2ff" height="24" width="10" x="270" y="72" /><text x="0" y="94">tuesday</text><rect fill="#eeeeff" height="24" width="10" x="280" y="72" /><text x="0" y="94">tuesday</text><rect fill="#ffc4c4" height="24" width="10" x="290" y="72" /><text x="0" y="94">tuesday</text><rect fill="#ffc1c1" height="24" width="10" x="300" y="72" /><text x="0" y="94">tuesday</text><rect fill="#fff3f3" height="24" width="10" x="310" y="72" /><text x="0" y="94">tuesday</text><rect fill="#babaff" height="24" width="10" x="320" y="72" /><text x="0" y="94">tuesday</text><rect fill="#ececff" height="24" width="10" x="330" y="72" /><text x="0" y="94">tuesday</text><rect fill="#5858ff" height="24" width="10" x="340" y="72" /><text x="0" y="94">tuesday</text><rect fill="#ffb6b6" height="24" width="10" x="350" y="72" /><text x="0" y="94">tuesday</text><rect fill="#ffcaca" height="24" width="10" x="360" y="72" /><text x="0" y="94">tuesday</text><rect fill="#c1c1ff" height="24" width="10" x="370" y="72" /><text x="0" y="94">tuesday</text><rect fill="#ffe1e1" height="24" width="10" x="380" y="72" /><text x="0" y="94">tuesday</text><rect fill="#ff0000" height="24" width="10" x="390" y="72" /><text x="0" y="94">tuesday</text><rect fill="#ffe7e7" height="24" width="10" x="400" y="72" /><text x="0" y="94">tuesday</text><rect fill="#d4d4ff" height="24" width="10" x="410" y="72" /><text x="0" y="94">tuesday</text><rect fill="#fffdfd" height="24" width="10" x="420" y="72" /><text x="0" y="94">tuesday</text><rect fill="#f2f2ff" height="24" width="10" x="430" y="72" /><text x="0" y="94">tuesday</text><rect fill="#c0c0ff" height="24" width="10" x="440" y="72" /><text x="0" y="94">tuesday</text><rect fill="#ffdbdb" height="24" width="10" x="450" y="72" /><text x="0" y="94">tuesday</text><rect fill="#f3f3ff" height="24" width="10" x="460" y="72" /><text x="0" y="94">tuesday</text><rect fill="#fff5f5" height="24" width="10" x="470" y="72" /><text x="0" y="94">tuesday</text><rect fill="#fffafa" height="24" width="10" x="480" y="72" /><text x="0" y="94">tuesday</text><rect fill="#dcdcff" height="24" width="10" x="490" y="72" /><text x="0" y="94">tuesday</text><rect fill="#ffc5c5" height="24" width="10" x="500" y="72" /><text x="0" y="94">tuesday</text><rect fill="#fff9f9" height="24" width="10" x="510" y="72" /><text x="0" y="94">tuesday</text><rect fill="#c7c7ff" height="24" width="10" x="520" y="72" /><text x="0" y="94">tuesday</text><rect fill="#ffc6c6" height="24" width="10" x="530" y="72" /><text x="0" y="94">tuesday</text><rect fill="#ffecec" height="24" width="10" x="540" y="72" /><text x="0" y="94">tuesday</text><rect fill="#c3c3ff" height="24" width="10" x="550" y="72" /><text x="0" y="94">tuesday</text><rect fill="#ffb3b3" height="24" width="10" x="560" y="72" /><text x="0" y="94">tuesday</text><rect fill="#ffe3e3" height="24" width="10" x="570" y="72" /><text x="0" y="94">tuesday</text><rect fill="#e4e4ff" height="24" width="10" x="580" y="72" /><text x="0" y="118">bicycle</text><rect fill="#dcdcff" height="24" width="10" x="90" y="96" /><text x="0" y="118">bicycle</text><rect fill="#fff1f1" height="24" width="10" x="100" y="96" /><text x="0" y="118">bicycle</text><rect fill="#fff0f0" height="24" width="10" x="110" y="96" /><text x="0" y="118">bicycle</text><rect fill="#fffcfc" height="24" width="10" x="120" y="96" /><text x="0" y="118">bicycle</text><rect fill="#bebeff" height="24" width="10" x="130" y="96" /><text x="0" y="118">bicycle</text><rect fill="#ffd6d6" height="24" width="10" x="140" y="96" /><text x="0" y="118">bicycle</text><rect fill="#aeaeff" height="24" width="10" x="150" y="96" /><text x="0" y="118">bicycle</text><rect fill="#c4c4ff" height="24" width="10" x="160" y="96" /><text x="0" y="118">bicycle</text><rect fill="#ff8d8d" height="24" width="10" x="170" y="96" /><text x="0" y="118">bicycle</text><rect fill="#cdcdff" height="24" width="10" x="180" y="96" /><text x="0" y="118">bicycle</text><rect fill="#ffd5d5" height="24" width="10" x="190" y="96" /><text x="0" y="118">bicycle</text><rect fill="#ccccff" height="24" width="10" x="200" y="96" /><text x="0" y="118">bicycle</text><rect fill="#adadff" height="24" width="10" x="210" y="96" /><text x="0" y="118">bicycle</text><rect fill="#ffdcdc" height="24" width="10" x="220" y="96" /><text x="0" y="118">bicycle</text><rect fill="#fafaff" height="24" width="10" x="230" y="96" /><text x="0" y="118">bicycle</text><rect fill="#c7c7ff" height="24" width="10" x="240" y="96" /><text x="0" y="118">bicycle</text><rect fill="#e2e2ff" height="24" width="10" x="250" y="96" /><text x="0" y="118">bicycle</text><rect fill="#ff8282" height="24" width="10" x="260" y="96" /><text x="0" y="118">bicycle</text><rect fill="#d3d3ff" height="24" width="10" x="270" y="96" /><text x="0" y="118">bicycle</text><rect fill="#7878ff" height="24" width="10" x="280" y="96" /><text x="0" y="118">bicycle</text><rect fill="#ffd9d9" height="24" width="10" x="290" y="96" /><text x="0" y="118">bicycle</text><rect fill="#f6f6ff" height="24" width="10" x="300" y="96" /><text x="0" y="118">bicycle</text><rect fill="#8686ff" height="24" width="10" x="310" y="96" /><text x="0" y="118">bicycle</text><rect fill="#ff9b9b" height="24" width="10" x="320" y="96" /><text x="0" y="118">bicycle</text><rect fill="#ffe7e7" height="24" width="10" x="330" y="96" /><text x="0" y="118">bicycle</text><rect fill="#b1b1ff" height="24" width="10" x="340" y="96" /><text x="0" y="118">bicycle</text><rect fill="#ededff" height="24" width="10" x="350" y="96" /><text x="0" y="118">bicycle</text><rect fill="#fff6f6" height="24" width="10" x="360" y="96" /><text x="0" y="118">bicycle</text><rect fill="#ffcaca" height="24" width="10" x="370" y="96" /><text x="0" y="118">bicycle</text><rect fill="#ededff" height="24" width="10" x="380" y="96" /><text x="0" y="118">bicycle</text><rect fill="#ff8d8d" height="24" width="10" x="390" y="96" /><text x="0" y="118">bicycle</text><rect fill="#ffd1d1" height="24" width="10" x="400" y="96" /><text x="0" y="118">bicycle</text><rect fill="#c7c7ff" height="24" width="10" x="410" y="96" /><text x="0" y="118">bicycle</text><rect fill="#ffd0d0" height="24" width="10" x="420" y="96" /><text x="0" y="118">bicycle</text><rect fill="#ffdede" height="24" width="10" x="430" y="96" /><text x="0" y="118">bicycle</text><rect fill="#ffe1e1" height="24" width="10" x="440" y="96" /><text x="0" y="118">bicycle</text><rect fill="#ffdfdf" height="24" width="10" x="450" y="96" /><text x="0" y="118">bicycle</text><rect fill="#ffd8d8" height="24" width="10" x="460" y="96" /><text x="0" y="118">bicycle</text><rect fill="#e5e5ff" height="24" width="10" x="470" y="96" /><text x="0" y="118">bicycle</text><rect fill="#ffadad" height="24" width="10" x="480" y="96" /><text x="0" y="118">bicycle</text><rect fill="#fefeff" height="24" width="10" x="490" y="96" /><text x="0" y="118">bicycle</text><rect fill="#e0e0ff" height="24" width="10" x="500" y="96" /><text x="0" y="118">bicycle</text><rect fill="#fffafa" height="24" width="10" x="510" y="96" /><text x="0" y="118">bicycle</text><rect fill="#ffe2e2" height="24" width="10" x="520" y="96" /><text x="0" y="118">bicycle</text><rect fill="#fff7f7" height="24" width="10" x="530" y="96" /><text x="0" y="118">bicycle</text><rect fill="#adadff" height="24" width="10" x="540" y="96" /><text x="0" y="118">bicycle</text><rect fill="#ffe4e4" height="24" width="10" x="550" y="96" /><text x="0" y="118">bicycle</text><rect fill="#9f9fff" height="24" width="10" x="560" y="96" /><text x="0" y="118">bicycle</text><rect fill="#ffb1b1" height="24" width="10" x="570" y="96" /><text x="0" y="118">bicycle</text><rect fill="#c7c7ff" height="24" width="10" x="580" y="96" /><text x="0" y="142">bike</text><rect fill="#f9f9ff" height="24" width="10" x="90" y="120" /><text x="0" y="142">bike</text><rect fill="#ffc9c9" height="24" width="10" x="100" y="120" /><text x="0" y="142">bike</text><rect fill="#ffe6e6" height="24" width="10" x="110" y="120" /><text x="0" y="142">bike</text><rect fill="#fff7f7" height="24" width="10" x="120" y="120" /><text x="0" y="142">bike</text><rect fill="#b5b5ff" height="24" width="10" x="130" y="120" /><text x="0" y="142">bike</text><rect fill="#ffeded" height="24" width="10" x="140" y="120" /><text x="0" y="142">bike</text><rect fill="#adadff" height="24" width="10" x="150" y="120" /><text x="0" y="142">bike</text><rect fill="#cdcdff" height="24" width="10" x="160" y="120" /><text x="0" y="142">bike</text><rect fill="#ff9797" height="24" width="10" x="170" y="120" /><text x="0" y="142">bike</text><rect fill="#d7d7ff" height="24" width="10" x="180" y="120" /><text x="0" y="142">bike</text><rect fill="#fff7f7" height="24" width="10" x="190" y="120" /><text x="0" y="142">bike</text><rect fill="#c5c5ff" height="24" width="10" x="200" y="120" /><text x="0" y="142">bike</text><rect fill="#aaaaff" height="24" width="10" x="210" y="120" /><text x="0" y="142">bike</text><rect fill="#fbfbff" height="24" width="10" x="220" y="120" /><text x="0" y="142">bike</text><rect fill="#ffe4e4" height="24" width="10" x="230" y="120" /><text x="0" y="142">bike</text><rect fill="#e9e9ff" height="24" width="10" x="240" y="120" /><text x="0" y="142">bike</text><rect fill="#fff9f9" height="24" width="10" x="250" y="120" /><text x="0" y="142">bike</text><rect fill="#ff8b8b" height="24" width="10" x="260" y="120" /><text x="0" y="142">bike</text><rect fill="#d6d6ff" height="24" width="10" x="270" y="120" /><text x="0" y="142">bike</text><rect fill="#6767ff" height="24" width="10" x="280" y="120" /><text x="0" y="142">bike</text><rect fill="#fffefe" height="24" width="10" x="290" y="120" /><text x="0" y="142">bike</text><rect fill="#fff5f5" height="24" width="10" x="300" y="120" /><text x="0" y="142">bike</text><rect fill="#9c9cff" height="24" width="10" x="310" y="120" /><text x="0" y="142">bike</text><rect fill="#ff9e9e" height="24" width="10" x="320" y="120" /><text x="0" y="142">bike</text><rect fill="#ffc2c2" height="24" width="10" x="330" y="120" /><text x="0" y="142">bike</text><rect fill="#c9c9ff" height="24" width="10" x="340" y="120" /><text x="0" y="142">bike</text><rect fill="#ededff" height="24" width="10" x="350" y="120" /><text x="0" y="142">bike</text><rect fill="#ffdcdc" height="24" width="10" x="360" y="120" /><text x="0" y="142">bike</text><rect fill="#ffbbbb" height="24" width="10" x="370" y="120" /><text x="0" y="142">bike</text><rect fill="#dadaff" height="24" width="10" x="380" y="120" /><text x="0" y="142">bike</text><rect fill="#ff7b7b" height="24" width="10" x="390" y="120" /><text x="0" y="142">bike</text><rect fill="#ffbdbd" height="24" width="10" x="400" y="120" /><text x="0" y="142">bike</text><rect fill="#cbcbff" height="24" width="10" x="410" y="120" /><text x="0" y="142">bike</text><rect fill="#ffb6b6" height="24" width="10" x="420" y="120" /><text x="0" y="142">bike</text><rect fill="#ffe9e9" height="24" width="10" x="430" y="120" /><text x="0" y="142">bike</text><rect fill="#f5f5ff" height="24" width="10" x="440" y="120" /><text x="0" y="142">bike</text><rect fill="#ffd9d9" height="24" width="10" x="450" y="120" /><text x="0" y="142">bike</text><rect fill="#ffd7d7" height="24" width="10" x="460" y="120" /><text x="0" y="142">bike</text><rect fill="#e9e9ff" height="24" width="10" x="470" y="120" /><text x="0" y="142">bike</text><rect fill="#ffe6e6" height="24" width="10" x="480" y="120" /><text x="0" y="142">bike</text><rect fill="#fdfdff" height="24" width="10" x="490" y="120" /><text x="0" y="142">bike</text><rect fill="#d4d4ff" height="24" width="10" x="500" y="120" /><text x="0" y="142">bike</text><rect fill="#fffdfd" height="24" width="10" x="510" y="120" /><text x="0" y="142">bike</text><rect fill="#ffcaca" height="24" width="10" x="520" y="120" /><text x="0" y="142">bike</text><rect fill="#ffebeb" height="24" width="10" x="530" y="120" /><text x="0" y="142">bike</text><rect fill="#9d9dff" height="24" width="10" x="540" y="120" /><text x="0" y="142">bike</text><rect fill="#ffbcbc" height="24" width="10" x="550" y="120" /><text x="0" y="142">bike</text><rect fill="#8787ff" height="24" width="10" x="560" y="120" /><text x="0" y="142">bike</text><rect fill="#ffc2c2" height="24" width="10" x="570" y="120" /><text x="0" y="142">bike</text><rect fill="#f8f8ff" height="24" width="10" x="580" y="120" /><text x="0" y="166">boy</text><rect fill="#e4e4ff" height="24" width="10" x="90" y="144" /><text x="0" y="166">boy</text><rect fill="#ffebeb" height="24" width="10" x="100" y="144" /><text x="0" y="166">boy</text><rect fill="#eeeeff" height="24" width="10" x="110" y="144" /><text x="0" y="166">boy</text><rect fill="#d2d2ff" height="24" width="10" x="120" y="144" /><text x="0" y="166">boy</text><rect fill="#ffa2a2" height="24" width="10" x="130" y="144" /><text x="0" y="166">boy</text><rect fill="#ffcaca" height="24" width="10" x="140" y="144" /><text x="0" y="166">boy</text><rect fill="#aaaaff" height="24" width="10" x="150" y="144" /><text x="0" y="166">boy</text><rect fill="#ffe7e7" height="24" width="10" x="160" y="144" /><text x="0" y="166">boy</text><rect fill="#fff7f7" height="24" width="10" x="170" y="144" /><text x="0" y="166">boy</text><rect fill="#ffe0e0" height="24" width="10" x="180" y="144" /><text x="0" y="166">boy</text><rect fill="#ffe4e4" height="24" width="10" x="190" y="144" /><text x="0" y="166">boy</text><rect fill="#ffe1e1" height="24" width="10" x="200" y="144" /><text x="0" y="166">boy</text><rect fill="#fff9f9" height="24" width="10" x="210" y="144" /><text x="0" y="166">boy</text><rect fill="#ffeaea" height="24" width="10" x="220" y="144" /><text x="0" y="166">boy</text><rect fill="#ffb0b0" height="24" width="10" x="230" y="144" /><text x="0" y="166">boy</text><rect fill="#e3e3ff" height="24" width="10" x="240" y="144" /><text x="0" y="166">boy</text><rect fill="#ababff" height="24" width="10" x="250" y="144" /><text x="0" y="166">boy</text><rect fill="#ffbaba" height="24" width="10" x="260" y="144" /><text x="0" y="166">boy</text><rect fill="#ececff" height="24" width="10" x="270" y="144" /><text x="0" y="166">boy</text><rect fill="#ffdddd" height="24" width="10" x="280" y="144" /><text x="0" y="166">boy</text><rect fill="#b6b6ff" height="24" width="10" x="290" y="144" /><text x="0" y="166">boy</text><rect fill="#ff8989" height="24" width="10" x="300" y="144" /><text x="0" y="166">boy</text><rect fill="#fffafa" height="24" width="10" x="310" y="144" /><text x="0" y="166">boy</text><rect fill="#ffbebe" height="24" width="10" x="320" y="144" /><text x="0" y="166">boy</text><rect fill="#ffe0e0" height="24" width="10" x="330" y="144" /><text x="0" y="166">boy</text><rect fill="#4f4fff" height="24" width="10" x="340" y="144" /><text x="0" y="166">boy</text><rect fill="#d7d7ff" height="24" width="10" x="350" y="144" /><text x="0" y="166">boy</text><rect fill="#fff4f4" height="24" width="10" x="360" y="144" /><text x="0" y="166">boy</text><rect fill="#ffe1e1" height="24" width="10" x="370" y="144" /><text x="0" y="166">boy</text><rect fill="#bdbdff" height="24" width="10" x="380" y="144" /><text x="0" y="166">boy</text><rect fill="#ff4343" height="24" width="10" x="390" y="144" /><text x="0" y="166">boy</text><rect fill="#dbdbff" height="24" width="10" x="400" y="144" /><text x="0" y="166">boy</text><rect fill="#eaeaff" height="24" width="10" x="410" y="144" /><text x="0" y="166">boy</text><rect fill="#ffdede" height="24" width="10" x="420" y="144" /><text x="0" y="166">boy</text><rect fill="#ffcbcb" height="24" width="10" x="430" y="144" /><text x="0" y="166">boy</text><rect fill="#ffcaca" height="24" width="10" x="440" y="144" /><text x="0" y="166">boy</text><rect fill="#ffe4e4" height="24" width="10" x="450" y="144" /><text x="0" y="166">boy</text><rect fill="#b4b4ff" height="24" width="10" x="460" y="144" /><text x="0" y="166">boy</text><rect fill="#ffdede" height="24" width="10" x="470" y="144" /><text x="0" y="166">boy</text><rect fill="#9e9eff" height="24" width="10" x="480" y="144" /><text x="0" y="166">boy</text><rect fill="#dbdbff" height="24" width="10" x="490" y="144" /><text x="0" y="166">boy</text><rect fill="#ffe9e9" height="24" width="10" x="500" y="144" /><text x="0" y="166">boy</text><rect fill="#c7c7ff" height="24" width="10" x="510" y="144" /><text x="0" y="166">boy</text><rect fill="#f5f5ff" height="24" width="10" x="520" y="144" /><text x="0" y="166">boy</text><rect fill="#ffa5a5" height="24" width="10" x="530" y="144" /><text x="0" y="166">boy</text><rect fill="#cbcbff" height="24" width="10" x="540" y="144" /><text x="0" y="166">boy</text><rect fill="#ffe4e4" height="24" width="10" x="550" y="144" /><text x="0" y="166">boy</text><rect fill="#8f8fff" height="24" width="10" x="560" y="144" /><text x="0" y="166">boy</text><rect fill="#ffe4e4" height="24" width="10" x="570" y="144" /><text x="0" y="166">boy</text><rect fill="#fffdfd" height="24" width="10" x="580" y="144" /><text x="0" y="190">girl</text><rect fill="#e2e2ff" height="24" width="10" x="90" y="168" /><text x="0" y="190">girl</text><rect fill="#ffc4c4" height="24" width="10" x="100" y="168" /><text x="0" y="190">girl</text><rect fill="#bdbdff" height="24" width="10" x="110" y="168" /><text x="0" y="190">girl</text><rect fill="#cdcdff" height="24" width="10" x="120" y="168" /><text x="0" y="190">girl</text><rect fill="#ff9797" height="24" width="10" x="130" y="168" /><text x="0" y="190">girl</text><rect fill="#ff9494" height="24" width="10" x="140" y="168" /><text x="0" y="190">girl</text><rect fill="#bebeff" height="24" width="10" x="150" y="168" /><text x="0" y="190">girl</text><rect fill="#ffdddd" height="24" width="10" x="160" y="168" /><text x="0" y="190">girl</text><rect fill="#ffefef" height="24" width="10" x="170" y="168" /><text x="0" y="190">girl</text><rect fill="#fff7f7" height="24" width="10" x="180" y="168" /><text x="0" y="190">girl</text><rect fill="#ffe3e3" height="24" width="10" x="190" y="168" /><text x="0" y="190">girl</text><rect fill="#e4e4ff" height="24" width="10" x="200" y="168" /><text x="0" y="190">girl</text><rect fill="#ffebeb" height="24" width="10" x="210" y="168" /><text x="0" y="190">girl</text><rect fill="#ffe2e2" height="24" width="10" x="220" y="168" /><text x="0" y="190">girl</text><rect fill="#ffa5a5" height="24" width="10" x="230" y="168" /><text x="0" y="190">girl</text><rect fill="#eaeaff" height="24" width="10" x="240" y="168" /><text x="0" y="190">girl</text><rect fill="#a7a7ff" height="24" width="10" x="250" y="168" /><text x="0" y="190">girl</text><rect fill="#ffc3c3" height="24" width="10" x="260" y="168" /><text x="0" y="190">girl</text><rect fill="#fffcfc" height="24" width="10" x="270" y="168" /><text x="0" y="190">girl</text><rect fill="#ffd1d1" height="24" width="10" x="280" y="168" /><text x="0" y="190">girl</text><rect fill="#e5e5ff" height="24" width="10" x="290" y="168" /><text x="0" y="190">girl</text><rect fill="#ff6a6a" height="24" width="10" x="300" y="168" /><text x="0" y="190">girl</text><rect fill="#ffe4e4" height="24" width="10" x="310" y="168" /><text x="0" y="190">girl</text><rect fill="#ff9898" height="24" width="10" x="320" y="168" /><text x="0" y="190">girl</text><rect fill="#ffdcdc" height="24" width="10" x="330" y="168" /><text x="0" y="190">girl</text><rect fill="#5a5aff" height="24" width="10" x="340" y="168" /><text x="0" y="190">girl</text><rect fill="#afafff" height="24" width="10" x="350" y="168" /><text x="0" y="190">girl</text><rect fill="#ffe3e3" height="24" width="10" x="360" y="168" /><text x="0" y="190">girl</text><rect fill="#ffd3d3" height="24" width="10" x="370" y="168" /><text x="0" y="190">girl</text><rect fill="#b5b5ff" height="24" width="10" x="380" y="168" /><text x="0" y="190">girl</text><rect fill="#ff4a4a" height="24" width="10" x="390" y="168" /><text x="0" y="190">girl</text><rect fill="#eeeeff" height="24" width="10" x="400" y="168" /><text x="0" y="190">girl</text><rect fill="#efefff" height="24" width="10" x="410" y="168" /><text x="0" y="190">girl</text><rect fill="#ffdfdf" height="24" width="10" x="420" y="168" /><text x="0" y="190">girl</text><rect fill="#ffc7c7" height="24" width="10" x="430" y="168" /><text x="0" y="190">girl</text><rect fill="#ffd4d4" height="24" width="10" x="440" y="168" /><text x="0" y="190">girl</text><rect fill="#f4f4ff" height="24" width="10" x="450" y="168" /><text x="0" y="190">girl</text><rect fill="#b8b8ff" height="24" width="10" x="460" y="168" /><text x="0" y="190">girl</text><rect fill="#ffeded" height="24" width="10" x="470" y="168" /><text x="0" y="190">girl</text><rect fill="#9090ff" height="24" width="10" x="480" y="168" /><text x="0" y="190">girl</text><rect fill="#d9d9ff" height="24" width="10" x="490" y="168" /><text x="0" y="190">girl</text><rect fill="#f5f5ff" height="24" width="10" x="500" y="168" /><text x="0" y="190">girl</text><rect fill="#fffcfc" height="24" width="10" x="510" y="168" /><text x="0" y="190">girl</text><rect fill="#c5c5ff" height="24" width="10" x="520" y="168" /><text x="0" y="190">girl</text><rect fill="#ffaaaa" height="24" width="10" x="530" y="168" /><text x="0" y="190">girl</text><rect fill="#b4b4ff" height="24" width="10" x="540" y="168" /><text x="0" y="190">girl</text><rect fill="#ffcfcf" height="24" width="10" x="550" y="168" /><text x="0" y="190">girl</text><rect fill="#8e8eff" height="24" width="10" x="560" y="168" /><text x="0" y="190">girl</text><rect fill="#ffdfdf" height="24" width="10" x="570" y="168" /><text x="0" y="190">girl</text><rect fill="#fffdfd" height="24" width="10" x="580" y="168" /></svg>