<?xml version="1.0" encoding="UTF-8" ?>
<!DOCTYPE svg PUBLIC "-//W3C//DTD SVG 1.1//EN" "http://www.w3.org/Graphics/SVG/1.1/DTD/svg11.dtd">
<svg width="100" height="100" xmlns="http://www.w3.org/2000/svg" version="1.1">
  <circle cx="0" cy="0" r="2" stroke="#111122" fill="#E0E0F0" fill-opacity="0.5"/>
  <circle cx="0" cy="5" r="2" stroke="#111122" fill="#E0E0F0" fill-opacity="0.5"/>
  <circle cx="0" cy="10" r="2" stroke="#111122" fill="#E0E0F0" fill-opacity="0.5"/>
  <circle cx="0" cy="15" r="2" stroke="#111122" fill="#E0E0F0" fill-opacity="0.5"/>
  <circle cx="0" cy="20" r="2" stroke="#111122" fill="#E0E0F0" fill-opacity="0.5"/>
  <circle cx="0" cy="25" r="2" stroke="#111122" fill="#E0E0F0" fill-opacity="0.5"/>
  <circle cx="0" cy="30" r="2" stroke="#111122" fill="#E0E0F0" fill-opacity="0.5"/>
  <circle cx="0" cy="35" r="2" stroke="#111122" fill="#E0E0F0" fill-opacity="0.5"/>
  <circle cx="0" cy="40" r="2" stroke="#111122" fill="#E0E0F0" fill-opacity="0.5"/>
  <circle cx="0" cy="45" r="2" stroke="#111122" fill="#E0E0F0" fill-opacity="0.5"/>
  <circle cx="0" cy="50" r="2" stroke="#111122" fill="#E0E0F0" fill-opacity="0.5"/>
  <circle cx="0" cy="55" r="2" stroke="#111122" fill="#E0E0F0" fill-opacity="0.5"/>
  <circle cx="0" cy="60" r="2" stroke="#111122" fill="#E0E0F0" fill-opacity="0.5"/>
  <circle cx="0" cy="65" r="2" stroke="#111122" fill="#E0E0F0" fill-opacity="0.5"/>
  <circle cx="0" cy="70" r="2" stroke="#111122" fill="#E0E0F0" fill-opacity="0.5"/>
  <circle cx="0" cy="75" r="2" stroke="#111122" fill="#E0E0F0" fill-opacity="0.5"/>
  <circle cx="0" cy="80" r="2" stroke="#111122" fill="#E0E0F0" fill-opacity="0.5"/>
  <circle cx="0" cy="85" r="2" stroke="#111122" fill="#E0E0F0" fill-opacity="0.5"/>
  <circle cx="0" cy="90" r="2" stroke="#111122" fill="#E0E0F0" fill-opacity="0.5"/>
  <circle cx="0" cy="95" r="2" stroke="#111122" fill="#E0E0F0" fill-opacity="0.5"/>
  <circle cx="0" cy="100" r="2" stroke="#111122" fill="#E0E0F0" fill-opacity="0.5"/>
  <circle cx="5" cy="0" r="2" stroke="#111122" fill="#E0E0F0" fill-opacity="0.5"/>
  <circle cx="5" cy="5" r="2" stroke="#111122" fill="#E0E0F0" fill-opacity="0.5"/>
  <circle cx="5" cy="10" r="2" stroke="#111122" fill="#E0E0F0" fill-opacity="0.5"/>
  <circle cx="5" cy="15" r="2" stroke="#111122" fill="#E0E0F0" fill-opacity="0.5"/>
  <circle cx="5" cy="20" r="2" stroke="#111122" fill="#E0E0F0" fill-opacity="0.5"/>
  <circle cx="5" cy="25" r="2" stroke="#111122" fill="#E0E0F0" fill-opacity="0.5"/>
  <circle cx="5" cy="30" r="2" stroke="#111122" fill="#E0E0F0" fill-opacity="0.5"/>
  <circle cx="5" cy="35" r="2" stroke="#111122" fill="#E0E0F0" fill-opacity="0.5"/>
  <circle cx="5" cy="40" r="2" stroke="#111122" fill="#E0E0F0" fill-opacity="0.5"/>
  <circle cx="5" cy="45" r="2" stroke="#111122" fill="#E0E0F0" fill-opacity="0.5"/>
  <circle cx="5" cy="50" r="2" stroke="#111122" fill="#E0E0F0" fill-opacity="0.5"/>
  <circle cx="5" cy="55" r="2" stroke="#111122" fill="#E0E0F0" fill-opacity="0.5"/>
  <circle cx="5" cy="60" r="2" stroke="#111122" fill="#E0E0F0" fill-opacity="0.5"/>
  <circle cx="5" cy="65" r="2" stroke="#111122" fill="#E0E0F0" fill-opacity="0.5"/>
  <circle cx="5" cy="70" r="2" stroke="#111122" fill="#E0E0F0" fill-opacity="0.5"/>
  <circle cx="5" cy="75" r="2" stroke="#111122" fill="#E0E0F0" fill-opacity="0.5"/>
  <circle cx="5" cy="80" r="2" stroke="#111122" fill="#E0E0F0" fill-opacity="0.5"/>
  <circle cx="5" cy="85" r="2" stroke="#111122" fill="#E0E0F0" fill-opacity="0.5"/>
  <circle cx="5" cy="90" r="2" stroke="#111122" fill="#E0E0F0" fill-opacity="0.5"/>
  <circle cx="5" cy="95" r="2" stroke="#111122" fill="#E0E0F0" fill-opacity="0.5"/>
  <circle cx="5" cy="100" r="2" stroke="#111122" fill="#E0E0F0" fill-opacity="0.5"/>
  <circle cx="10" cy="0" r="2" stroke="#111122" fill="#E0E0F0" fill-opacity="0.5"/>
  <circle cx="10" cy="5" r="2" stroke="#111122" fill="#E0E0F0" fill-opacity="0.5"/>
  <circle cx="10" cy="10" r="2" stroke="#111122" fill="#E0E0F0" fill-opacity="0.5"/>
  <circle cx="10" cy="15" r="2" stroke="#111122" fill="#E0E0F0" fill-opacity="0.5"/>
  <circle cx="10" cy="20" r="2" stroke="#111122" fill="#E0E0F0" fill-opacity="0.5"/>
  <circle cx="10" cy="25" r="2" stroke="#111122" fill="#E0E0F0" fill-opacity="0.5"/>
  <circle cx="10" cy="30" r="2" stroke="#111122" fill="#E0E0F0" fill-opacity="0.5"/>
  <circle cx="10" cy="35" r="2" stroke="#111122" fill="#E0E0F0" fill-opacity="0.5"/>
  <circle cx="10" cy="40" r="2" stroke="#111122" fill="#E0E0F0" fill-opacity="0.5"/>
  <circle cx="10" cy="45" r="2" stroke="#111122" fill="#E0E0F0" fill-opacity="0.5"/>
  <circle cx="10" cy="50" r="2" stroke="#111122" fill="#E0E0F0" fill-opacity="0.5"/>
  <circle cx="10" cy="55" r="2" stroke="#111122" fill="#E0E0F0" fill-opacity="0.5"/>
  <circle cx="10" cy="60" r="2" stroke="#111122" fill="#E0E0F0" fill-opacity="0.5"/>
  <circle cx="10" cy="65" r="2" stroke="#111122" fill="#E0E0F0" fill-opacity="0.5"/>
  <circle cx="10" cy="70" r="2" stroke="#111122" fill="#E0E0F0" fill-opacity="0.5"/>
  <circle cx="10" cy="75" r="2" stroke="#111122" fill="#E0E0F0" fill-opacity="0.5"/>
  <circle cx="10" cy="80" r="2" stroke="#111122" fill="#E0E0F0" fill-opacity="0.5"/>
  <circle cx="10" cy="85" r="2" stroke="#111122" fill="#E0E0F0" fill-opacity="0.5"/>
  <circle cx="10" cy="90" r="2" stroke="#111122" fill="#E0E0F0" fill-opacity="0.5"/>
  <circle cx="10" cy="95" r="2" stroke="#111122" fill="#E0E0F0" fill-opacity="0.5"/>
  <circle cx="10" cy="100" r="2" stroke="#111122" fill="#E0E0F0" fill-opacity="0.5"/>
  <circle cx="15" cy="0" r="2" stroke="#111122" fill="#E0E0F0" fill-opacity="0.5"/>
  <circle cx="15" cy="5" r="2" stroke="#111122" fill="#E0E0F0" fill-opacity="0.5"/>
  <circle cx="15" cy="10" r="2" stroke="#111122" fill="#E0E0F0" fill-opacity="0.5"/>
  <circle cx="15" cy="15" r="2" stroke="#111122" fill="#E0E0F0" fill-opacity="0.5"/>
  <circle cx="15" cy="20" r="2" stroke="#111122" fill="#E0E0F0" fill-opacity="0.5"/>
  <circle cx="15" cy="25" r="2" stroke="#111122" fill="#E0E0F0" fill-opacity="0.5"/>
  <circle cx="15" cy="30" r="2" stroke="#111122" fill="#E0E0F0" fill-opacity="0.5"/>
  <circle cx="15" cy="35" r="2" stroke="#111122" fill="#E0E0F0" fill-opacity="0.5"/>
  <circle cx="15" cy="40" r="2" stroke="#111122" fill="#E0E0F0" fill-opacity="0.5"/>
  <circle cx="15" cy="45" r="2" stroke="#111122" fill="#E0E0F0" fill-opacity="0.5"/>
  <circle cx="15" cy="50" r="2" stroke="#111122" fill="#E0E0F0" fill-opacity="0.5"/>
  <circle cx="15" cy="55" r="2" stroke="#111122" fill="#E0E0F0" fill-opacity="0.5"/>
  <circle cx="15" cy="60" r="2" stroke="#111122" fill="#E0E0F0" fill-opacity="0.5"/>
  <circle cx="15" cy="65" r="2" stroke="#111122" fill="#E0E0F0" fill-opacity="0.5"/>
  <circle cx="15" cy="70" r="2" stroke="#111122" fill="#E0E0F0" fill-opacity="0.5"/>
  <circle cx="15" cy="75" r="2" stroke="#111122" fill="#E0E0F0" fill-opacity="0.5"/>
  <circle cx="15" cy="80" r="2" stroke="#111122" fill="#E0E0F0" fill-opacity="0.5"/>
  <circle cx="15" cy="85" r="2" stroke="#111122" fill="#E0E0F0" fill-opacity="0.5"/>
  <circle cx="15" cy="90" r="2" stroke="#111122" fill="#E0E0F0" fill-opacity="0.5"/>
  <circle cx="15" cy="95" r="2" stroke="#111122" fill="#E0E0F0" fill-opacity="0.5"/>
  <circle cx="15" cy="100" r="2" stroke="#111122" fill="#E0E0F0" fill-opacity="0.5"/>
  <circle cx="20" cy="0" r="2" stroke="#111122" fill="#E0E0F0" fill-opacity="0.5"/>
  <circle cx="20" cy="5" r="2" stroke="#111122" fill="#E0E0F0" fill-opacity="0.5"/>
  <circle cx="20" cy="10" r="2" stroke="#111122" fill="#E0E0F0" fill-opacity="0.5"/>
  <circle cx="20" cy="15" r="2" stroke="#111122" fill="#E0E0F0" fill-opacity="0.5"/>
  <circle cx="20" cy="20" r="2" stroke="#111122" fill="#E0E0F0" fill-opacity="0.5"/>
  <circle cx="20" cy="25" r="2" stroke="#111122" fill="#E0E0F0" fill-opacity="0.5"/>
  <circle cx="20" cy="30" r="2" stroke="#111122" fill="#E0E0F0" fill-opacity="0.5"/>
  <circle cx="20" cy="35" r="2" stroke="#111122" fill="#E0E0F0" fill-opacity="0.5"/>
  <circle cx="20" cy="40" r="2" stroke="#111122" fill="#E0E0F0" fill-opacity="0.5"/>
  <circle cx="20" cy="45" r="2" stroke="#111122" fill="#E0E0F0" fill-opacity="0.5"/>
  <circle cx="20" cy="50" r="2" stroke="#111122" fill="#E0E0F0" fill-opacity="0.5"/>
  <circle cx="20" cy="55" r="2" stroke="#111122" fill="#E0E0F0" fill-opacity="0.5"/>
  <circle cx="20" cy="60" r="2" stroke="#111122" fill="#E0E0F0" fill-opacity="0.5"/>
  <circle cx="20" cy="65" r="2" stroke="#111122" fill="#E0E0F0" fill-opacity="0.5"/>
  <circle cx="20" cy="70" r="2" stroke="#111122" fill="#E0E0F0" fill-opacity="0.5"/>
  <circle cx="20" cy="75" r="2" stroke="#111122" fill="#E0E0F0" fill-opacity="0.5"/>
  <circle cx="20" cy="80" r="2" stroke="#111122" fill="#E0E0F0" fill-opacity="0.5"/>
  <circle cx="20" cy="85" r="2" stroke="#111122" fill="#E0E0F0" fill-opacity="0.5"/>
  <circle cx="20" cy="90" r="2" stroke="#111122" fill="#E0E0F0" fill-opacity="0.5"/>
  <circle cx="20" cy="95" r="2" stroke="#111122" fill="#E0E0F0" fill-opacity="0.5"/>
  <circle cx="20" cy="100" r="2" stroke="#111122" fill="#E0E0F0" fill-opacity="0.5"/>
  <circle cx="25" cy="0" r="2" stroke="#111122" fill="#E0E0F0" fill-opacity="0.5"/>
  <circle cx="25" cy="5" r="2" stroke="#111122" fill="#E0E0F0" fill-opacity="0.5"/>
  <circle cx="25" cy="10" r="2" stroke="#111122" fill="#E0E0F0" fill-opacity="0.5"/>
  <circle cx="25" cy="15" r="2" stroke="#111122" fill="#E0E0F0" fill-opacity="0.5"/>
  <circle cx="25" cy="20" r="2" stroke="#111122" fill="#E0E0F0" fill-opacity="0.5"/>
  <circle cx="25" cy="25" r="2" stroke="#111122" fill="#E0E0F0" fill-opacity="0.5"/>
  <circle cx="25" cy="30" r="2" stroke="#111122" fill="#E0E0F0" fill-opacity="0.5"/>
  <circle cx="25" cy="35" r="2" stroke="#111122" fill="#E0E0F0" fill-opacity="0.5"/>
  <circle cx="25" cy="40" r="2" stroke="#111122" fill="#E0E0F0" fill-opacity="0.5"/>
  <circle cx="25" cy="45" r="2" stroke="#111122" fill="#E0E0F0" fill-opacity="0.5"/>
  <circle cx="25" cy="50" r="2" stroke="#111122" fill="#E0E0F0" fill-opacity="0.5"/>
  <circle cx="25" cy="55" r="2" stroke="#111122" fill="#E0E0F0" fill-opacity="0.5"/>
  <circle cx="25" cy="60" r="2" stroke="#111122" fill="#E0E0F0" fill-opacity="0.5"/>
  <circle cx="25" cy="65" r="2" stroke="#111122" fill="#E0E0F0" fill-opacity="0.5"/>
  <circle cx="25" cy="70" r="2" stroke="#111122" fill="#E0E0F0" fill-opacity="0.5"/>
  <circle cx="25" cy="75" r="2" stroke="#111122" fill="#E0E0F0" fill-opacity="0.5"/>
  <circle cx="25" cy="80" r="2" stroke="#111122" fill="#E0E0F0" fill-opacity="0.5"/>
  <circle cx="25" cy="85" r="2" stroke="#111122" fill="#E0E0F0" fill-opacity="0.5"/>
  <circle cx="25" cy="90" r="2" stroke="#111122" fill="#E0E0F0" fill-opacity="0.5"/>
  <circle cx="25" cy="95" r="2" stroke="#111122" fill="#E0E0F0" fill-opacity="0.5"/>
  <circle cx="25" cy="100" r="2" stroke="#111122" fill="#E0E0F0" fill-opacity="0.5"/>
  <circle cx="30" cy="0" r="2" stroke="#111122" fill="#E0E0F0" fill-opacity="0.5"/>
  <circle cx="30" cy="5" r="2" stroke="#111122" fill="#E0E0F0" fill-opacity="0.5"/>
  <circle cx="30" cy="10" r="2" stroke="#111122" fill="#E0E0F0" fill-opacity="0.5"/>
  <circle cx="30" cy="15" r="2" stroke="#111122" fill="#E0E0F0" fill-opacity="0.5"/>
  <circle cx="30" cy="20" r="2" stroke="#111122" fill="#E0E0F0" fill-opacity="0.5"/>
  <circle cx="30" cy="25" r="2" stroke="#111122" fill="#E0E0F0" fill-opacity="0.5"/>
  <circle cx="30" cy="30" r="2" stroke="#111122" fill="#E0E0F0" fill-opacity="0.5"/>
  <circle cx="30" cy="35" r="2" stroke="#111122" fill="#E0E0F0" fill-opacity="0.5"/>
  <circle cx="30" cy="40" r="2" stroke="#111122" fill="#E0E0F0" fill-opacity="0.5"/>
  <circle cx="30" cy="45" r="2" stroke="#111122" fill="#E0E0F0" fill-opacity="0.5"/>
  <circle cx="30" cy="50" r="2" stroke="#111122" fill="#E0E0F0" fill-opacity="0.5"/>
  <circle cx="30" cy="55" r="2" stroke="#111122" fill="#E0E0F0" fill-opacity="0.5"/>
  <circle cx="30" cy="60" r="2" stroke="#111122" fill="#E0E0F0" fill-opacity="0.5"/>
  <circle cx="30" cy="65" r="2" stroke="#111122" fill="#E0E0F0" fill-opacity="0.5"/>
  <circle cx="30" cy="70" r="2" stroke="#111122" fill="#E0E0F0" fill-opacity="0.5"/>
  <circle cx="30" cy="75" r="2" stroke="#111122" fill="#E0E0F0" fill-opacity="0.5"/>
  <circle cx="30" cy="80" r="2" stroke="#111122" fill="#E0E0F0" fill-opacity="0.5"/>
  <circle cx="30" cy="85" r="2" stroke="#111122" fill="#E0E0F0" fill-opacity="0.5"/>
  <circle cx="30" cy="90" r="2" stroke="#111122" fill="#E0E0F0" fill-opacity="0.5"/>
  <circle cx="30" cy="95" r="2" stroke="#111122" fill="#E0E0F0" fill-opacity="0.5"/>
  <circle cx="30" cy="100" r="2" stroke="#111122" fill="#E0E0F0" fill-opacity="0.5"/>
  <circle cx="35" cy="0" r="2" stroke="#111122" fill="#E0E0F0" fill-opacity="0.5"/>
  <circle cx="35" cy="5" r="2" stroke="#111122" fill="#E0E0F0" fill-opacity="0.5"/>
  <circle cx="35" cy="10" r="2" stroke="#111122" fill="#E0E0F0" fill-opacity="0.5"/>
  <circle cx="35" cy="15" r="2" stroke="#111122" fill="#E0E0F0" fill-opacity="0.5"/>
  <circle cx="35" cy="20" r="2" stroke="#111122" fill="#E0E0F0" fill-opacity="0.5"/>
  <circle cx="35" cy="25" r="2" stroke="#111122" fill="#E0E0F0" fill-opacity="0.5"/>
  <circle cx="35" cy="30" r="2" stroke="#111122" fill="#E0E0F0" fill-opacity="0.5"/>
  <circle cx="35" cy="35" r="2" stroke="#111122" fill="#E0E0F0" fill-opacity="0.5"/>
  <circle cx="35" cy="40" r="2" stroke="#111122" fill="#E0E0F0" fill-opacity="0.5"/>
  <circle cx="35" cy="45" r="2" stroke="#111122" fill="#E0E0F0" fill-opacity="0.5"/>
  <circle cx="35" cy="50" r="2" stroke="#111122" fill="#E0E0F0" fill-opacity="0.5"/>
  <circle cx="35" cy="55" r="2" stroke="#111122" fill="#E0E0F0" fill-opacity="0.5"/>
  <circle cx="35" cy="60" r="2" stroke="#111122" fill="#E0E0F0" fill-opacity="0.5"/>
  <circle cx="35" cy="65" r="2" stroke="#111122" fill="#E0E0F0" fill-opacity="0.5"/>
  <circle cx="35" cy="70" r="2" stroke="#111122" fill="#E0E0F0" fill-opacity="0.5"/>
  <circle cx="35" cy="75" r="2" stroke="#111122" fill="#E0E0F0" fill-opacity="0.5"/>
  <circle cx="35" cy="80" r="2" stroke="#111122" fill="#E0E0F0" fill-opacity="0.5"/>
  <circle cx="35" cy="85" r="2" stroke="#111122" fill="#E0E0F0" fill-opacity="0.5"/>
  <circle cx="35" cy="90" r="2" stroke="#111122" fill="#E0E0F0" fill-opacity="0.5"/>
  <circle cx="35" cy="95" r="2" stroke="#111122" fill="#E0E0F0" fill-opacity="0.5"/>
  <circle cx="35" cy="100" r="2" stroke="#111122" fill="#E0E0F0" fill-opacity="0.5"/>
  <circle cx="40" cy="0" r="2" stroke="#111122" fill="#E0E0F0" fill-opacity="0.5"/>
  <circle cx="40" cy="5" r="2" stroke="#111122" fill="#E0E0F0" fill-opacity="0.5"/>
  <circle cx="40" cy="10" r="2" stroke="#111122" fill="#E0E0F0" fill-opacity="0.5"/>
  <circle cx="40" cy="15" r="2" stroke="#111122" fill="#E0E0F0" fill-opacity="0.5"/>
  <circle cx="40" cy="20" r="2" stroke="#111122" fill="#E0E0F0" fill-opacity="0.5"/>
  <circle cx="40" cy="25" r="2" stroke="#111122" fill="#E0E0F0" fill-opacity="0.5"/>
  <circle cx="40" cy="30" r="2" stroke="#111122" fill="#E0E0F0" fill-opacity="0.5"/>
  <circle cx="40" cy="35" r="2" stroke="#111122" fill="#E0E0F0" fill-opacity="0.5"/>
  <circle cx="40" cy="40" r="2" stroke="#111122" fill="#E0E0F0" fill-opacity="0.5"/>
  <circle cx="40" cy="45" r="2" stroke="#111122" fill="#E0E0F0" fill-opacity="0.5"/>
  <circle cx="40" cy="50" r="2" stroke="#111122" fill="#E0E0F0" fill-opacity="0.5"/>
  <circle cx="40" cy="55" r="2" stroke="#111122" fill="#E0E0F0" fill-opacity="0.5"/>
  <circle cx="40" cy="60" r="2" stroke="#111122" fill="#E0E0F0" fill-opacity="0.5"/>
  <circle cx="40" cy="65" r="2" stroke="#111122" fill="#E0E0F0" fill-opacity="0.5"/>
  <circle cx="40" cy="70" r="2" stroke="#111122" fill="#E0E0F0" fill-opacity="0.5"/>
  <circle cx="40" cy="75" r="2" stroke="#111122" fill="#E0E0F0" fill-opacity="0.5"/>
  <circle cx="40" cy="80" r="2" stroke="#111122" fill="#E0E0F0" fill-opacity="0.5"/>
  <circle cx="40" cy="85" r="2" stroke="#111122" fill="#E0E0F0" fill-opacity="0.5"/>
  <circle cx="40" cy="90" r="2" stroke="#111122" fill="#E0E0F0" fill-opacity="0.5"/>
  <circle cx="40" cy="95" r="2" stroke="#111122" fill="#E0E0F0" fill-opacity="0.5"/>
  <circle cx="40" cy="100" r="2" stroke="#111122" fill="#E0E0F0" fill-opacity="0.5"/>
  <circle cx="45" cy="0" r="2" stroke="#111122" fill="#E0E0F0" fill-opacity="0.5"/>
  <circle cx="45" cy="5" r="2" stroke="#111122" fill="#E0E0F0" fill-opacity="0.5"/>
  <circle cx="45" cy="10" r="2" stroke="#111122" fill="#E0E0F0" fill-opacity="0.5"/>
  <circle cx="45" cy="15" r="2" stroke="#111122" fill="#E0E0F0" fill-opacity="0.5"/>
  <circle cx="45" cy="20" r="2" stroke="#111122" fill="#E0E0F0" fill-opacity="0.5"/>
  <circle cx="45" cy="25" r="2" stroke="#111122" fill="#E0E0F0" fill-opacity="0.5"/>
  <circle cx="45" cy="30" r="2" stroke="#111122" fill="#E0E0F0" fill-opacity="0.5"/>
  <circle cx="45" cy="35" r="2" stroke="#111122" fill="#E0E0F0" fill-opacity="0.5"/>
  <circle cx="45" cy="40" r="2" stroke="#111122" fill="#E0E0F0" fill-opacity="0.5"/>
  <circle cx="45" cy="45" r="2" stroke="#111122" fill="#E0E0F0" fill-opacity="0.5"/>
  <circle cx="45" cy="50" r="2" stroke="#111122" fill="#E0E0F0" fill-opacity="0.5"/>
  <circle cx="45" cy="55" r="2" stroke="#111122" fill="#E0E0F0" fill-opacity="0.5"/>
  <circle cx="45" cy="60" r="2" stroke="#111122" fill="#E0E0F0" fill-opacity="0.5"/>
  <circle cx="45" cy="65" r="2" stroke="#111122" fill="#E0E0F0" fill-opacity="0.5"/>
  <circle cx="45" cy="70" r="2" stroke="#111122" fill="#E0E0F0" fill-opacity="0.5"/>
  <circle cx="45" cy="75" r="2" stroke="#111122" fill="#E0E0F0" fill-opacity="0.5"/>
  <circle cx="45" cy="80" r="2" stroke="#111122" fill="#E0E0F0" fill-opacity="0.5"/>
  <circle cx="45" cy="85" r="2" stroke="#111122" fill="#E0E0F0" fill-opacity="0.5"/>
  <circle cx="45" cy="90" r="2" stroke="#111122" fill="#E0E0F0" fill-opacity="0.5"/>
  <circle cx="45" cy="95" r="2" stroke="#111122" fill="#E0E0F0" fill-opacity="0.5"/>
  <circle cx="45" cy="100" r="2" stroke="#111122" fill="#E0E0F0" fill-opacity="0.5"/>
  <circle cx="50" cy="0" r="2" stroke="#111122" fill="#E0E0F0" fill-opacity="0.5"/>
  <circle cx="50" cy="5" r="2" stroke="#111122" fill="#E0E0F0" fill-opacity="0.5"/>
  <circle cx="50" cy="10" r="2" stroke="#111122" fill="#E0E0F0" fill-opacity="0.5"/>
  <circle cx="50" cy="15" r="2" stroke="#111122" fill="#E0E0F0" fill-opacity="0.5"/>
  <circle cx="50" cy="20" r="2" stroke="#111122" fill="#E0E0F0" fill-opacity="0.5"/>
  <circle cx="50" cy="25" r="2" stroke="#111122" fill="#E0E0F0" fill-opacity="0.5"/>
  <circle cx="50" cy="30" r="2" stroke="#111122" fill="#E0E0F0" fill-opacity="0.5"/>
  <circle cx="50" cy="35" r="2" stroke="#111122" fill="#E0E0F0" fill-opacity="0.5"/>
  <circle cx="50" cy="40" r="2" stroke="#111122" fill="#E0E0F0" fill-opacity="0.5"/>
  <circle cx="50" cy="45" r="2" stroke="#111122" fill="#E0E0F0" fill-opacity="0.5"/>
  <circle cx="50" cy="50" r="2" stroke="#111122" fill="#E0E0F0" fill-opacity="0.5"/>
  <circle cx="50" cy="55" r="2" stroke="#111122" fill="#E0E0F0" fill-opacity="0.5"/>
  <circle cx="50" cy="60" r="2" stroke="#111122" fill="#E0E0F0" fill-opacity="0.5"/>
  <circle cx="50" cy="65" r="2" stroke="#111122" fill="#E0E0F0" fill-opacity="0.5"/>
  <circle cx="50" cy="70" r="2" stroke="#111122" fill="#E0E0F0" fill-opacity="0.5"/>
  <circle cx="50" cy="75" r="2" stroke="#111122" fill="#E0E0F0" fill-opacity="0.5"/>
  <circle cx="50" cy="80" r="2" stroke="#111122" fill="#E0E0F0" fill-opacity="0.5"/>
  <circle cx="50" cy="85" r="2" stroke="#111122" fill="#E0E0F0" fill-opacity="0.5"/>
  <circle cx="50" cy="90" r="2" stroke="#111122" fill="#E0E0F0" fill-opacity="0.5"/>
  <circle cx="50" cy="95" r="2" stroke="#111122" fill="#E0E0F0" fill-opacity="0.5"/>
  <circle cx="50" cy="100" r="2" stroke="#111122" fill="#E0E0F0" fill-opacity="0.5"/>
  <circle cx="55" cy="0" r="2" stroke="#111122" fill="#E0E0F0" fill-opacity="0.5"/>
  <circle cx="55" cy="5" r="2" stroke="#111122" fill="#E0E0F0" fill-opacity="0.5"/>
  <circle cx="55" cy="10" r="2" stroke="#111122" fill="#E0E0F0" fill-opacity="0.5"/>
  <circle cx="55" cy="15" r="2" stroke="#111122" fill="#E0E0F0" fill-opacity="0.5"/>
  <circle cx="55" cy="20" r="2" stroke="#111122" fill="#E0E0F0" fill-opacity="0.5"/>
  <circle cx="55" cy="25" r="2" stroke="#111122" fill="#E0E0F0" fill-opacity="0.5"/>
  <circle cx="55" cy="30" r="2" stroke="#111122" fill="#E0E0F0" fill-opacity="0.5"/>
  <circle cx="55" cy="35" r="2" stroke="#111122" fill="#E0E0F0" fill-opacity="0.5"/>
  <circle cx="55" cy="40" r="2" stroke="#111122" fill="#E0E0F0" fill-opacity="0.5"/>
  <circle cx="55" cy="45" r="2" stroke="#111122" fill="#E0E0F0" fill-opacity="0.5"/>
  <circle cx="55" cy="50" r="2" stroke="#111122" fill="#E0E0F0" fill-opacity="0.5"/>
  <circle cx="55" cy="55" r="2" stroke="#111122" fill="#E0E0F0" fill-opacity="0.5"/>
  <circle cx="55" cy="60" r="2" stroke="#111122" fill="#E0E0F0" fill-opacity="0.5"/>
  <circle cx="55" cy="65" r="2" stroke="#111122" fill="#E0E0F0" fill-opacity="0.5"/>
  <circle cx="55" cy="70" r="2" stroke="#111122" fill="#E0E0F0" fill-opacity="0.5"/>
  <circle cx="55" cy="75" r="2" stroke="#111122" fill="#E0E0F0" fill-opacity="0.5"/>
  <circle cx="55" cy="80" r="2" stroke="#111122" fill="#E0E0F0" fill-opacity="0.5"/>
  <circle cx="55" cy="85" r="2" stroke="#111122" fill="#E0E0F0" fill-opacity="0.5"/>
  <circle cx="55" cy="90" r="2" stroke="#111122" fill="#E0E0F0" fill-opacity="0.5"/>
  <circle cx="55" cy="95" r="2" stroke="#111122" fill="#E0E0F0" fill-opacity="0.5"/>
  <circle cx="55" cy="100" r="2" stroke="#111122" fill="#E0E0F0" fill-opacity="0.5"/>
  <circle cx="60" cy="0" r="2" stroke="#111122" fill="#E0E0F0" fill-opacity="0.5"/>
  <circle cx="60" cy="5" r="2" stroke="#111122" fill="#E0E0F0" fill-opacity="0.5"/>
  <circle cx="60" cy="10" r="2" stroke="#111122" fill="#E0E0F0" fill-opacity="0.5"/>
  <circle cx="60" cy="15" r="2" stroke="#111122" fill="#E0E0F0" fill-opacity="0.5"/>
  <circle cx="60" cy="20" r="2" stroke="#111122" fill="#E0E0F0" fill-opacity="0.5"/>
  <circle cx="60" cy="25" r="2" stroke="#111122" fill="#E0E0F0" fill-opacity="0.5"/>
  <circle cx="60" cy="30" r="2" stroke="#111122" fill="#E0E0F0" fill-opacity="0.5"/>
  <circle cx="60" cy="35" r="2" stroke="#111122" fill="#E0E0F0" fill-opacity="0.5"/>
  <circle cx="60" cy="40" r="2" stroke="#111122" fill="#E0E0F0" fill-opacity="0.5"/>
  <circle cx="60" cy="45" r="2" stroke="#111122" fill="#E0E0F0" fill-opacity="0.5"/>
  <circle cx="60" cy="50" r="2" stroke="#111122" fill="#E0E0F0" fill-opacity="0.5"/>
  <circle cx="60" cy="55" r="2" stroke="#111122" fill="#E0E0F0" fill-opacity="0.5"/>
  <circle cx="60" cy="60" r="2" stroke="#111122" fill="#E0E0F0" fill-opacity="0.5"/>
  <circle cx="60" cy="65" r="2" stroke="#111122" fill="#E0E0F0" fill-opacity="0.5"/>
  <circle cx="60" cy="70" r="2" stroke="#111122" fill="#E0E0F0" fill-opacity="0.5"/>
  <circle cx="60" cy="75" r="2" stroke="#111122" fill="#E0E0F0" fill-opacity="0.5"/>
  <circle cx="60" cy="80" r="2" stroke="#111122" fill="#E0E0F0" fill-opacity="0.5"/>
  <circle cx="60" cy="85" r="2" stroke="#111122" fill="#E0E0F0" fill-opacity="0.5"/>
  <circle cx="60" cy="90" r="2" stroke="#111122" fill="#E0E0F0" fill-opacity="0.5"/>
  <circle cx="60" cy="95" r="2" stroke="#111122" fill="#E0E0F0" fill-opacity="0.5"/>
  <circle cx="60" cy="100" r="2" stroke="#111122" fill="#E0E0F0" fill-opacity="0.5"/>
  <circle cx="65" cy="0" r="2" stroke="#111122" fill="#E0E0F0" fill-opacity="0.5"/>
  <circle cx="65" cy="5" r="2" stroke="#111122" fill="#E0E0F0" fill-opacity="0.5"/>
  <circle cx="65" cy="10" r="2" stroke="#111122" fill="#E0E0F0" fill-opacity="0.5"/>
  <circle cx="65" cy="15" r="2" stroke="#111122" fill="#E0E0F0" fill-opacity="0.5"/>
  <circle cx="65" cy="20" r="2" stroke="#111122" fill="#E0E0F0" fill-opacity="0.5"/>
  <circle cx="65" cy="25" r="2" stroke="#111122" fill="#E0E0F0" fill-opacity="0.5"/>
  <circle cx="65" cy="30" r="2" stroke="#111122" fill="#E0E0F0" fill-opacity="0.5"/>
  <circle cx="65" cy="35" r="2" stroke="#111122" fill="#E0E0F0" fill-opacity="0.5"/>
  <circle cx="65" cy="40" r="2" stroke="#111122" fill="#E0E0F0" fill-opacity="0.5"/>
  <circle cx="65" cy="45" r="2" stroke="#111122" fill="#E0E0F0" fill-opacity="0.5"/>
  <circle cx="65" cy="50" r="2" stroke="#111122" fill="#E0E0F0" fill-opacity="0.5"/>
  <circle cx="65" cy="55" r="2" stroke="#111122" fill="#E0E0F0" fill-opacity="0.5"/>
  <circle cx="65" cy="60" r="2" stroke="#111122" fill="#E0E0F0" fill-opacity="0.5"/>
  <circle cx="65" cy="65" r="2" stroke="#111122" fill="#E0E0F0" fill-opacity="0.5"/>
  <circle cx="65" cy="70" r="2" stroke="#111122" fill="#E0E0F0" fill-opacity="0.5"/>
  <circle cx="65" cy="75" r="2" stroke="#111122" fill="#E0E0F0" fill-opacity="0.5"/>
  <circle cx="65" cy="80" r="2" stroke="#111122" fill="#E0E0F0" fill-opacity="0.5"/>
  <circle cx="65" cy="85" r="2" stroke="#111122" fill="#E0E0F0" fill-opacity="0.5"/>
  <circle cx="65" cy="90" r="2" stroke="#111122" fill="#E0E0F0" fill-opacity="0.5"/>
  <circle cx="65" cy="95" r="2" stroke="#111122" fill="#E0E0F0" fill-opacity="0.5"/>
  <circle cx="65" cy="100" r="2" stroke="#111122" fill="#E0E0F0" fill-opacity="0.5"/>
  <circle cx="70" cy="0" r="2" stroke="#111122" fill="#E0E0F0" fill-opacity="0.5"/>
  <circle cx="70" cy="5" r="2" stroke="#111122" fill="#E0E0F0" fill-opacity="0.5"/>
  <circle cx="70" cy="10" r="2" stroke="#111122" fill="#E0E0F0" fill-opacity="0.5"/>
  <circle cx="70" cy="15" r="2" stroke="#111122" fill="#E0E0F0" fill-opacity="0.5"/>
  <circle cx="70" cy="20" r="2" stroke="#111122" fill="#E0E0F0" fill-opacity="0.5"/>
  <circle cx="70" cy="25" r="2" stroke="#111122" fill="#E0E0F0" fill-opacity="0.5"/>
  <circle cx="70" cy="30" r="2" stroke="#111122" fill="#E0E0F0" fill-opacity="0.5"/>
  <circle cx="70" cy="35" r="2" stroke="#111122" fill="#E0E0F0" fill-opacity="0.5"/>
  <circle cx="70" cy="40" r="2" stroke="#111122" fill="#E0E0F0" fill-opacity="0.5"/>
  <circle cx="70" cy="45" r="2" stroke="#111122" fill="#E0E0F0" fill-opacity="0.5"/>
  <circle cx="70" cy="50" r="2" stroke="#111122" fill="#E0E0F0" fill-opacity="0.5"/>
  <circle cx="70" cy="55" r="2" stroke="#111122" fill="#E0E0F0" fill-opacity="0.5"/>
  <circle cx="70" cy="60" r="2" stroke="#111122" fill="#E0E0F0" fill-opacity="0.5"/>
  <circle cx="70" cy="65" r="2" stroke="#111122" fill="#E0E0F0" fill-opacity="0.5"/>
  <circle cx="70" cy="70" r="2" stroke="#111122" fill="#E0E0F0" fill-opacity="0.5"/>
  <circle cx="70" cy="75" r="2" stroke="#111122" fill="#E0E0F0" fill-opacity="0.5"/>
  <circle cx="70" cy="80" r="2" stroke="#111122" fill="#E0E0F0" fill-opacity="0.5"/>
  <circle cx="70" cy="85" r="2" stroke="#111122" fill="#E0E0F0" fill-opacity="0.5"/>
  <circle cx="70" cy="90" r="2" stroke="#111122" fill="#E0E0F0" fill-opacity="0.5"/>
  <circle cx="70" cy="95" r="2" stroke="#111122" fill="#E0E0F0" fill-opacity="0.5"/>
  <circle cx="70" cy="100" r="2" stroke="#111122" fill="#E0E0F0" fill-opacity="0.5"/>
  <circle cx="75" cy="0" r="2" stroke="#111122" fill="#E0E0F0" fill-opacity="0.5"/>
  <circle cx="75" cy="5" r="2" stroke="#111122" fill="#E0E0F0" fill-opacity="0.5"/>
  <circle cx="75" cy="10" r="2" stroke="#111122" fill="#E0E0F0" fill-opacity="0.5"/>
  <circle cx="75" cy="15" r="2" stroke="#111122" fill="#E0E0F0" fill-opacity="0.5"/>
  <circle cx="75" cy="20" r="2" stroke="#111122" fill="#E0E0F0" fill-opacity="0.5"/>
  <circle cx="75" cy="25" r="2" stroke="#111122" fill="#E0E0F0" fill-opacity="0.5"/>
  <circle cx="75" cy="30" r="2" stroke="#111122" fill="#E0E0F0" fill-opacity="0.5"/>
  <circle cx="75" cy="35" r="2" stroke="#111122" fill="#E0E0F0" fill-opacity="0.5"/>
  <circle cx="75" cy="40" r="2" stroke="#111122" fill="#E0E0F0" fill-opacity="0.5"/>
  <circle cx="75" cy="45" r="2" stroke="#111122" fill="#E0E0F0" fill-opacity="0.5"/>
  <circle cx="75" cy="50" r="2" stroke="#111122" fill="#E0E0F0" fill-opacity="0.5"/>
  <circle cx="75" cy="55" r="2" stroke="#111122" fill="#E0E0F0" fill-opacity="0.5"/>
  <circle cx="75" cy="60" r="2" stroke="#111122" fill="#E0E0F0" fill-opacity="0.5"/>
  <circle cx="75" cy="65" r="2" stroke="#111122" fill="#E0E0F0" fill-opacity="0.5"/>
  <circle cx="75" cy="70" r="2" stroke="#111122" fill="#E0E0F0" fill-opacity="0.5"/>
  <circle cx="75" cy="75" r="2" stroke="#111122" fill="#E0E0F0" fill-opacity="0.5"/>
  <circle cx="75" cy="80" r="2" stroke="#111122" fill="#E0E0F0" fill-opacity="0.5"/>
  <circle cx="75" cy="85" r="2" stroke="#111122" fill="#E0E0F0" fill-opacity="0.5"/>
  <circle cx="75" cy="90" r="2" stroke="#111122" fill="#E0E0F0" fill-opacity="0.5"/>
  <circle cx="75" cy="95" r="2" stroke="#111122" fill="#E0E0F0" fill-opacity="0.5"/>
  <circle cx="75" cy="100" r="2" stroke="#111122" fill="#E0E0F0" fill-opacity="0.5"/>
  <circle cx="80" cy="0" r="2" stroke="#111122" fill="#E0E0F0" fill-opacity="0.5"/>
  <circle cx="80" cy="5" r="2" stroke="#111122" fill="#E0E0F0" fill-opacity="0.5"/>
  <circle cx="80" cy="10" r="2" stroke="#111122" fill="#E0E0F0" fill-opacity="0.5"/>
  <circle cx="80" cy="15" r="2" stroke="#111122" fill="#E0E0F0" fill-opacity="0.5"/>
  <circle cx="80" cy="20" r="2" stroke="#111122" fill="#E0E0F0" fill-opacity="0.5"/>
  <circle cx="80" cy="25" r="2" stroke="#111122" fill="#E0E0F0" fill-opacity="0.5"/>
  <circle cx="80" cy="30" r="2" stroke="#111122" fill="#E0E0F0" fill-opacity="0.5"/>
  <circle cx="80" cy="35" r="2" stroke="#111122" fill="#E0E0F0" fill-opacity="0.5"/>
  <circle cx="80" cy="40" r="2" stroke="#111122" fill="#E0E0F0" fill-opacity="0.5"/>
  <circle cx="80" cy="45" r="2" stroke="#111122" fill="#E0E0F0" fill-opacity="0.5"/>
  <circle cx="80" cy="50" r="2" stroke="#111122" fill="#E0E0F0" fill-opacity="0.5"/>
  <circle cx="80" cy="55" r="2" stroke="#111122" fill="#E0E0F0" fill-opacity="0.5"/>
  <circle cx="80" cy="60" r="2" stroke="#111122" fill="#E0E0F0" fill-opacity="0.5"/>
  <circle cx="80" cy="65" r="2" stroke="#111122" fill="#E0E0F0" fill-opacity="0.5"/>
  <circle cx="80" cy="70" r="2" stroke="#111122" fill="#E0E0F0" fill-opacity="0.5"/>
  <circle cx="80" cy="75" r="2" stroke="#111122" fill="#E0E0F0" fill-opacity="0.5"/>
  <circle cx="80" cy="80" r="2" stroke="#111122" fill="#E0E0F0" fill-opacity="0.5"/>
  <circle cx="80" cy="85" r="2" stroke="#111122" fill="#E0E0F0" fill-opacity="0.5"/>
  <circle cx="80" cy="90" r="2" stroke="#111122" fill="#E0E0F0" fill-opacity="0.5"/>
  <circle cx="80" cy="95" r="2" stroke="#111122" fill="#E0E0F0" fill-opacity="0.5"/>
  <circle cx="80" cy="100" r="2" stroke="#111122" fill="#E0E0F0" fill-opacity="0.5"/>
  <circle cx="85" cy="0" r="2" stroke="#111122" fill="#E0E0F0" fill-opacity="0.5"/>
  <circle cx="85" cy="5" r="2" stroke="#111122" fill="#E0E0F0" fill-opacity="0.5"/>
  <circle cx="85" cy="10" r="2" stroke="#111122" fill="#E0E0F0" fill-opacity="0.5"/>
  <circle cx="85" cy="15" r="2" stroke="#111122" fill="#E0E0F0" fill-opacity="0.5"/>
  <circle cx="85" cy="20" r="2" stroke="#111122" fill="#E0E0F0" fill-opacity="0.5"/>
  <circle cx="85" cy="25" r="2" stroke="#111122" fill="#E0E0F0" fill-opacity="0.5"/>
  <circle cx="85" cy="30" r="2" stroke="#111122" fill="#E0E0F0" fill-opacity="0.5"/>
  <circle cx="85" cy="35" r="2" stroke="#111122" fill="#E0E0F0" fill-opacity="0.5"/>
  <circle cx="85" cy="40" r="2" stroke="#111122" fill="#E0E0F0" fill-opacity="0.5"/>
  <circle cx="85" cy="45" r="2" stroke="#111122" fill="#E0E0F0" fill-opacity="0.5"/>
  <circle cx="85" cy="50" r="2" stroke="#111122" fill="#E0E0F0" fill-opacity="0.5"/>
  <circle cx="85" cy="55" r="2" stroke="#111122" fill="#E0E0F0" fill-opacity="0.5"/>
  <circle cx="85" cy="60" r="2" stroke="#111122" fill="#E0E0F0" fill-opacity="0.5"/>
  <circle cx="85" cy="65" r="2" stroke="#111122" fill="#E0E0F0" fill-opacity="0.5"/>
  <circle cx="85" cy="70" r="2" stroke="#111122" fill="#E0E0F0" fill-opacity="0.5"/>
  <circle cx="85" cy="75" r="2" stroke="#111122" fill="#E0E0F0" fill-opacity="0.5"/>
  <circle cx="85" cy="80" r="2" stroke="#111122" fill="#E0E0F0" fill-opacity="0.5"/>
  <circle cx="85" cy="85" r="2" stroke="#111122" fill="#E0E0F0" fill-opacity="0.5"/>
  <circle cx="85" cy="90" r="2" stroke="#111122" fill="#E0E0F0" fill-opacity="0.5"/>
  <circle cx="85" cy="95" r="2" stroke="#111122" fill="#E0E0F0" fill-opacity="0.5"/>
  <circle cx="85" cy="100" r="2" stroke="#111122" fill="#E0E0F0" fill-opacity="0.5"/>
  <circle cx="90" cy="0" r="2" stroke="#111122" fill="#E0E0F0" fill-opacity="0.5"/>
  <circle cx="90" cy="5" r="2" stroke="#111122" fill="#E0E0F0" fill-opacity="0.5"/>
  <circle cx="90" cy="10" r="2" stroke="#111122" fill="#E0E0F0" fill-opacity="0.5"/>
  <circle cx="90" cy="15" r="2" stroke="#111122" fill="#E0E0F0" fill-opacity="0.5"/>
  <circle cx="90" cy="20" r="2" stroke="#111122" fill="#E0E0F0" fill-opacity="0.5"/>
  <circle cx="90" cy="25" r="2" stroke="#111122" fill="#E0E0F0" fill-opacity="0.5"/>
  <circle cx="90" cy="30" r="2" stroke="#111122" fill="#E0E0F0" fill-opacity="0.5"/>
  <circle cx="90" cy="35" r="2" stroke="#111122" fill="#E0E0F0" fill-opacity="0.5"/>
  <circle cx="90" cy="40" r="2" stroke="#111122" fill="#E0E0F0" fill-opacity="0.5"/>
  <circle cx="90" cy="45" r="2" stroke="#111122" fill="#E0E0F0" fill-opacity="0.5"/>
  <circle cx="90" cy="50" r="2" stroke="#111122" fill="#E0E0F0" fill-opacity="0.5"/>
  <circle cx="90" cy="55" r="2" stroke="#111122" fill="#E0E0F0" fill-opacity="0.5"/>
  <circle cx="90" cy="60" r="2" stroke="#111122" fill="#E0E0F0" fill-opacity="0.5"/>
  <circle cx="90" cy="65" r="2" stroke="#111122" fill="#E0E0F0" fill-opacity="0.5"/>
  <circle cx="90" cy="70" r="2" stroke="#111122" fill="#E0E0F0" fill-opacity="0.5"/>
  <circle cx="90" cy="75" r="2" stroke="#111122" fill="#E0E0F0" fill-opacity="0.5"/>
  <circle cx="90" cy="80" r="2" stroke="#111122" fill="#E0E0F0" fill-opacity="0.5"/>
  <circle cx="90" cy="85" r="2" stroke="#111122" fill="#E0E0F0" fill-opacity="0.5"/>
  <circle cx="90" cy="90" r="2" stroke="#111122" fill="#E0E0F0" fill-opacity="0.5"/>
  <circle cx="90" cy="95" r="2" stroke="#111122" fill="#E0E0F0" fill-opacity="0.5"/>
  <circle cx="90" cy="100" r="2" stroke="#111122" fill="#E0E0F0" fill-opacity="0.5"/>
  <circle cx="95" cy="0" r="2" stroke="#111122" fill="#E0E0F0" fill-opacity="0.5"/>
  <circle cx="95" cy="5" r="2" stroke="#111122" fill="#E0E0F0" fill-opacity="0.5"/>
  <circle cx="95" cy="10" r="2" stroke="#111122" fill="#E0E0F0" fill-opacity="0.5"/>
  <circle cx="95" cy="15" r="2" stroke="#111122" fill="#E0E0F0" fill-opacity="0.5"/>
  <circle cx="95" cy="20" r="2" stroke="#111122" fill="#E0E0F0" fill-opacity="0.5"/>
  <circle cx="95" cy="25" r="2" stroke="#111122" fill="#E0E0F0" fill-opacity="0.5"/>
  <circle cx="95" cy="30" r="2" stroke="#111122" fill="#E0E0F0" fill-opacity="0.5"/>
  <circle cx="95" cy="35" r="2" stroke="#111122" fill="#E0E0F0" fill-opacity="0.5"/>
  <circle cx="95" cy="40" r="2" stroke="#111122" fill="#E0E0F0" fill-opacity="0.5"/>
  <circle cx="95" cy="45" r="2" stroke="#111122" fill="#E0E0F0" fill-opacity="0.5"/>
  <circle cx="95" cy="50" r="2" stroke="#111122" fill="#E0E0F0" fill-opacity="0.5"/>
  <circle cx="95" cy="55" r="2" stroke="#111122" fill="#E0E0F0" fill-opacity="0.5"/>
  <circle cx="95" cy="60" r="2" stroke="#111122" fill="#E0E0F0" fill-opacity="0.5"/>
  <circle cx="95" cy="65" r="2" stroke="#111122" fill="#E0E0F0" fill-opacity="0.5"/>
  <circle cx="95" cy="70" r="2" stroke="#111122" fill="#E0E0F0" fill-opacity="0.5"/>
  <circle cx="95" cy="75" r="2" stroke="#111122" fill="#E0E0F0" fill-opacity="0.5"/>
  <circle cx="95" cy="80" r="2" stroke="#111122" fill="#E0E0F0" fill-opacity="0.5"/>
  <circle cx="95" cy="85" r="2" stroke="#111122" fill="#E0E0F0" fill-opacity="0.5"/>
  <circle cx="95" cy="90" r="2" stroke="#111122" fill="#E0E0F0" fill-opacity="0.5"/>
  <circle cx="95" cy="95" r="2" stroke="#111122" fill="#E0E0F0" fill-opacity="0.5"/>
  <circle cx="95" cy="100" r="2" stroke="#111122" fill="#E0E0F0" fill-opacity="0.5"/>
  <circle cx="100" cy="0" r="2" stroke="#111122" fill="#E0E0F0" fill-opacity="0.5"/>
  <circle cx="100" cy="5" r="2" stroke="#111122" fill="#E0E0F0" fill-opacity="0.5"/>
  <circle cx="100" cy="10" r="2" stroke="#111122" fill="#E0E0F0" fill-opacity="0.5"/>
  <circle cx="100" cy="15" r="2" stroke="#111122" fill="#E0E0F0" fill-opacity="0.5"/>
  <circle cx="100" cy="20" r="2" stroke="#111122" fill="#E0E0F0" fill-opacity="0.5"/>
  <circle cx="100" cy="25" r="2" stroke="#111122" fill="#E0E0F0" fill-opacity="0.5"/>
  <circle cx="100" cy="30" r="2" stroke="#111122" fill="#E0E0F0" fill-opacity="0.5"/>
  <circle cx="100" cy="35" r="2" stroke="#111122" fill="#E0E0F0" fill-opacity="0.5"/>
  <circle cx="100" cy="40" r="2" stroke="#111122" fill="#E0E0F0" fill-opacity="0.5"/>
  <circle cx="100" cy="45" r="2" stroke="#111122" fill="#E0E0F0" fill-opacity="0.5"/>
  <circle cx="100" cy="50" r="2" stroke="#111122" fill="#E0E0F0" fill-opacity="0.5"/>
  <circle cx="100" cy="55" r="2" stroke="#111122" fill="#E0E0F0" fill-opacity="0.5"/>
  <circle cx="100" cy="60" r="2" stroke="#111122" fill="#E0E0F0" fill-opacity="0.5"/>
  <circle cx="100" cy="65" r="2" stroke="#111122" fill="#E0E0F0" fill-opacity="0.5"/>
  <circle cx="100" cy="70" r="2" stroke="#111122" fill="#E0E0F0" fill-opacity="0.5"/>
  <circle cx="100" cy="75" r="2" stroke="#111122" fill="#E0E0F0" fill-opacity="0.5"/>
  <circle cx="100" cy="80" r="2" stroke="#111122" fill="#E0E0F0" fill-opacity="0.5"/>
  <circle cx="100" cy="85" r="2" stroke="#111122" fill="#E0E0F0" fill-opacity="0.5"/>
  <circle cx="100" cy="90" r="2" stroke="#111122" fill="#E0E0F0" fill-opacity="0.5"/>
  <circle cx="100" cy="95" r="2" stroke="#111122" fill="#E0E0F0" fill-opacity="0.5"/>
  <circle cx="100" cy="100" r="2" stroke="#111122" fill="#E0E0F0" fill-opacity="0.5"/>
</svg>
