<?xml version="1.0" encoding="UTF-8" ?>
<!DOCTYPE svg PUBLIC "-//W3C//DTD SVG 1.1//EN" "http://www.w3.org/Graphics/SVG/1.1/DTD/svg11.dtd">
<svg width="500" height="500" xmlns="http://www.w3.org/2000/svg" version="1.1">
  <rect x="0" y="0.0" width="10" height="10" stroke="#000000" fill="#FF7E7E" fill-opacity="0.5"/>
  <rect x="0" y="20.0" width="10" height="10" stroke="#000000" fill="#FF9E9E" fill-opacity="0.5"/>
  <rect x="0" y="10.0" width="10" height="10" stroke="#000000" fill="#E7E7FF" fill-opacity="0.5"/>
  <rect x="0" y="30.0" width="10" height="10" stroke="#000000" fill="#D1D1FF" fill-opacity="0.5"/>
  <rect x="10" y="0.0" width="10" height="10" stroke="#000000" fill="#FF5050" fill-opacity="0.5"/>
  <rect x="10" y="20.0" width="10" height="10" stroke="#000000" fill="#FF0000" fill-opacity="0.5"/>
  <rect x="10" y="10.0" width="10" height="10" stroke="#000000" fill="#FF9191" fill-opacity="0.5"/>
  <rect x="10" y="30.0" width="10" height="10" stroke="#000000" fill="#FF5A5A" fill-opacity="0.5"/>
  <rect x="20" y="0.0" width="10" height="10" stroke="#000000" fill="#6767FF" fill-opacity="0.5"/>
  <rect x="20" y="20.0" width="10" height="10" stroke="#000000" fill="#0000FF" fill-opacity="0.5"/>
  <rect x="20" y="10.0" width="10" height="10" stroke="#000000" fill="#D3D3FF" fill-opacity="0.5"/>
  <rect x="20" y="30.0" width="10" height="10" stroke="#000000" fill="#6B6BFF" fill-opacity="0.5"/>
  <rect x="30" y="0.0" width="10" height="10" stroke="#000000" fill="#F9F9FF" fill-opacity="0.5"/>
  <rect x="30" y="20.0" width="10" height="10" stroke="#000000" fill="#E4E4FF" fill-opacity="0.5"/>
  <rect x="30" y="10.0" width="10" height="10" stroke="#000000" fill="#8B8BFF" fill-opacity="0.5"/>
  <rect x="30" y="30.0" width="10" height="10" stroke="#000000" fill="#8181FF" fill-opacity="0.5"/>
  <rect x="40" y="0.0" width="10" height="10" stroke="#000000" fill="#FF6666" fill-opacity="0.5"/>
  <rect x="40" y="20.0" width="10" height="10" stroke="#000000" fill="#FFA4A4" fill-opacity="0.5"/>
  <rect x="40" y="10.0" width="10" height="10" stroke="#000000" fill="#FF0000" fill-opacity="0.5"/>
  <rect x="40" y="30.0" width="10" height="10" stroke="#000000" fill="#FF0000" fill-opacity="0.5"/>
  <rect x="50" y="0.0" width="10" height="10" stroke="#000000" fill="#DDDDFF" fill-opacity="0.5"/>
  <rect x="50" y="20.0" width="10" height="10" stroke="#000000" fill="#FF6666" fill-opacity="0.5"/>
  <rect x="50" y="10.0" width="10" height="10" stroke="#000000" fill="#FF9898" fill-opacity="0.5"/>
  <rect x="50" y="30.0" width="10" height="10" stroke="#000000" fill="#FF0000" fill-opacity="0.5"/>
  <rect x="60" y="0.0" width="10" height="10" stroke="#000000" fill="#E9E9FF" fill-opacity="0.5"/>
  <rect x="60" y="20.0" width="10" height="10" stroke="#000000" fill="#D2D2FF" fill-opacity="0.5"/>
  <rect x="60" y="10.0" width="10" height="10" stroke="#000000" fill="#A0A0FF" fill-opacity="0.5"/>
  <rect x="60" y="30.0" width="10" height="10" stroke="#000000" fill="#9191FF" fill-opacity="0.5"/>
  <rect x="70" y="0.0" width="10" height="10" stroke="#000000" fill="#FF8686" fill-opacity="0.5"/>
  <rect x="70" y="20.0" width="10" height="10" stroke="#000000" fill="#FF2929" fill-opacity="0.5"/>
  <rect x="70" y="10.0" width="10" height="10" stroke="#000000" fill="#FFBFBF" fill-opacity="0.5"/>
  <rect x="70" y="30.0" width="10" height="10" stroke="#000000" fill="#FF6B6B" fill-opacity="0.5"/>
  <rect x="80" y="0.0" width="10" height="10" stroke="#000000" fill="#6161FF" fill-opacity="0.5"/>
  <rect x="80" y="20.0" width="10" height="10" stroke="#000000" fill="#F1F1FF" fill-opacity="0.5"/>
  <rect x="80" y="10.0" width="10" height="10" stroke="#000000" fill="#E4E4FF" fill-opacity="0.5"/>
  <rect x="80" y="30.0" width="10" height="10" stroke="#000000" fill="#FFA4A4" fill-opacity="0.5"/>
  <rect x="90" y="0.0" width="10" height="10" stroke="#000000" fill="#B0B0FF" fill-opacity="0.5"/>
  <rect x="90" y="20.0" width="10" height="10" stroke="#000000" fill="#3E3EFF" fill-opacity="0.5"/>
  <rect x="90" y="10.0" width="10" height="10" stroke="#000000" fill="#FFE4E4" fill-opacity="0.5"/>
  <rect x="90" y="30.0" width="10" height="10" stroke="#000000" fill="#BFBFFF" fill-opacity="0.5"/>
  <rect x="100" y="0.0" width="10" height="10" stroke="#000000" fill="#EBEBFF" fill-opacity="0.5"/>
  <rect x="100" y="20.0" width="10" height="10" stroke="#000000" fill="#FFC5C5" fill-opacity="0.5"/>
  <rect x="100" y="10.0" width="10" height="10" stroke="#000000" fill="#E3E3FF" fill-opacity="0.5"/>
  <rect x="100" y="30.0" width="10" height="10" stroke="#000000" fill="#FFCBCB" fill-opacity="0.5"/>
  <rect x="110" y="0.0" width="10" height="10" stroke="#000000" fill="#FF0000" fill-opacity="0.5"/>
  <rect x="110" y="20.0" width="10" height="10" stroke="#000000" fill="#FF0404" fill-opacity="0.5"/>
  <rect x="110" y="10.0" width="10" height="10" stroke="#000000" fill="#FFD8D8" fill-opacity="0.5"/>
  <rect x="110" y="30.0" width="10" height="10" stroke="#000000" fill="#4848FF" fill-opacity="0.5"/>
  <rect x="120" y="0.0" width="10" height="10" stroke="#000000" fill="#F6F6FF" fill-opacity="0.5"/>
  <rect x="120" y="20.0" width="10" height="10" stroke="#000000" fill="#FF6565" fill-opacity="0.5"/>
  <rect x="120" y="10.0" width="10" height="10" stroke="#000000" fill="#5858FF" fill-opacity="0.5"/>
  <rect x="120" y="30.0" width="10" height="10" stroke="#000000" fill="#FFB1B1" fill-opacity="0.5"/>
  <rect x="130" y="0.0" width="10" height="10" stroke="#000000" fill="#0505FF" fill-opacity="0.5"/>
  <rect x="130" y="20.0" width="10" height="10" stroke="#000000" fill="#AFAFFF" fill-opacity="0.5"/>
  <rect x="130" y="10.0" width="10" height="10" stroke="#000000" fill="#FF7373" fill-opacity="0.5"/>
  <rect x="130" y="30.0" width="10" height="10" stroke="#000000" fill="#FF7070" fill-opacity="0.5"/>
  <rect x="140" y="0.0" width="10" height="10" stroke="#000000" fill="#FF5151" fill-opacity="0.5"/>
  <rect x="140" y="20.0" width="10" height="10" stroke="#000000" fill="#FFB5B5" fill-opacity="0.5"/>
  <rect x="140" y="10.0" width="10" height="10" stroke="#000000" fill="#FF6767" fill-opacity="0.5"/>
  <rect x="140" y="30.0" width="10" height="10" stroke="#000000" fill="#FF2929" fill-opacity="0.5"/>
  <rect x="150" y="0.0" width="10" height="10" stroke="#000000" fill="#FF2F2F" fill-opacity="0.5"/>
  <rect x="150" y="20.0" width="10" height="10" stroke="#000000" fill="#FF7070" fill-opacity="0.5"/>
  <rect x="150" y="10.0" width="10" height="10" stroke="#000000" fill="#8989FF" fill-opacity="0.5"/>
  <rect x="150" y="30.0" width="10" height="10" stroke="#000000" fill="#9E9EFF" fill-opacity="0.5"/>
  <rect x="160" y="0.0" width="10" height="10" stroke="#000000" fill="#7B7BFF" fill-opacity="0.5"/>
  <rect x="160" y="20.0" width="10" height="10" stroke="#000000" fill="#3939FF" fill-opacity="0.5"/>
  <rect x="160" y="10.0" width="10" height="10" stroke="#000000" fill="#FFE1E1" fill-opacity="0.5"/>
  <rect x="160" y="30.0" width="10" height="10" stroke="#000000" fill="#1717FF" fill-opacity="0.5"/>
  <rect x="170" y="0.0" width="10" height="10" stroke="#000000" fill="#AFAFFF" fill-opacity="0.5"/>
  <rect x="170" y="20.0" width="10" height="10" stroke="#000000" fill="#FFEDED" fill-opacity="0.5"/>
  <rect x="170" y="10.0" width="10" height="10" stroke="#000000" fill="#FF5B5B" fill-opacity="0.5"/>
  <rect x="170" y="30.0" width="10" height="10" stroke="#000000" fill="#FF9191" fill-opacity="0.5"/>
  <rect x="180" y="0.0" width="10" height="10" stroke="#000000" fill="#7171FF" fill-opacity="0.5"/>
  <rect x="180" y="20.0" width="10" height="10" stroke="#000000" fill="#6D6DFF" fill-opacity="0.5"/>
  <rect x="180" y="10.0" width="10" height="10" stroke="#000000" fill="#4A4AFF" fill-opacity="0.5"/>
  <rect x="180" y="30.0" width="10" height="10" stroke="#000000" fill="#FBFBFF" fill-opacity="0.5"/>
  <rect x="190" y="0.0" width="10" height="10" stroke="#000000" fill="#FF5656" fill-opacity="0.5"/>
  <rect x="190" y="20.0" width="10" height="10" stroke="#000000" fill="#FFC9C9" fill-opacity="0.5"/>
  <rect x="190" y="10.0" width="10" height="10" stroke="#000000" fill="#FFC2C2" fill-opacity="0.5"/>
  <rect x="190" y="30.0" width="10" height="10" stroke="#000000" fill="#FFC3C3" fill-opacity="0.5"/>
  <rect x="200" y="0.0" width="10" height="10" stroke="#000000" fill="#FFCDCD" fill-opacity="0.5"/>
  <rect x="200" y="20.0" width="10" height="10" stroke="#000000" fill="#FF6C6C" fill-opacity="0.5"/>
  <rect x="200" y="10.0" width="10" height="10" stroke="#000000" fill="#2C2CFF" fill-opacity="0.5"/>
  <rect x="200" y="30.0" width="10" height="10" stroke="#000000" fill="#7676FF" fill-opacity="0.5"/>
  <rect x="210" y="0.0" width="10" height="10" stroke="#000000" fill="#DDDDFF" fill-opacity="0.5"/>
  <rect x="210" y="20.0" width="10" height="10" stroke="#000000" fill="#FF9C9C" fill-opacity="0.5"/>
  <rect x="210" y="10.0" width="10" height="10" stroke="#000000" fill="#FF0000" fill-opacity="0.5"/>
  <rect x="210" y="30.0" width="10" height="10" stroke="#000000" fill="#FF0000" fill-opacity="0.5"/>
  <rect x="220" y="0.0" width="10" height="10" stroke="#000000" fill="#E2E2FF" fill-opacity="0.5"/>
  <rect x="220" y="20.0" width="10" height="10" stroke="#000000" fill="#DFDFFF" fill-opacity="0.5"/>
  <rect x="220" y="10.0" width="10" height="10" stroke="#000000" fill="#FFF7F7" fill-opacity="0.5"/>
  <rect x="220" y="30.0" width="10" height="10" stroke="#000000" fill="#EEEEFF" fill-opacity="0.5"/>
  <rect x="230" y="0.0" width="10" height="10" stroke="#000000" fill="#B2B2FF" fill-opacity="0.5"/>
  <rect x="230" y="20.0" width="10" height="10" stroke="#000000" fill="#FFB8B8" fill-opacity="0.5"/>
  <rect x="230" y="10.0" width="10" height="10" stroke="#000000" fill="#FFB4B4" fill-opacity="0.5"/>
  <rect x="230" y="30.0" width="10" height="10" stroke="#000000" fill="#FF4D4D" fill-opacity="0.5"/>
  <rect x="240" y="0.0" width="10" height="10" stroke="#000000" fill="#FF9696" fill-opacity="0.5"/>
  <rect x="240" y="20.0" width="10" height="10" stroke="#000000" fill="#FFB7B7" fill-opacity="0.5"/>
  <rect x="240" y="10.0" width="10" height="10" stroke="#000000" fill="#FF9B9B" fill-opacity="0.5"/>
  <rect x="240" y="30.0" width="10" height="10" stroke="#000000" fill="#FF4E4E" fill-opacity="0.5"/>
  <rect x="250" y="0.0" width="10" height="10" stroke="#000000" fill="#0000FF" fill-opacity="0.5"/>
  <rect x="250" y="20.0" width="10" height="10" stroke="#000000" fill="#0000FF" fill-opacity="0.5"/>
  <rect x="250" y="10.0" width="10" height="10" stroke="#000000" fill="#0000FF" fill-opacity="0.5"/>
  <rect x="250" y="30.0" width="10" height="10" stroke="#000000" fill="#0000FF" fill-opacity="0.5"/>
  <rect x="260" y="0.0" width="10" height="10" stroke="#000000" fill="#0000FF" fill-opacity="0.5"/>
  <rect x="260" y="20.0" width="10" height="10" stroke="#000000" fill="#0000FF" fill-opacity="0.5"/>
  <rect x="260" y="10.0" width="10" height="10" stroke="#000000" fill="#4B4BFF" fill-opacity="0.5"/>
  <rect x="260" y="30.0" width="10" height="10" stroke="#000000" fill="#3B3BFF" fill-opacity="0.5"/>
  <rect x="270" y="0.0" width="10" height="10" stroke="#000000" fill="#0000FF" fill-opacity="0.5"/>
  <rect x="270" y="20.0" width="10" height="10" stroke="#000000" fill="#CECEFF" fill-opacity="0.5"/>
  <rect x="270" y="10.0" width="10" height="10" stroke="#000000" fill="#FF9696" fill-opacity="0.5"/>
  <rect x="270" y="30.0" width="10" height="10" stroke="#000000" fill="#FFA8A8" fill-opacity="0.5"/>
  <rect x="280" y="0.0" width="10" height="10" stroke="#000000" fill="#A7A7FF" fill-opacity="0.5"/>
  <rect x="280" y="20.0" width="10" height="10" stroke="#000000" fill="#7272FF" fill-opacity="0.5"/>
  <rect x="280" y="10.0" width="10" height="10" stroke="#000000" fill="#FF9C9C" fill-opacity="0.5"/>
  <rect x="280" y="30.0" width="10" height="10" stroke="#000000" fill="#FFCDCD" fill-opacity="0.5"/>
  <rect x="290" y="0.0" width="10" height="10" stroke="#000000" fill="#FFAAAA" fill-opacity="0.5"/>
  <rect x="290" y="20.0" width="10" height="10" stroke="#000000" fill="#F1F1FF" fill-opacity="0.5"/>
  <rect x="290" y="10.0" width="10" height="10" stroke="#000000" fill="#B5B5FF" fill-opacity="0.5"/>
  <rect x="290" y="30.0" width="10" height="10" stroke="#000000" fill="#A5A5FF" fill-opacity="0.5"/>
  <rect x="300" y="0.0" width="10" height="10" stroke="#000000" fill="#FF0000" fill-opacity="0.5"/>
  <rect x="300" y="20.0" width="10" height="10" stroke="#000000" fill="#FF0000" fill-opacity="0.5"/>
  <rect x="300" y="10.0" width="10" height="10" stroke="#000000" fill="#FF0000" fill-opacity="0.5"/>
  <rect x="300" y="30.0" width="10" height="10" stroke="#000000" fill="#FF0000" fill-opacity="0.5"/>
  <rect x="310" y="0.0" width="10" height="10" stroke="#000000" fill="#F4F4FF" fill-opacity="0.5"/>
  <rect x="310" y="20.0" width="10" height="10" stroke="#000000" fill="#FF9B9B" fill-opacity="0.5"/>
  <rect x="310" y="10.0" width="10" height="10" stroke="#000000" fill="#A7A7FF" fill-opacity="0.5"/>
  <rect x="310" y="30.0" width="10" height="10" stroke="#000000" fill="#B9B9FF" fill-opacity="0.5"/>
  <rect x="320" y="0.0" width="10" height="10" stroke="#000000" fill="#5B5BFF" fill-opacity="0.5"/>
  <rect x="320" y="20.0" width="10" height="10" stroke="#000000" fill="#C0C0FF" fill-opacity="0.5"/>
  <rect x="320" y="10.0" width="10" height="10" stroke="#000000" fill="#D4D4FF" fill-opacity="0.5"/>
  <rect x="320" y="30.0" width="10" height="10" stroke="#000000" fill="#B2B2FF" fill-opacity="0.5"/>
  <rect x="330" y="0.0" width="10" height="10" stroke="#000000" fill="#FF4A4A" fill-opacity="0.5"/>
  <rect x="330" y="20.0" width="10" height="10" stroke="#000000" fill="#FFA8A8" fill-opacity="0.5"/>
  <rect x="330" y="10.0" width="10" height="10" stroke="#000000" fill="#FFBFBF" fill-opacity="0.5"/>
  <rect x="330" y="30.0" width="10" height="10" stroke="#000000" fill="#FFFFFF" fill-opacity="0.5"/>
  <rect x="340" y="0.0" width="10" height="10" stroke="#000000" fill="#FF8282" fill-opacity="0.5"/>
  <rect x="340" y="20.0" width="10" height="10" stroke="#000000" fill="#FF8B8B" fill-opacity="0.5"/>
  <rect x="340" y="10.0" width="10" height="10" stroke="#000000" fill="#FFAFAF" fill-opacity="0.5"/>
  <rect x="340" y="30.0" width="10" height="10" stroke="#000000" fill="#FFD4D4" fill-opacity="0.5"/>
  <rect x="350" y="0.0" width="10" height="10" stroke="#000000" fill="#FFD4D4" fill-opacity="0.5"/>
  <rect x="350" y="20.0" width="10" height="10" stroke="#000000" fill="#FFD6D6" fill-opacity="0.5"/>
  <rect x="350" y="10.0" width="10" height="10" stroke="#000000" fill="#FFAEAE" fill-opacity="0.5"/>
  <rect x="350" y="30.0" width="10" height="10" stroke="#000000" fill="#FFE8E8" fill-opacity="0.5"/>
  <rect x="360" y="0.0" width="10" height="10" stroke="#000000" fill="#FFA7A7" fill-opacity="0.5"/>
  <rect x="360" y="20.0" width="10" height="10" stroke="#000000" fill="#FF7979" fill-opacity="0.5"/>
  <rect x="360" y="10.0" width="10" height="10" stroke="#000000" fill="#FFDFDF" fill-opacity="0.5"/>
  <rect x="360" y="30.0" width="10" height="10" stroke="#000000" fill="#F9F9FF" fill-opacity="0.5"/>
  <rect x="370" y="0.0" width="10" height="10" stroke="#000000" fill="#BEBEFF" fill-opacity="0.5"/>
  <rect x="370" y="20.0" width="10" height="10" stroke="#000000" fill="#EDEDFF" fill-opacity="0.5"/>
  <rect x="370" y="10.0" width="10" height="10" stroke="#000000" fill="#FCFCFF" fill-opacity="0.5"/>
  <rect x="370" y="30.0" width="10" height="10" stroke="#000000" fill="#FFF6F6" fill-opacity="0.5"/>
  <rect x="380" y="0.0" width="10" height="10" stroke="#000000" fill="#2626FF" fill-opacity="0.5"/>
  <rect x="380" y="20.0" width="10" height="10" stroke="#000000" fill="#2929FF" fill-opacity="0.5"/>
  <rect x="380" y="10.0" width="10" height="10" stroke="#000000" fill="#FFC6C6" fill-opacity="0.5"/>
  <rect x="380" y="30.0" width="10" height="10" stroke="#000000" fill="#FFA7A7" fill-opacity="0.5"/>
  <rect x="390" y="0.0" width="10" height="10" stroke="#000000" fill="#FFD5D5" fill-opacity="0.5"/>
  <rect x="390" y="20.0" width="10" height="10" stroke="#000000" fill="#0000FF" fill-opacity="0.5"/>
  <rect x="390" y="10.0" width="10" height="10" stroke="#000000" fill="#6F6FFF" fill-opacity="0.5"/>
  <rect x="390" y="30.0" width="10" height="10" stroke="#000000" fill="#2929FF" fill-opacity="0.5"/>
  <rect x="400" y="0.0" width="10" height="10" stroke="#000000" fill="#FF9999" fill-opacity="0.5"/>
  <rect x="400" y="20.0" width="10" height="10" stroke="#000000" fill="#FF8A8A" fill-opacity="0.5"/>
  <rect x="400" y="10.0" width="10" height="10" stroke="#000000" fill="#E9E9FF" fill-opacity="0.5"/>
  <rect x="400" y="30.0" width="10" height="10" stroke="#000000" fill="#BFBFFF" fill-opacity="0.5"/>
  <rect x="410" y="0.0" width="10" height="10" stroke="#000000" fill="#FF0000" fill-opacity="0.5"/>
  <rect x="410" y="20.0" width="10" height="10" stroke="#000000" fill="#FFBEBE" fill-opacity="0.5"/>
  <rect x="410" y="10.0" width="10" height="10" stroke="#000000" fill="#FF6060" fill-opacity="0.5"/>
  <rect x="410" y="30.0" width="10" height="10" stroke="#000000" fill="#FF9494" fill-opacity="0.5"/>
  <rect x="420" y="0.0" width="10" height="10" stroke="#000000" fill="#0000FF" fill-opacity="0.5"/>
  <rect x="420" y="20.0" width="10" height="10" stroke="#000000" fill="#D2D2FF" fill-opacity="0.5"/>
  <rect x="420" y="10.0" width="10" height="10" stroke="#000000" fill="#F0F0FF" fill-opacity="0.5"/>
  <rect x="420" y="30.0" width="10" height="10" stroke="#000000" fill="#FF8383" fill-opacity="0.5"/>
  <rect x="430" y="0.0" width="10" height="10" stroke="#000000" fill="#C8C8FF" fill-opacity="0.5"/>
  <rect x="430" y="20.0" width="10" height="10" stroke="#000000" fill="#4444FF" fill-opacity="0.5"/>
  <rect x="430" y="10.0" width="10" height="10" stroke="#000000" fill="#FFB4B4" fill-opacity="0.5"/>
  <rect x="430" y="30.0" width="10" height="10" stroke="#000000" fill="#FFF9F9" fill-opacity="0.5"/>
  <rect x="440" y="0.0" width="10" height="10" stroke="#000000" fill="#D8D8FF" fill-opacity="0.5"/>
  <rect x="440" y="20.0" width="10" height="10" stroke="#000000" fill="#CCCCFF" fill-opacity="0.5"/>
  <rect x="440" y="10.0" width="10" height="10" stroke="#000000" fill="#FF5757" fill-opacity="0.5"/>
  <rect x="440" y="30.0" width="10" height="10" stroke="#000000" fill="#FF7171" fill-opacity="0.5"/>
  <rect x="450" y="0.0" width="10" height="10" stroke="#000000" fill="#FF3737" fill-opacity="0.5"/>
  <rect x="450" y="20.0" width="10" height="10" stroke="#000000" fill="#FFC3C3" fill-opacity="0.5"/>
  <rect x="450" y="10.0" width="10" height="10" stroke="#000000" fill="#7878FF" fill-opacity="0.5"/>
  <rect x="450" y="30.0" width="10" height="10" stroke="#000000" fill="#2626FF" fill-opacity="0.5"/>
  <rect x="460" y="0.0" width="10" height="10" stroke="#000000" fill="#1616FF" fill-opacity="0.5"/>
  <rect x="460" y="20.0" width="10" height="10" stroke="#000000" fill="#7070FF" fill-opacity="0.5"/>
  <rect x="460" y="10.0" width="10" height="10" stroke="#000000" fill="#8484FF" fill-opacity="0.5"/>
  <rect x="460" y="30.0" width="10" height="10" stroke="#000000" fill="#C4C4FF" fill-opacity="0.5"/>
  <rect x="470" y="0.0" width="10" height="10" stroke="#000000" fill="#0000FF" fill-opacity="0.5"/>
  <rect x="470" y="20.0" width="10" height="10" stroke="#000000" fill="#0000FF" fill-opacity="0.5"/>
  <rect x="470" y="10.0" width="10" height="10" stroke="#000000" fill="#0505FF" fill-opacity="0.5"/>
  <rect x="470" y="30.0" width="10" height="10" stroke="#000000" fill="#0000FF" fill-opacity="0.5"/>
  <rect x="480" y="0.0" width="10" height="10" stroke="#000000" fill="#5B5BFF" fill-opacity="0.5"/>
  <rect x="480" y="20.0" width="10" height="10" stroke="#000000" fill="#FFFDFD" fill-opacity="0.5"/>
  <rect x="480" y="10.0" width="10" height="10" stroke="#000000" fill="#FF7878" fill-opacity="0.5"/>
  <rect x="480" y="30.0" width="10" height="10" stroke="#000000" fill="#FF8383" fill-opacity="0.5"/>
  <rect x="490" y="0.0" width="10" height="10" stroke="#000000" fill="#7D7DFF" fill-opacity="0.5"/>
  <rect x="490" y="20.0" width="10" height="10" stroke="#000000" fill="#6565FF" fill-opacity="0.5"/>
  <rect x="490" y="10.0" width="10" height="10" stroke="#000000" fill="#E1E1FF" fill-opacity="0.5"/>
  <rect x="490" y="30.0" width="10" height="10" stroke="#000000" fill="#E4E4FF" fill-opacity="0.5"/>
</svg>
