<?xml version="1.0" encoding="UTF-8" standalone="no"?>
<svg
   xmlns:dc="http://purl.org/dc/elements/1.1/"
   xmlns:cc="http://creativecommons.org/ns#"
   xmlns:rdf="http://www.w3.org/1999/02/22-rdf-syntax-ns#"
   xmlns:svg="http://www.w3.org/2000/svg"
   xmlns="http://www.w3.org/2000/svg"
   xmlns:sodipodi="http://sodipodi.sourceforge.net/DTD/sodipodi-0.dtd"
   xmlns:inkscape="http://www.inkscape.org/namespaces/inkscape"
   version="1.1"
   x="0px"
   y="0px"
   viewBox="0 0 1226 349"
   style="enable-background:new 0 0 1226 349;"
   xml:space="preserve"
   id="svg4496"
   sodipodi:docname="ISO_British_QWERTY_(Windows).svg"
   inkscape:version="1.0.2 (e86c8708, 2021-01-15)"><metadata
   id="metadata4502"><rdf:RDF><cc:Work
       rdf:about=""><dc:format>image/svg+xml</dc:format><dc:type
         rdf:resource="http://purl.org/dc/dcmitype/StillImage" /></cc:Work></rdf:RDF></metadata><defs
   id="defs4500">
	

	
	
	
	
	
	
	
	
	
	
	
	
	
	
	
	
	
	
	
	
	
	
	
	
	
	
	
	
	
	
	
	
	
	
	
	
	
	
	
	
	
	
	
	
	
	
	
	
	
	
	
	
	
	
	
	
	
	
	
	
	
	
	
	
	
	
	
	
	
	
	
	
	
	
	
	
	
	
	
	
	
	
	
	
	
	
	
	
	
	
	
	
	
	
	
	
	
	
	
	
	
	
	
	
	
	
	
	
	
	
	
	
	
	
	
	
	
	
	
	
	
	
	
	
	
	
	
	
	
	
	
	
	
	
	
	
	
	
	

	
	
	
	
	
	
	
	
	
	
	
	
	
	
	
	
	
	
	
	
	
	
	
	
	
	
	
	
	
	
	
	
	
	
	
	
	
	
	
	
	
	
	
	
	
	
	
	
	
	
	
	
	
	
	
	
	
	
	
	
	
	
	
	
	
	
	
	
	
	
	
	
	
	
	
	
	
	
	
	
	
	
	
	
	
	
	
	
	
	
	
	
	
	
	
	
	
	
	
	
	
	
	
	
	

	
	
	
	
	
	
	
	
	
	
	
	
	
	
	
	
	
	
	
	
	
	
	
	
	
	
	
	
	
	
	
	
	
	
	
	
	
	
	
	
	
	
	
	
	
	
	
	
	
	
	
	
	
	
	
	
	
	
	
	
	
	
	
	
	
	
	
	
	
	
	
	
	
	
	
	
	
	
	
	
	
	
	
	
	
	
	
	
	
	
	
	
	
	
	
	
	
	
	
	
	
	
	
	
	
	
	
</defs><sodipodi:namedview
   pagecolor="#ffffff"
   bordercolor="#666666"
   borderopacity="1"
   objecttolerance="10"
   gridtolerance="10"
   guidetolerance="10"
   inkscape:pageopacity="0"
   inkscape:pageshadow="2"
   inkscape:window-width="1072"
   inkscape:window-height="1859"
   id="namedview4498"
   showgrid="false"
   inkscape:zoom="0.93636226"
   inkscape:cx="528.39404"
   inkscape:cy="563.23843"
   inkscape:window-x="1084"
   inkscape:window-y="1079"
   inkscape:window-maximized="0"
   inkscape:current-layer="svg4496" />
<title
   id="title3278">ISO British QWERTY (Windows)</title>
<desc
   id="desc3280">ISO British QWERTY keyboard layout for Windows</desc>
<style
   type="text/css"
   id="style3282">
	.st0{fill:#EEEEEE;stroke:#DDDDDD;}
	.st1{fill:#CCCCCC;stroke:#000000;stroke-width:2;}
	.st2{fill:#FCFCFC;}
	.st3{fill:none;}
</style>

<path
   class="st1"
   d="m 145.92738,48.365006 h 38 c 2.2,0 4,1.8 4,4 v 38 c 0,2.2 -1.8,4 -4,4 h -38 c -2.2,0 -4,-1.8 -4,-4 v -38 c 0,-2.2 1.8,-4 4,-4 z"
   id="path3319" /><path
   class="st1"
   d="m 199.92738,48.365006 h 38 c 2.2,0 4,1.8 4,4 v 38 c 0,2.2 -1.8,4 -4,4 h -38 c -2.2,0 -4,-1.8 -4,-4 v -38 c 0,-2.2 1.8,-4 4,-4 z"
   id="path3321" /><path
   class="st1"
   d="m 253.92738,48.365006 h 38 c 2.2,0 4,1.8 4,4 v 38 c 0,2.2 -1.8,4 -4,4 h -38 c -2.2,0 -4,-1.8 -4,-4 v -38 c 0,-2.2 1.8,-4 4,-4 z"
   id="path3323" /><path
   class="st1"
   d="m 307.92738,48.365006 h 38 c 2.2,0 4,1.8 4,4 v 38 c 0,2.2 -1.8,4 -4,4 h -38 c -2.2,0 -4,-1.8 -4,-4 v -38 c 0,-2.2 1.8,-4 4,-4 z"
   id="path3325" /><path
   class="st1"
   d="m 361.92738,48.365006 h 38 c 2.2,0 4,1.8 4,4 v 38 c 0,2.2 -1.8,4 -4,4 h -38 c -2.2,0 -4,-1.8 -4,-4 v -38 c 0,-2.2 1.8,-4 4,-4 z"
   id="path3327" /><path
   class="st1"
   d="m 415.92738,48.365006 h 38 c 2.2,0 4,1.8 4,4 v 38 c 0,2.2 -1.8,4 -4,4 h -38 c -2.2,0 -4,-1.8 -4,-4 v -38 c 0,-2.2 1.8,-4 4,-4 z"
   id="path3329" /><path
   class="st1"
   d="m 469.92738,48.365006 h 38 c 2.2,0 4,1.8 4,4 v 38 c 0,2.2 -1.8,4 -4,4 h -38 c -2.2,0 -4,-1.8 -4,-4 v -38 c 0,-2.2 1.8,-4 4,-4 z"
   id="path3331" /><path
   class="st1"
   d="m 523.92738,48.365006 h 38 c 2.2,0 4,1.8 4,4 v 38 c 0,2.2 -1.8,4 -4,4 h -38 c -2.2,0 -4,-1.8 -4,-4 v -38 c 0,-2.2 1.8,-4 4,-4 z"
   id="path3333" /><path
   class="st1"
   d="m 577.92738,48.365006 h 38 c 2.2,0 4,1.8 4,4 v 38 c 0,2.2 -1.8,4 -4,4 h -38 c -2.2,0 -4,-1.8 -4,-4 v -38 c 0,-2.2 1.8,-4 4,-4 z"
   id="path3335" /><path
   class="st1"
   d="m 631.92738,48.365006 h 38 c 2.2,0 4,1.8 4,4 v 38 c 0,2.2 -1.8,4 -4,4 h -38 c -2.2,0 -4,-1.8 -4,-4 v -38 c 0,-2.2 1.8,-4 4,-4 z"
   id="path3337" /><path
   class="st1"
   d="m 685.92738,48.365006 h 38 c 2.2,0 4,1.8 4,4 v 38 c 0,2.2 -1.8,4 -4,4 h -38 c -2.2,0 -4,-1.8 -4,-4 v -38 c 0,-2.2 1.8,-4 4,-4 z"
   id="path3339" /><path
   class="st1"
   d="m 739.92738,48.365006 h 38 c 2.2,0 4,1.8 4,4 v 38 c 0,2.2 -1.8,4 -4,4 h -38 c -2.2,0 -4,-1.8 -4,-4 v -38 c 0,-2.2 1.8,-4 4,-4 z"
   id="path3341" /><path
   class="st1"
   d="m 793.92738,48.365006 h 38 c 2.2,0 4,1.8 4,4 v 38 c 0,2.2 -1.8,4 -4,4 h -38 c -2.2,0 -4,-1.8 -4,-4 v -38 c 0,-2.2 1.8,-4 4,-4 z"
   id="path3343" /><path
   class="st1"
   d="m 847.92738,48.365006 h 92 c 2.2,0 4,1.8 4,4 v 38 c 0,2.2 -1.8,4 -4,4 h -92 c -2.2,0 -4,-1.8 -4,-4 v -38 c 0,-2.2 1.8,-4 4,-4 z"
   id="path3345" /><path
   class="st1"
   d="m 145.92738,102.36501 h 65 c 2.2,0 4,1.8 4,4 v 38 c 0,2.2 -1.8,4 -4,4 h -65 c -2.2,0 -4,-1.8 -4,-4 v -38 c 0,-2.2 1.8,-4 4,-4 z"
   id="path3361" /><path
   class="st1"
   d="m 226.92738,102.36501 h 38 c 2.2,0 4,1.8 4,4 v 38 c 0,2.2 -1.8,4 -4,4 h -38 c -2.2,0 -4,-1.8 -4,-4 v -38 c 0,-2.2 1.8,-4 4,-4 z"
   id="path3363" /><path
   class="st1"
   d="m 280.92738,102.36501 h 38 c 2.2,0 4,1.8 4,4 v 38 c 0,2.2 -1.8,4 -4,4 h -38 c -2.2,0 -4,-1.8 -4,-4 v -38 c 0,-2.2 1.8,-4 4,-4 z"
   id="path3365" /><path
   class="st1"
   d="m 334.92738,102.36501 h 38 c 2.2,0 4,1.8 4,4 v 38 c 0,2.2 -1.8,4 -4,4 h -38 c -2.2,0 -4,-1.8 -4,-4 v -38 c 0,-2.2 1.8,-4 4,-4 z"
   id="path3367" /><path
   class="st1"
   d="m 388.92738,102.36501 h 38 c 2.2,0 4,1.8 4,4 v 38 c 0,2.2 -1.8,4 -4,4 h -38 c -2.2,0 -4,-1.8 -4,-4 v -38 c 0,-2.2 1.8,-4 4,-4 z"
   id="path3369" /><path
   class="st1"
   d="m 442.92738,102.36501 h 38 c 2.2,0 4,1.8 4,4 v 38 c 0,2.2 -1.8,4 -4,4 h -38 c -2.2,0 -4,-1.8 -4,-4 v -38 c 0,-2.2 1.8,-4 4,-4 z"
   id="path3371" /><path
   class="st1"
   d="m 496.92738,102.36501 h 38 c 2.2,0 4,1.8 4,4 v 38 c 0,2.2 -1.8,4 -4,4 h -38 c -2.2,0 -4,-1.8 -4,-4 v -38 c 0,-2.2 1.8,-4 4,-4 z"
   id="path3373" /><path
   class="st1"
   d="m 550.92738,102.36501 h 38 c 2.2,0 4,1.8 4,4 v 38 c 0,2.2 -1.8,4 -4,4 h -38 c -2.2,0 -4,-1.8 -4,-4 v -38 c 0,-2.2 1.8,-4 4,-4 z"
   id="path3375" /><path
   class="st1"
   d="m 604.92738,102.36501 h 38 c 2.2,0 4,1.8 4,4 v 38 c 0,2.2 -1.8,4 -4,4 h -38 c -2.2,0 -4,-1.8 -4,-4 v -38 c 0,-2.2 1.8,-4 4,-4 z"
   id="path3377" /><path
   class="st1"
   d="m 658.92738,102.36501 h 38 c 2.2,0 4,1.8 4,4 v 38 c 0,2.2 -1.8,4 -4,4 h -38 c -2.2,0 -4,-1.8 -4,-4 v -38 c 0,-2.2 1.8,-4 4,-4 z"
   id="path3379" /><path
   class="st1"
   d="m 712.92738,102.36501 h 38 c 2.2,0 4,1.8 4,4 v 38 c 0,2.2 -1.8,4 -4,4 h -38 c -2.2,0 -4,-1.8 -4,-4 v -38 c 0,-2.2 1.8,-4 4,-4 z"
   id="path3381" /><path
   class="st1"
   d="m 766.92738,102.36501 h 38 c 2.2,0 4,1.8 4,4 v 38 c 0,2.2 -1.8,4 -4,4 h -38 c -2.2,0 -4,-1.8 -4,-4 v -38 c 0,-2.2 1.8,-4 4,-4 z"
   id="path3383" /><path
   class="st1"
   d="m 820.92738,102.36501 h 38 c 2.2,0 4,1.8 4,4 v 38 c 0,2.2 -1.8,4 -4,4 h -38 c -2.2,0 -4,-1.8 -4,-4 v -38 c 0,-2.2 1.8,-4 4,-4 z"
   id="path3385" /><path
   class="st1"
   d="m 213.42738,210.36501 h 38 c 2.2,0 4,1.8 4,4 v 38 c 0,2.2 -1.8,4 -4,4 h -38 c -2.2,0 -4,-1.8 -4,-4 v -38 c 0,-2.2 1.8,-4 4,-4 z"
   id="path3387" /><path
   class="st1"
   d="m 145.92738,156.36501 h 78.5 c 2.2,0 4,1.8 4,4 v 38 c 0,2.2 -1.8,4 -4,4 h -78.5 c -2.2,0 -4,-1.8 -4,-4 v -38 c 0,-2.2 1.8,-4 4,-4 z"
   id="path3403" /><path
   class="st1"
   d="m 240.42738,156.36501 h 38 c 2.2,0 4,1.8 4,4 v 38 c 0,2.2 -1.8,4 -4,4 h -38 c -2.2,0 -4,-1.8 -4,-4 v -38 c 0,-2.2 1.8,-4 4,-4 z"
   id="path3405" /><path
   class="st1"
   d="m 294.42738,156.36501 h 38 c 2.2,0 4,1.8 4,4 v 38 c 0,2.2 -1.8,4 -4,4 h -38 c -2.2,0 -4,-1.8 -4,-4 v -38 c 0,-2.2 1.8,-4 4,-4 z"
   id="path3407" /><path
   class="st1"
   d="m 348.42738,156.36501 h 38 c 2.2,0 4,1.8 4,4 v 38 c 0,2.2 -1.8,4 -4,4 h -38 c -2.2,0 -4,-1.8 -4,-4 v -38 c 0,-2.2 1.8,-4 4,-4 z"
   id="path3409" /><path
   class="st1"
   d="m 402.42738,156.36501 h 38 c 2.2,0 4,1.8 4,4 v 38 c 0,2.2 -1.8,4 -4,4 h -38 c -2.2,0 -4,-1.8 -4,-4 v -38 c 0,-2.2 1.8,-4 4,-4 z"
   id="path3411" /><path
   class="st1"
   d="m 456.42738,156.36501 h 38 c 2.2,0 4,1.8 4,4 v 38 c 0,2.2 -1.8,4 -4,4 h -38 c -2.2,0 -4,-1.8 -4,-4 v -38 c 0,-2.2 1.8,-4 4,-4 z"
   id="path3413" /><path
   class="st1"
   d="m 510.42738,156.36501 h 38 c 2.2,0 4,1.8 4,4 v 38 c 0,2.2 -1.8,4 -4,4 h -38 c -2.2,0 -4,-1.8 -4,-4 v -38 c 0,-2.2 1.8,-4 4,-4 z"
   id="path3415" /><path
   class="st1"
   d="m 564.42738,156.36501 h 38 c 2.2,0 4,1.8 4,4 v 38 c 0,2.2 -1.8,4 -4,4 h -38 c -2.2,0 -4,-1.8 -4,-4 v -38 c 0,-2.2 1.8,-4 4,-4 z"
   id="path3417" /><path
   class="st1"
   d="m 618.42738,156.36501 h 38 c 2.2,0 4,1.8 4,4 v 38 c 0,2.2 -1.8,4 -4,4 h -38 c -2.2,0 -4,-1.8 -4,-4 v -38 c 0,-2.2 1.8,-4 4,-4 z"
   id="path3419" /><path
   class="st1"
   d="m 672.42738,156.36501 h 38 c 2.2,0 4,1.8 4,4 v 38 c 0,2.2 -1.8,4 -4,4 h -38 c -2.2,0 -4,-1.8 -4,-4 v -38 c 0,-2.2 1.8,-4 4,-4 z"
   id="path3421" /><path
   class="st1"
   d="m 726.42738,156.36501 h 38 c 2.2,0 4,1.8 4,4 v 38 c 0,2.2 -1.8,4 -4,4 h -38 c -2.2,0 -4,-1.8 -4,-4 v -38 c 0,-2.2 1.8,-4 4,-4 z"
   id="path3423" /><path
   class="st1"
   d="m 780.42738,156.36501 h 38 c 2.2,0 4,1.8 4,4 v 38 c 0,2.2 -1.8,4 -4,4 h -38 c -2.2,0 -4,-1.8 -4,-4 v -38 c 0,-2.2 1.8,-4 4,-4 z"
   id="path3425" /><path
   class="st1"
   d="m 834.42738,156.36501 h 38 c 2.2,0 4,1.8 4,4 v 38 c 0,2.2 -1.8,4 -4,4 h -38 c -2.2,0 -4,-1.8 -4,-4 v -38 c 0,-2.2 1.8,-4 4,-4 z"
   id="path3427" /><path
   class="st1"
   d="m 145.92738,210.36501 h 51.5 c 2.2,0 4,1.8 4,4 v 38 c 0,2.2 -1.8,4 -4,4 h -51.5 c -2.2,0 -4,-1.8 -4,-4 v -38 c 0,-2.2 1.8,-4 4,-4 z"
   id="path3435" /><path
   class="st1"
   d="m 267.42738,210.36501 h 38 c 2.2,0 4,1.8 4,4 v 38 c 0,2.2 -1.8,4 -4,4 h -38 c -2.2,0 -4,-1.8 -4,-4 v -38 c 0,-2.2 1.8,-4 4,-4 z"
   id="path3437" /><path
   class="st1"
   d="m 321.42738,210.36501 h 38 c 2.2,0 4,1.8 4,4 v 38 c 0,2.2 -1.8,4 -4,4 h -38 c -2.2,0 -4,-1.8 -4,-4 v -38 c 0,-2.2 1.8,-4 4,-4 z"
   id="path3439" /><path
   class="st1"
   d="m 375.42738,210.36501 h 38 c 2.2,0 4,1.8 4,4 v 38 c 0,2.2 -1.8,4 -4,4 h -38 c -2.2,0 -4,-1.8 -4,-4 v -38 c 0,-2.2 1.8,-4 4,-4 z"
   id="path3441" /><path
   class="st1"
   d="m 429.42738,210.36501 h 38 c 2.2,0 4,1.8 4,4 v 38 c 0,2.2 -1.8,4 -4,4 h -38 c -2.2,0 -4,-1.8 -4,-4 v -38 c 0,-2.2 1.8,-4 4,-4 z"
   id="path3443" /><path
   class="st1"
   d="m 483.42738,210.36501 h 38 c 2.2,0 4,1.8 4,4 v 38 c 0,2.2 -1.8,4 -4,4 h -38 c -2.2,0 -4,-1.8 -4,-4 v -38 c 0,-2.2 1.8,-4 4,-4 z"
   id="path3445" /><path
   class="st1"
   d="m 537.42738,210.36501 h 38 c 2.2,0 4,1.8 4,4 v 38 c 0,2.2 -1.8,4 -4,4 h -38 c -2.2,0 -4,-1.8 -4,-4 v -38 c 0,-2.2 1.8,-4 4,-4 z"
   id="path3447" /><path
   class="st1"
   d="m 591.42738,210.36501 h 38 c 2.2,0 4,1.8 4,4 v 38 c 0,2.2 -1.8,4 -4,4 h -38 c -2.2,0 -4,-1.8 -4,-4 v -38 c 0,-2.2 1.8,-4 4,-4 z"
   id="path3449" /><path
   class="st1"
   d="m 645.42738,210.36501 h 38 c 2.2,0 4,1.8 4,4 v 38 c 0,2.2 -1.8,4 -4,4 h -38 c -2.2,0 -4,-1.8 -4,-4 v -38 c 0,-2.2 1.8,-4 4,-4 z"
   id="path3451" /><path
   class="st1"
   d="m 699.42738,210.36501 h 38 c 2.2,0 4,1.8 4,4 v 38 c 0,2.2 -1.8,4 -4,4 h -38 c -2.2,0 -4,-1.8 -4,-4 v -38 c 0,-2.2 1.8,-4 4,-4 z"
   id="path3453" /><path
   class="st1"
   d="m 753.42738,210.36501 h 38 c 2.2,0 4,1.8 4,4 v 38 c 0,2.2 -1.8,4 -4,4 h -38 c -2.2,0 -4,-1.8 -4,-4 v -38 c 0,-2.2 1.8,-4 4,-4 z"
   id="path3455" /><path
   class="st1"
   d="m 807.42738,210.36501 h 132.5 c 2.2,0 4,1.8 4,4 v 38 c 0,2.2 -1.8,4 -4,4 h -132.5 c -2.2,0 -4,-1.8 -4,-4 v -38 c 0,-2.2 1.8,-4 4,-4 z"
   id="path3457" /><path
   class="st1"
   d="m 145.92738,264.36501 h 51.5 c 2.2,0 4,1.8 4,4 v 38 c 0,2.2 -1.8,4 -4,4 h -51.5 c -2.2,0 -4,-1.8 -4,-4 v -38 c 0,-2.2 1.8,-4 4,-4 z"
   id="path3469" /><path
   class="st1"
   d="m 213.42738,264.36501 h 51.5 c 2.2,0 4,1.8 4,4 v 38 c 0,2.2 -1.8,4 -4,4 h -51.5 c -2.2,0 -4,-1.8 -4,-4 v -38 c 0,-2.2 1.8,-4 4,-4 z"
   id="path3471" /><path
   class="st1"
   d="m 280.92738,264.36501 h 51.5 c 2.2,0 4,1.8 4,4 v 38 c 0,2.2 -1.8,4 -4,4 h -51.5 c -2.2,0 -4,-1.8 -4,-4 v -38 c 0,-2.2 1.8,-4 4,-4 z"
   id="path3473" /><path
   class="st1"
   d="m 348.42738,264.36501 h 321.5 c 2.2,0 4,1.8 4,4 v 38 c 0,2.2 -1.8,4 -4,4 h -321.5 c -2.2,0 -4,-1.8 -4,-4 v -38 c 0,-2.2 1.8,-4 4,-4 z"
   id="path3475" /><path
   class="st1"
   d="m 685.92738,264.36501 h 51.5 c 2.2,0 4,1.8 4,4 v 38 c 0,2.2 -1.8,4 -4,4 h -51.5 c -2.2,0 -4,-1.8 -4,-4 v -38 c 0,-2.2 1.8,-4 4,-4 z"
   id="path3477" /><path
   class="st1"
   d="m 753.42738,264.36501 h 51.5 c 2.2,0 4,1.8 4,4 v 38 c 0,2.2 -1.8,4 -4,4 h -51.5 c -2.2,0 -4,-1.8 -4,-4 v -38 c 0,-2.2 1.8,-4 4,-4 z"
   id="path3479" /><path
   class="st1"
   d="m 820.92738,264.36501 h 51.5 c 2.2,0 4,1.8 4,4 v 38 c 0,2.2 -1.8,4 -4,4 h -51.5 c -2.2,0 -4,-1.8 -4,-4 v -38 c 0,-2.2 1.8,-4 4,-4 z"
   id="path3481" /><path
   class="st1"
   d="m 888.42738,264.36501 h 51.5 c 2.2,0 4,1.8 4,4 v 38 c 0,2.2 -1.8,4 -4,4 h -51.5 c -2.2,0 -4,-1.8 -4,-4 v -38 c 0,-2.2 1.8,-4 4,-4 z"
   id="path3483" /><path
   class="st1"
   d="m 939.92738,102.36501 h -51.5 -13.5 c -2.2,0 -4,1.8 -4,4 v 38 c 0,2.2 1.8,4 4,4 h 9.5 v 50 c 0,2.2 1.8,4 4,4 h 51.5 c 2.2,0 4,-1.8 4,-4 v -54 -38 c 0,-2.2 -1.8,-4 -4,-4 z"
   id="path3495" />
<path
   class="st2"
   d="m 146.92738,49.365006 h 36 c 2.2,0 4,1.8 4,4 v 34 c 0,2.2 -1.8,4 -4,4 h -36 c -2.2,0 -4,-1.8 -4,-4 v -34 c 0,-2.2 1.8,-4 4,-4 z"
   id="path3530" /><path
   class="st2"
   d="m 200.92738,49.365006 h 36 c 2.2,0 4,1.8 4,4 v 34 c 0,2.2 -1.8,4 -4,4 h -36 c -2.2,0 -4,-1.8 -4,-4 v -34 c 0,-2.2 1.8,-4 4,-4 z"
   id="path3532" /><path
   class="st2"
   d="m 254.92738,49.365006 h 36 c 2.2,0 4,1.8 4,4 v 34 c 0,2.2 -1.8,4 -4,4 h -36 c -2.2,0 -4,-1.8 -4,-4 v -34 c 0,-2.2 1.8,-4 4,-4 z"
   id="path3534" /><path
   class="st2"
   d="m 308.92738,49.365006 h 36 c 2.2,0 4,1.8 4,4 v 34 c 0,2.2 -1.8,4 -4,4 h -36 c -2.2,0 -4,-1.8 -4,-4 v -34 c 0,-2.2 1.8,-4 4,-4 z"
   id="path3536" /><path
   class="st2"
   d="m 362.92738,49.365006 h 36 c 2.2,0 4,1.8 4,4 v 34 c 0,2.2 -1.8,4 -4,4 h -36 c -2.2,0 -4,-1.8 -4,-4 v -34 c 0,-2.2 1.8,-4 4,-4 z"
   id="path3538" /><path
   class="st2"
   d="m 416.92738,49.365006 h 36 c 2.2,0 4,1.8 4,4 v 34 c 0,2.2 -1.8,4 -4,4 h -36 c -2.2,0 -4,-1.8 -4,-4 v -34 c 0,-2.2 1.8,-4 4,-4 z"
   id="path3540" /><path
   class="st2"
   d="m 470.92738,49.365006 h 36 c 2.2,0 4,1.8 4,4 v 34 c 0,2.2 -1.8,4 -4,4 h -36 c -2.2,0 -4,-1.8 -4,-4 v -34 c 0,-2.2 1.8,-4 4,-4 z"
   id="path3542" /><path
   class="st2"
   d="m 524.92738,49.365006 h 36 c 2.2,0 4,1.8 4,4 v 34 c 0,2.2 -1.8,4 -4,4 h -36 c -2.2,0 -4,-1.8 -4,-4 v -34 c 0,-2.2 1.8,-4 4,-4 z"
   id="path3544" /><path
   class="st2"
   d="m 578.92738,49.365006 h 36 c 2.2,0 4,1.8 4,4 v 34 c 0,2.2 -1.8,4 -4,4 h -36 c -2.2,0 -4,-1.8 -4,-4 v -34 c 0,-2.2 1.8,-4 4,-4 z"
   id="path3546" /><path
   class="st2"
   d="m 632.92738,49.365006 h 36 c 2.2,0 4,1.8 4,4 v 34 c 0,2.2 -1.8,4 -4,4 h -36 c -2.2,0 -4,-1.8 -4,-4 v -34 c 0,-2.2 1.8,-4 4,-4 z"
   id="path3548" /><path
   class="st2"
   d="m 686.92738,49.365006 h 36 c 2.2,0 4,1.8 4,4 v 34 c 0,2.2 -1.8,4 -4,4 h -36 c -2.2,0 -4,-1.8 -4,-4 v -34 c 0,-2.2 1.8,-4 4,-4 z"
   id="path3550" /><path
   class="st2"
   d="m 740.92738,49.365006 h 36 c 2.2,0 4,1.8 4,4 v 34 c 0,2.2 -1.8,4 -4,4 h -36 c -2.2,0 -4,-1.8 -4,-4 v -34 c 0,-2.2 1.8,-4 4,-4 z"
   id="path3552" /><path
   class="st2"
   d="m 794.92738,49.365006 h 36 c 2.2,0 4,1.8 4,4 v 34 c 0,2.2 -1.8,4 -4,4 h -36 c -2.2,0 -4,-1.8 -4,-4 v -34 c 0,-2.2 1.8,-4 4,-4 z"
   id="path3554" /><path
   class="st2"
   d="m 848.92738,49.365006 h 90 c 2.2,0 4,1.8 4,4 v 34 c 0,2.2 -1.8,4 -4,4 h -90 c -2.2,0 -4,-1.8 -4,-4 v -34 c 0,-2.2 1.8,-4 4,-4 z"
   id="path3556" /><path
   class="st2"
   d="m 146.92738,103.36501 h 63 c 2.2,0 4,1.8 4,4 v 34 c 0,2.2 -1.8,4 -4,4 h -63 c -2.2,0 -4,-1.8 -4,-4 v -34 c 0,-2.2 1.8,-4 4,-4 z"
   id="path3572" /><path
   class="st2"
   d="m 227.92738,103.36501 h 36 c 2.2,0 4,1.8 4,4 v 34 c 0,2.2 -1.8,4 -4,4 h -36 c -2.2,0 -4,-1.8 -4,-4 v -34 c 0,-2.2 1.8,-4 4,-4 z"
   id="path3574" /><path
   class="st2"
   d="m 281.92738,103.36501 h 36 c 2.2,0 4,1.8 4,4 v 34 c 0,2.2 -1.8,4 -4,4 h -36 c -2.2,0 -4,-1.8 -4,-4 v -34 c 0,-2.2 1.8,-4 4,-4 z"
   id="path3576" /><path
   class="st2"
   d="m 335.92738,103.36501 h 36 c 2.2,0 4,1.8 4,4 v 34 c 0,2.2 -1.8,4 -4,4 h -36 c -2.2,0 -4,-1.8 -4,-4 v -34 c 0,-2.2 1.8,-4 4,-4 z"
   id="path3578" /><path
   class="st2"
   d="m 389.92738,103.36501 h 36 c 2.2,0 4,1.8 4,4 v 34 c 0,2.2 -1.8,4 -4,4 h -36 c -2.2,0 -4,-1.8 -4,-4 v -34 c 0,-2.2 1.8,-4 4,-4 z"
   id="path3580" /><path
   class="st2"
   d="m 443.92738,103.36501 h 36 c 2.2,0 4,1.8 4,4 v 34 c 0,2.2 -1.8,4 -4,4 h -36 c -2.2,0 -4,-1.8 -4,-4 v -34 c 0,-2.2 1.8,-4 4,-4 z"
   id="path3582" /><path
   class="st2"
   d="m 497.92738,103.36501 h 36 c 2.2,0 4,1.8 4,4 v 34 c 0,2.2 -1.8,4 -4,4 h -36 c -2.2,0 -4,-1.8 -4,-4 v -34 c 0,-2.2 1.8,-4 4,-4 z"
   id="path3584" /><path
   class="st2"
   d="m 551.92738,103.36501 h 36 c 2.2,0 4,1.8 4,4 v 34 c 0,2.2 -1.8,4 -4,4 h -36 c -2.2,0 -4,-1.8 -4,-4 v -34 c 0,-2.2 1.8,-4 4,-4 z"
   id="path3586" /><path
   class="st2"
   d="m 605.92738,103.36501 h 36 c 2.2,0 4,1.8 4,4 v 34 c 0,2.2 -1.8,4 -4,4 h -36 c -2.2,0 -4,-1.8 -4,-4 v -34 c 0,-2.2 1.8,-4 4,-4 z"
   id="path3588" /><path
   class="st2"
   d="m 659.92738,103.36501 h 36 c 2.2,0 4,1.8 4,4 v 34 c 0,2.2 -1.8,4 -4,4 h -36 c -2.2,0 -4,-1.8 -4,-4 v -34 c 0,-2.2 1.8,-4 4,-4 z"
   id="path3590" /><path
   class="st2"
   d="m 713.92738,103.36501 h 36 c 2.2,0 4,1.8 4,4 v 34 c 0,2.2 -1.8,4 -4,4 h -36 c -2.2,0 -4,-1.8 -4,-4 v -34 c 0,-2.2 1.8,-4 4,-4 z"
   id="path3592" /><path
   class="st2"
   d="m 767.92738,103.36501 h 36 c 2.2,0 4,1.8 4,4 v 34 c 0,2.2 -1.8,4 -4,4 h -36 c -2.2,0 -4,-1.8 -4,-4 v -34 c 0,-2.2 1.8,-4 4,-4 z"
   id="path3594" /><path
   class="st2"
   d="m 821.92738,103.36501 h 36 c 2.2,0 4,1.8 4,4 v 34 c 0,2.2 -1.8,4 -4,4 h -36 c -2.2,0 -4,-1.8 -4,-4 v -34 c 0,-2.2 1.8,-4 4,-4 z"
   id="path3596" /><path
   class="st2"
   d="m 214.42738,211.36501 h 36 c 2.2,0 4,1.8 4,4 v 34 c 0,2.2 -1.8,4 -4,4 h -36 c -2.2,0 -4,-1.8 -4,-4 v -34 c 0,-2.2 1.8,-4 4,-4 z"
   id="path3598" /><path
   class="st2"
   d="m 146.92738,157.36501 h 76.5 c 2.2,0 4,1.8 4,4 v 34 c 0,2.2 -1.8,4 -4,4 h -76.5 c -2.2,0 -4,-1.8 -4,-4 v -34 c 0,-2.2 1.8,-4 4,-4 z"
   id="path3614" /><path
   class="st2"
   d="m 241.42738,157.36501 h 36 c 2.2,0 4,1.8 4,4 v 34 c 0,2.2 -1.8,4 -4,4 h -36 c -2.2,0 -4,-1.8 -4,-4 v -34 c 0,-2.2 1.8,-4 4,-4 z"
   id="path3616" /><path
   class="st2"
   d="m 295.42738,157.36501 h 36 c 2.2,0 4,1.8 4,4 v 34 c 0,2.2 -1.8,4 -4,4 h -36 c -2.2,0 -4,-1.8 -4,-4 v -34 c 0,-2.2 1.8,-4 4,-4 z"
   id="path3618" /><path
   class="st2"
   d="m 349.42738,157.36501 h 36 c 2.2,0 4,1.8 4,4 v 34 c 0,2.2 -1.8,4 -4,4 h -36 c -2.2,0 -4,-1.8 -4,-4 v -34 c 0,-2.2 1.8,-4 4,-4 z"
   id="path3620" /><path
   class="st2"
   d="m 403.42738,157.36501 h 36 c 2.2,0 4,1.8 4,4 v 34 c 0,2.2 -1.8,4 -4,4 h -36 c -2.2,0 -4,-1.8 -4,-4 v -34 c 0,-2.2 1.8,-4 4,-4 z"
   id="path3622" /><path
   class="st2"
   d="m 457.42738,157.36501 h 36 c 2.2,0 4,1.8 4,4 v 34 c 0,2.2 -1.8,4 -4,4 h -36 c -2.2,0 -4,-1.8 -4,-4 v -34 c 0,-2.2 1.8,-4 4,-4 z"
   id="path3624" /><path
   class="st2"
   d="m 511.42738,157.36501 h 36 c 2.2,0 4,1.8 4,4 v 34 c 0,2.2 -1.8,4 -4,4 h -36 c -2.2,0 -4,-1.8 -4,-4 v -34 c 0,-2.2 1.8,-4 4,-4 z"
   id="path3626" /><path
   class="st2"
   d="m 565.42738,157.36501 h 36 c 2.2,0 4,1.8 4,4 v 34 c 0,2.2 -1.8,4 -4,4 h -36 c -2.2,0 -4,-1.8 -4,-4 v -34 c 0,-2.2 1.8,-4 4,-4 z"
   id="path3628" /><path
   class="st2"
   d="m 619.42738,157.36501 h 36 c 2.2,0 4,1.8 4,4 v 34 c 0,2.2 -1.8,4 -4,4 h -36 c -2.2,0 -4,-1.8 -4,-4 v -34 c 0,-2.2 1.8,-4 4,-4 z"
   id="path3630" /><path
   class="st2"
   d="m 673.42738,157.36501 h 36 c 2.2,0 4,1.8 4,4 v 34 c 0,2.2 -1.8,4 -4,4 h -36 c -2.2,0 -4,-1.8 -4,-4 v -34 c 0,-2.2 1.8,-4 4,-4 z"
   id="path3632" /><path
   class="st2"
   d="m 727.42738,157.36501 h 36 c 2.2,0 4,1.8 4,4 v 34 c 0,2.2 -1.8,4 -4,4 h -36 c -2.2,0 -4,-1.8 -4,-4 v -34 c 0,-2.2 1.8,-4 4,-4 z"
   id="path3634" /><path
   class="st2"
   d="m 781.42738,157.36501 h 36 c 2.2,0 4,1.8 4,4 v 34 c 0,2.2 -1.8,4 -4,4 h -36 c -2.2,0 -4,-1.8 -4,-4 v -34 c 0,-2.2 1.8,-4 4,-4 z"
   id="path3636" /><path
   class="st2"
   d="m 835.42738,157.36501 h 36 c 2.2,0 4,1.8 4,4 v 34 c 0,2.2 -1.8,4 -4,4 h -36 c -2.2,0 -4,-1.8 -4,-4 v -34 c 0,-2.2 1.8,-4 4,-4 z"
   id="path3638" /><path
   class="st2"
   d="m 146.92738,211.36501 h 49.5 c 2.2,0 4,1.8 4,4 v 34 c 0,2.2 -1.8,4 -4,4 h -49.5 c -2.2,0 -4,-1.8 -4,-4 v -34 c 0,-2.2 1.8,-4 4,-4 z"
   id="path3646" /><path
   class="st2"
   d="m 268.42738,211.36501 h 36 c 2.2,0 4,1.8 4,4 v 34 c 0,2.2 -1.8,4 -4,4 h -36 c -2.2,0 -4,-1.8 -4,-4 v -34 c 0,-2.2 1.8,-4 4,-4 z"
   id="path3648" /><path
   class="st2"
   d="m 322.42738,211.36501 h 36 c 2.2,0 4,1.8 4,4 v 34 c 0,2.2 -1.8,4 -4,4 h -36 c -2.2,0 -4,-1.8 -4,-4 v -34 c 0,-2.2 1.8,-4 4,-4 z"
   id="path3650" /><path
   class="st2"
   d="m 376.42738,211.36501 h 36 c 2.2,0 4,1.8 4,4 v 34 c 0,2.2 -1.8,4 -4,4 h -36 c -2.2,0 -4,-1.8 -4,-4 v -34 c 0,-2.2 1.8,-4 4,-4 z"
   id="path3652" /><path
   class="st2"
   d="m 430.42738,211.36501 h 36 c 2.2,0 4,1.8 4,4 v 34 c 0,2.2 -1.8,4 -4,4 h -36 c -2.2,0 -4,-1.8 -4,-4 v -34 c 0,-2.2 1.8,-4 4,-4 z"
   id="path3654" /><path
   class="st2"
   d="m 484.42738,211.36501 h 36 c 2.2,0 4,1.8 4,4 v 34 c 0,2.2 -1.8,4 -4,4 h -36 c -2.2,0 -4,-1.8 -4,-4 v -34 c 0,-2.2 1.8,-4 4,-4 z"
   id="path3656" /><path
   class="st2"
   d="m 538.42738,211.36501 h 36 c 2.2,0 4,1.8 4,4 v 34 c 0,2.2 -1.8,4 -4,4 h -36 c -2.2,0 -4,-1.8 -4,-4 v -34 c 0,-2.2 1.8,-4 4,-4 z"
   id="path3658" /><path
   class="st2"
   d="m 592.42738,211.36501 h 36 c 2.2,0 4,1.8 4,4 v 34 c 0,2.2 -1.8,4 -4,4 h -36 c -2.2,0 -4,-1.8 -4,-4 v -34 c 0,-2.2 1.8,-4 4,-4 z"
   id="path3660" /><path
   class="st2"
   d="m 646.42738,211.36501 h 36 c 2.2,0 4,1.8 4,4 v 34 c 0,2.2 -1.8,4 -4,4 h -36 c -2.2,0 -4,-1.8 -4,-4 v -34 c 0,-2.2 1.8,-4 4,-4 z"
   id="path3662" /><path
   class="st2"
   d="m 700.42738,211.36501 h 36 c 2.2,0 4,1.8 4,4 v 34 c 0,2.2 -1.8,4 -4,4 h -36 c -2.2,0 -4,-1.8 -4,-4 v -34 c 0,-2.2 1.8,-4 4,-4 z"
   id="path3664" /><path
   class="st2"
   d="m 754.42738,211.36501 h 36 c 2.2,0 4,1.8 4,4 v 34 c 0,2.2 -1.8,4 -4,4 h -36 c -2.2,0 -4,-1.8 -4,-4 v -34 c 0,-2.2 1.8,-4 4,-4 z"
   id="path3666" /><path
   class="st2"
   d="m 808.42738,211.36501 h 130.5 c 2.2,0 4,1.8 4,4 v 34 c 0,2.2 -1.8,4 -4,4 h -130.5 c -2.2,0 -4,-1.8 -4,-4 v -34 c 0,-2.2 1.8,-4 4,-4 z"
   id="path3668" /><path
   class="st2"
   d="m 146.92738,265.36501 h 49.5 c 2.2,0 4,1.8 4,4 v 34 c 0,2.2 -1.8,4 -4,4 h -49.5 c -2.2,0 -4,-1.8 -4,-4 v -34 c 0,-2.2 1.8,-4 4,-4 z"
   id="path3680" /><path
   class="st2"
   d="m 214.42738,265.36501 h 49.5 c 2.2,0 4,1.8 4,4 v 34 c 0,2.2 -1.8,4 -4,4 h -49.5 c -2.2,0 -4,-1.8 -4,-4 v -34 c 0,-2.2 1.8,-4 4,-4 z"
   id="path3682" /><path
   class="st2"
   d="m 281.92738,265.36501 h 49.5 c 2.2,0 4,1.8 4,4 v 34 c 0,2.2 -1.8,4 -4,4 h -49.5 c -2.2,0 -4,-1.8 -4,-4 v -34 c 0,-2.2 1.8,-4 4,-4 z"
   id="path3684" /><path
   class="st2"
   d="m 349.42738,265.36501 h 319.5 c 2.2,0 4,1.8 4,4 v 34 c 0,2.2 -1.8,4 -4,4 h -319.5 c -2.2,0 -4,-1.8 -4,-4 v -34 c 0,-2.2 1.8,-4 4,-4 z"
   id="path3686" /><path
   class="st2"
   d="m 686.92738,265.36501 h 49.5 c 2.2,0 4,1.8 4,4 v 34 c 0,2.2 -1.8,4 -4,4 h -49.5 c -2.2,0 -4,-1.8 -4,-4 v -34 c 0,-2.2 1.8,-4 4,-4 z"
   id="path3688" /><path
   class="st2"
   d="m 754.42738,265.36501 h 49.5 c 2.2,0 4,1.8 4,4 v 34 c 0,2.2 -1.8,4 -4,4 h -49.5 c -2.2,0 -4,-1.8 -4,-4 v -34 c 0,-2.2 1.8,-4 4,-4 z"
   id="path3690" /><path
   class="st2"
   d="m 821.92738,265.36501 h 49.5 c 2.2,0 4,1.8 4,4 v 34 c 0,2.2 -1.8,4 -4,4 h -49.5 c -2.2,0 -4,-1.8 -4,-4 v -34 c 0,-2.2 1.8,-4 4,-4 z"
   id="path3692" /><path
   class="st2"
   d="m 889.42738,265.36501 h 49.5 c 2.2,0 4,1.8 4,4 v 34 c 0,2.2 -1.8,4 -4,4 h -49.5 c -2.2,0 -4,-1.8 -4,-4 v -34 c 0,-2.2 1.8,-4 4,-4 z"
   id="path3694" /><path
   class="st2"
   d="m 889.42738,103.36501 h 49.5 c 2.2,0 4,1.8 4,4 v 88 c 0,2.2 -1.8,4 -4,4 h -49.5 c -2.2,0 -4,-1.8 -4,-4 v -88 c 0,-2.2 1.8,-4 4,-4 z"
   id="path3706" /><path
   class="st2"
   d="m 874.92738,103.36501 h 65 c 1.7,0 3,1.3 3,3 v 38 c 0,1.7 -1.3,3 -3,3 h -65 c -1.7,0 -3,-1.3 -3,-3 v -38 c 0,-1.6 1.3,-3 3,-3 z"
   id="path3708" /><path
   class="st3"
   d="m 889.42738,103.36501 h 49.5 c 2.2,0 4,1.8 4,4 v 88 c 0,2.2 -1.8,4 -4,4 h -49.5 c -2.2,0 -4,-1.8 -4,-4 v -88 c 0,-2.2 1.8,-4 4,-4 z"
   id="path3710" />
<g
   id="g3795"
   transform="translate(132.42738,-28.834994)">
		<path
   d="m 87.6,94.8 c 0,0.6 -0.5,1.1 -1.1,1.1 -0.6,0 -1.1,-0.5 -1.1,-1.1 0,-0.6 0.5,-1.1 1.1,-1.1 0.6,0 1.1,0.5 1.1,1.1 z M 87.3,90.2 87,92.8 h -1 l -0.3,-2.7 v -4.4 h 1.5 v 4.5 z"
   id="path3791" />
		<path
   d="m 87.6,112.7 h -1.5 v -7.6 h -1.8 v -1 c 1,-0.1 1.9,-0.4 2,-1.3 h 1.2 v 9.9 z"
   id="path3793" />
	</g><g
   id="g3801"
   transform="translate(132.42738,-28.834994)">
		<path
   d="m 252,92.7 c 0,1.6 -0.9,2.7 -2.8,2.9 V 97 h -1.5 v -1.4 c -1.2,-0.2 -2.3,-0.7 -2.9,-1.6 l 1.1,-1 c 0.7,0.8 1.6,1.1 2.5,1.1 1.4,0 2,-0.5 2,-1.3 0,-0.8 -0.6,-1.1 -2.2,-1.6 -2.1,-0.6 -3.1,-1.1 -3.1,-2.9 0,-1.5 1.1,-2.4 2.5,-2.6 v -1.5 h 1.5 v 1.5 c 1,0.2 1.8,0.6 2.5,1.3 l -1,1 c -0.7,-0.6 -1.3,-1 -2.3,-1 -1.1,0 -1.6,0.5 -1.6,1.1 0,0.7 0.4,1 2.1,1.5 2,0.8 3.2,1.3 3.2,3.1 z"
   id="path3797" />
		<path
   d="m 252.5,110.5 h -1.3 v 2.2 h -1.4 v -2.2 h -5.4 v -1.4 l 5.1,-6.3 h 1.7 v 6.4 h 1.3 z m -2.7,-6.1 c -0.2,0.3 -0.6,0.8 -0.9,1.2 L 247,108 c -0.3,0.4 -0.7,0.9 -0.9,1.1 0.3,0 1.1,0 1.6,0 h 2.1 v -2.9 c -0.1,-0.5 0,-1.4 0,-1.8 z"
   id="path3799" />
	</g><g
   id="g3807"
   transform="translate(132.42738,-28.834994)">
		<path
   d="m 301.2,88.7 c 0,1.8 -1,3.1 -2.5,3.1 -1.5,0 -2.4,-1.3 -2.4,-3.1 0,-1.8 1,-3.1 2.5,-3.1 1.4,0 2.4,1.3 2.4,3.1 z m -1.3,0 c 0,-1.1 -0.4,-1.9 -1.2,-1.9 -0.8,0 -1.2,0.7 -1.2,1.8 0,1.1 0.4,1.9 1.2,1.9 0.8,0 1.2,-0.8 1.2,-1.8 z m 6.4,-3 -6.1,9.9 h -1.4 l 6.1,-9.9 z m 2.4,7 c 0,1.8 -1,3.1 -2.5,3.1 -1.4,0 -2.4,-1.3 -2.4,-3.1 0,-1.8 1,-3.1 2.5,-3.1 1.5,0.1 2.4,1.3 2.4,3.1 z m -1.2,0.1 c 0,-1.1 -0.4,-1.9 -1.2,-1.9 -0.8,0 -1.2,0.7 -1.2,1.8 0,1.1 0.4,1.9 1.2,1.9 0.7,0 1.2,-0.8 1.2,-1.8 z"
   id="path3803" />
		<path
   d="m 306.1,109.3 c 0,2.4 -1.6,3.5 -3.9,3.5 -1.3,0 -2.4,-0.3 -3.5,-1 l 0.7,-1.2 c 0.8,0.5 1.9,0.8 2.8,0.8 1.5,0 2.4,-0.8 2.4,-2 0,-1.2 -0.8,-1.8 -2,-1.8 -0.8,0 -1.4,0.2 -1.9,0.6 l -1.6,-0.6 0.3,-4.8 h 6.1 v 1.4 h -4.8 l -0.2,2.5 c 0.6,-0.3 1.2,-0.5 2.1,-0.5 2.4,0 3.5,1.3 3.5,3.1 z"
   id="path3805" />
	</g><g
   id="g3813"
   transform="translate(132.42738,-28.834994)">
		<path
   d="m 359.9,90.3 h -1.6 l -1.8,-3 -1.8,3 h -1.6 l 2.9,-4.5 h 1.1 z"
   id="path3809" />
		<path
   d="m 360.4,109.5 c 0,2.2 -1.7,3.3 -3.9,3.3 -2.1,0 -3.7,-1.1 -3.7,-4 0,-2.6 1.4,-6.1 6.2,-6.3 v 1.4 c -2.3,0.1 -3.8,1.1 -4.5,3.2 0.7,-0.6 1.4,-0.8 2.6,-0.8 1.8,0.1 3.3,1.1 3.3,3.2 z m -1.5,0.1 c 0,-1.2 -0.8,-1.7 -2.3,-1.7 -1.4,0 -2.3,0.6 -2.3,1.7 0,1 0.8,1.8 2.3,1.8 1.5,0 2.3,-0.7 2.3,-1.8 z"
   id="path3811" />
	</g><g
   id="g3819"
   transform="translate(132.42738,-28.834994)">
		<path
   d="m 414.9,95.7 h -1.7 l -0.8,-0.9 c -0.7,0.7 -1.7,1.1 -2.8,1.1 -2.1,0 -3.1,-1.1 -3.1,-2.7 0,-1.3 0.7,-2.2 2.1,-2.9 l -0.2,-0.2 c -0.7,-0.8 -0.9,-1.4 -0.9,-2.1 0,-1.4 1.1,-2.3 2.8,-2.3 0.9,0 1.8,0.3 2.7,0.9 l -0.7,1.2 C 411.5,87.2 411,87 410.2,87 c -0.8,0 -1.1,0.3 -1.1,0.9 0,0.4 0.1,0.7 0.5,1.2 l 2.9,3.6 c 0.3,-0.5 0.5,-1.1 0.7,-1.6 l 1.3,0.4 c -0.2,0.8 -0.6,1.7 -1.1,2.4 z m -3.4,-2 -2.1,-2.5 c -0.9,0.5 -1.4,1 -1.4,1.9 0,0.8 0.5,1.4 1.7,1.4 0.7,0 1.3,-0.3 1.8,-0.8 z"
   id="path3815" />
		<path
   d="m 413.6,104.3 c -1.7,1.9 -3.2,4.7 -3.3,8.4 h -1.5 c 0.1,-3.4 1.2,-6.1 3.1,-8.5 h -5.2 v -1.4 h 6.9 z"
   id="path3817" />
	</g><g
   id="g3825"
   transform="translate(132.42738,-28.834994)">
		<path
   d="m 467.3,89.5 -0.6,1.1 -1.8,-1.3 0.2,2.2 h -1.2 l 0.2,-2.2 -1.8,1.3 -0.6,-1.1 2,-0.9 -2,-0.9 0.6,-1.1 1.8,1.3 -0.2,-2.2 h 1.2 l -0.2,2.1 1.7,-1.3 0.6,1.1 -2,0.9 z"
   id="path3821" />
		<path
   d="m 468.4,109.8 c 0,2 -1.5,3 -3.9,3 -2.4,0 -3.9,-1.1 -3.9,-3 0,-1.2 0.6,-2 1.8,-2.5 -1,-0.4 -1.3,-1.3 -1.3,-1.9 0,-1.9 1.5,-2.8 3.5,-2.8 1.8,0 3.5,0.9 3.5,2.8 0,0.6 -0.3,1.5 -1.3,1.9 0.9,0.4 1.6,1.2 1.6,2.5 z m -1.5,0 c 0,-1 -0.8,-1.7 -2.4,-1.7 -1.6,0 -2.4,0.6 -2.4,1.6 0,1 0.9,1.7 2.4,1.7 1.6,0.1 2.4,-0.6 2.4,-1.6 z m -0.4,-4.4 c 0,-0.8 -0.5,-1.5 -2,-1.5 -1.4,0 -2,0.7 -2,1.4 0,0.8 0.8,1.4 2,1.4 1.3,0 2,-0.6 2,-1.3 z"
   id="path3823" />
	</g><g
   id="g3831"
   transform="translate(132.42738,-28.834994)">
		<path
   d="m 520.3,96.6 -0.7,0.6 c -1.4,-1.3 -2.8,-3.2 -2.8,-5.8 0,-2.7 1.3,-4.5 2.8,-5.9 l 0.7,0.6 c -1.3,1.4 -2,3 -2,5.2 0.1,2.4 0.8,3.9 2,5.3 z"
   id="path3827" />
		<path
   d="m 522.2,106.6 c 0,2.6 -1.4,6.1 -6.2,6.3 v -1.4 c 2.3,-0.1 3.8,-1.1 4.5,-3.2 -0.7,0.6 -1.4,0.8 -2.6,0.8 -1.8,0 -3.3,-1 -3.3,-3.1 0,-2.2 1.7,-3.3 3.9,-3.3 2.1,-0.1 3.7,1 3.7,3.9 z m -1.5,-0.7 c 0,-1 -0.8,-1.8 -2.3,-1.8 -1.5,0 -2.3,0.7 -2.3,1.8 0,1.2 0.8,1.7 2.3,1.7 1.4,0 2.3,-0.6 2.3,-1.7 z"
   id="path3829" />
	</g><g
   id="g3837"
   transform="translate(132.42738,-28.834994)">
		<path
   d="m 574.2,91.3 c 0,2.7 -1.3,4.5 -2.8,5.9 l -0.7,-0.6 c 1.3,-1.4 2,-3 2,-5.2 0,-2.3 -0.8,-3.9 -2,-5.2 l 0.7,-0.6 c 1.4,1.3 2.8,3.2 2.8,5.7 z"
   id="path3833" />
		<path
   d="m 576.4,107.7 c 0,3 -1.4,5.1 -3.9,5.1 -2.6,0 -3.9,-2.1 -3.9,-5.1 0,-3 1.4,-5.1 3.9,-5.1 2.6,0 3.9,2.1 3.9,5.1 z m -1.5,0 c 0,-2.1 -0.7,-3.7 -2.4,-3.7 -1.7,0 -2.4,1.6 -2.4,3.7 0,2.1 0.7,3.7 2.4,3.7 1.8,0 2.4,-1.6 2.4,-3.7 z"
   id="path3835" />
	</g><g
   id="g3843"
   transform="translate(132.42738,-28.834994)">
		<path
   d="m 630,98.2 h -7 v -1.3 h 7.1 v 1.3 z"
   id="path3839" />
		<path
   d="m 628.3,108.2 h -3.5 v -1.4 h 3.5 z"
   id="path3841" />
	</g><g
   id="g3849"
   transform="translate(132.42738,-28.834994)">
		<path
   d="m 683.9,91.5 h -2.7 v 2.8 h -1.5 V 91.5 H 677 v -1.4 h 2.7 v -2.8 h 1.5 v 2.8 h 2.7 z"
   id="path3845" />
		<path
   d="m 683.6,106.9 h -6.1 v -1.4 h 6.1 z m 0,3.2 h -6.1 v -1.4 h 6.1 z"
   id="path3847" />
	</g><g
   id="g3865"
   transform="translate(132.42738,-28.834994)">
		<path
   d="m 117.7,153.2 c 0,1.7 -0.6,3.2 -1.5,4.1 l 0.7,1 -1.2,0.8 -0.7,-1 c -0.4,0.2 -0.9,0.3 -1.5,0.3 -2.6,0 -4.2,-2.1 -4.2,-5.1 0,-3 1.6,-5.1 4.2,-5.1 2.6,-0.1 4.2,2 4.2,5 z m -1.5,0 c 0,-2.2 -0.9,-3.6 -2.7,-3.6 -1.7,0 -2.7,1.4 -2.7,3.6 0,2.2 0.9,3.7 2.7,3.7 0.3,0 0.5,0 0.7,-0.1 l -0.7,-1.1 1.2,-0.8 0.7,1.1 c 0.5,-0.6 0.8,-1.6 0.8,-2.8 z"
   id="path3863" />
	</g><g
   id="g3869"
   transform="translate(132.42738,-28.834994)">
		<path
   d="m 172.9,148.2 -2,9.9 h -1.5 l -1.5,-6.4 c -0.1,-0.3 -0.2,-1.1 -0.3,-1.3 0,0.2 -0.2,1 -0.3,1.3 l -1.6,6.4 h -1.5 l -2,-9.9 h 1.5 l 1.2,6.3 c 0.1,0.3 0.2,1 0.2,1.3 0.1,-0.3 0.2,-1 0.3,-1.3 l 1.6,-6.3 h 1.3 l 1.6,6.4 c 0.1,0.3 0.2,0.8 0.2,1.1 0.1,-0.4 0.2,-0.9 0.2,-1.2 l 1.2,-6.4 h 1.4 z"
   id="path3867" />
	</g><g
   id="g3873"
   transform="translate(132.42738,-28.834994)">
		<path
   d="m 225,158.2 h -6.6 v -9.9 h 6.4 v 1.4 h -4.9 v 2.5 h 2.8 v 1.4 h -2.8 v 3.1 h 5.1 z"
   id="path3871" />
	</g><g
   id="g3877"
   transform="translate(132.42738,-28.834994)">
		<path
   d="m 279.4,151.2 c 0,1.6 -0.8,2.6 -2.2,2.9 l 2,4.1 h -1.7 l -2,-3.9 h -2.2 v 3.9 h -1.5 v -9.9 h 4.4 c 1.8,-0.1 3.2,0.9 3.2,2.9 z m -1.5,0.1 c 0,-1 -0.7,-1.6 -1.7,-1.6 h -2.9 v 3.2 h 2.9 c 1,-0.1 1.7,-0.6 1.7,-1.6 z"
   id="path3875" />
	</g><g
   id="g3881"
   transform="translate(132.42738,-28.834994)">
		<path
   d="m 333.1,149.7 h -2.9 v 8.5 h -1.5 v -8.5 h -2.9 v -1.5 h 7.3 z"
   id="path3879" />
	</g><g
   id="g3885"
   transform="translate(132.42738,-28.834994)">
		<path
   d="m 387.8,148.2 -3.6,6 v 3.9 h -1.5 v -3.9 l -3.6,-6 h 1.7 l 1.5,2.7 c 0.3,0.6 0.9,1.6 1,2 0.2,-0.4 0.7,-1.3 1,-2 l 1.6,-2.8 h 1.9 z"
   id="path3883" />
	</g><g
   id="g3889"
   transform="translate(132.42738,-28.834994)">
		<path
   d="m 441.3,154 c 0,2.8 -1.3,4.3 -3.8,4.3 -2.5,0 -3.7,-1.6 -3.7,-4.3 v -5.8 h 1.5 v 5.7 c 0,1.9 0.8,2.9 2.3,2.9 1.6,0 2.3,-1 2.3,-2.8 v -5.8 h 1.5 v 5.8 z"
   id="path3887" />
	</g><g
   id="g3893"
   transform="translate(132.42738,-28.834994)">
		<path
   d="m 492.2,158.2 h -1.5 v -9.9 h 1.5 z"
   id="path3891" />
	</g><g
   id="g3897"
   transform="translate(132.42738,-28.834994)">
		<path
   d="m 549.7,153.2 c 0,3.1 -1.7,5.1 -4.3,5.1 -2.5,0 -4.2,-2 -4.2,-5.1 0,-3.1 1.7,-5.1 4.2,-5.1 2.6,0 4.3,2 4.3,5.1 z m -1.5,0 c 0,-2.3 -1.2,-3.7 -2.8,-3.7 -1.6,0 -2.7,1.4 -2.7,3.6 0,2.2 1.1,3.7 2.7,3.7 1.7,0.1 2.8,-1.3 2.8,-3.6 z"
   id="path3895" />
	</g><g
   id="g3901"
   transform="translate(132.42738,-28.834994)">
		<path
   d="m 603.5,151.4 c 0,2 -1.4,3.1 -3.3,3.1 h -2.6 v 3.7 h -1.5 v -9.9 h 4.2 c 1.8,-0.1 3.2,1 3.2,3.1 z m -1.5,0 c 0,-1.1 -0.7,-1.7 -1.7,-1.7 h -2.7 v 3.4 h 2.7 c 1.1,0 1.7,-0.7 1.7,-1.7 z"
   id="path3899" />
	</g><g
   id="g3907"
   transform="translate(132.42738,-28.834994)">
		<path
   d="m 655.8,151.2 c -2.3,0 -3.3,-1 -3.3,-3 v -0.9 c 0,-1 -0.2,-1.2 -0.8,-1.2 h -0.3 v -1.3 h 0.3 c 0.6,0 0.8,-0.3 0.8,-1.2 v -0.9 c 0,-2 1,-3 3.3,-3 v 1.1 c -1.4,0.1 -1.8,0.7 -1.8,1.8 v 0.7 c 0,1.3 -0.3,1.9 -1.1,2.2 0.8,0.3 1.1,0.9 1.1,2.2 v 0.7 c 0,1.1 0.4,1.7 1.8,1.8 z"
   id="path3903" />
		<path
   d="m 655.3,168.2 h -3.1 v -11.5 h 3.1 v 1.2 h -1.7 v 9.1 h 1.7 z"
   id="path3905" />
	</g><g
   id="g3913"
   transform="translate(132.42738,-28.834994)">
		<path
   d="m 709.6,146.1 h -0.3 c -0.6,0 -0.8,0.3 -0.8,1.2 v 0.9 c 0,2 -1,3 -3.3,3 v -1.1 c 1.4,-0.1 1.8,-0.7 1.8,-1.8 v -0.7 c 0,-1.3 0.3,-1.9 1.1,-2.2 -0.8,-0.3 -1.1,-0.9 -1.1,-2.2 v -0.7 c 0,-1.1 -0.4,-1.7 -1.8,-1.8 v -1.1 c 2.3,0 3.3,1 3.3,3 v 0.9 c 0,1 0.2,1.2 0.8,1.2 h 0.3 z"
   id="path3909" />
		<path
   d="m 708.8,168.2 h -3.1 V 167 h 1.7 v -9 h -1.7 v -1.2 h 3.1 z"
   id="path3911" />
	</g><g
   id="g3919"
   transform="translate(132.42738,-28.834994)">
		<path
   d="m 100.7,260.3 h -1.3 v -14 h 1.3 z"
   id="path3915" />
		<path
   d="m 102.9,276 h -1.5 L 97,263.5 h 1.5 z"
   id="path3917" />
	</g><g
   id="g3939"
   transform="translate(132.42738,-28.834994)">
		<path
   d="m 131.4,212.2 h -1.6 l -0.8,-2.4 h -4 l -0.8,2.4 h -1.5 l 3.6,-9.9 h 1.6 z m -2.9,-3.7 -0.8,-2.3 c -0.2,-0.7 -0.6,-1.9 -0.8,-2.3 -0.1,0.4 -0.5,1.6 -0.7,2.3 l -0.8,2.3 z"
   id="path3937" />
	</g><g
   id="g3943"
   transform="translate(132.42738,-28.834994)">
		<path
   d="m 184.5,209.3 c 0,1.8 -1.1,3 -3.7,3 -1.4,0 -2.7,-0.6 -3.5,-1.6 l 1.1,-1 c 0.7,0.7 1.6,1.2 2.6,1.2 1.4,0 2.1,-0.5 2.1,-1.4 0,-0.8 -0.6,-1.1 -2.2,-1.6 -2.1,-0.6 -3.1,-1.1 -3.1,-2.9 0,-1.7 1.4,-2.8 3.3,-2.8 1.3,0 2.4,0.5 3.2,1.3 l -1,1.1 c -0.6,-0.6 -1.3,-0.9 -2.3,-0.9 -1.2,0 -1.7,0.6 -1.7,1.2 0,0.7 0.5,1 2.2,1.5 1.8,0.5 3,1.2 3,2.9 z"
   id="path3941" />
	</g><g
   id="g3947"
   transform="translate(132.42738,-28.834994)">
		<path
   d="m 239,207.2 c 0,3.5 -2.2,5 -4.8,5 h -2.7 v -9.9 h 2.7 c 2.7,-0.1 4.8,1.4 4.8,4.9 z m -1.5,0 c 0,-2.1 -1,-3.5 -3.3,-3.5 H 233 v 7 h 1.2 c 2.3,0 3.3,-1.4 3.3,-3.5 z"
   id="path3945" />
	</g><g
   id="g3951"
   transform="translate(132.42738,-28.834994)">
		<path
   d="m 292.6,203.7 h -4.9 v 2.6 h 2.8 v 1.5 h -2.8 v 4.4 h -1.5 v -9.9 h 6.4 z"
   id="path3949" />
	</g><g
   id="g3955"
   transform="translate(132.42738,-28.834994)">
		<path
   d="m 347,208.3 c 0,2.6 -1.6,4 -3.8,4 -2.6,0 -4.2,-2.1 -4.2,-5.1 0,-3 1.6,-5.1 4.2,-5.1 1.6,0 2.7,0.7 3.4,1.9 l -1.3,0.8 c -0.5,-0.8 -1,-1.2 -2.1,-1.2 -1.7,0 -2.7,1.4 -2.7,3.6 0,2.2 0.9,3.6 2.7,3.6 1.6,0 2.3,-1.1 2.3,-2.2 v 0 h -1.6 v -1.4 h 3.1 z"
   id="path3953" />
	</g><g
   id="g3959"
   transform="translate(132.42738,-28.834994)">
		<path
   d="m 400.8,212.2 h -1.5 v -4.4 h -4.6 v 4.4 h -1.5 v -9.9 h 1.5 v 4 h 4.6 v -4 h 1.5 z"
   id="path3957" />
	</g><g
   id="g3963"
   transform="translate(132.42738,-28.834994)">
		<path
   d="m 454.1,208.3 c 0,2.7 -1.1,4.1 -3.5,4.1 -1.9,0 -3,-1 -3.5,-2.6 l 1.4,-0.4 c 0.4,1 1,1.6 2.1,1.6 1.4,0 2,-0.8 2,-2.7 v -5.9 h 1.5 z"
   id="path3961" />
	</g><g
   id="g3967"
   transform="translate(132.42738,-28.834994)">
		<path
   d="m 509.3,212.2 h -1.7 l -2.8,-5.1 -1.8,2.2 v 2.9 h -1.4 v -9.9 h 1.4 v 3.4 c 0,0.4 0,1.4 0,1.8 0.2,-0.3 0.8,-1.1 1.1,-1.5 l 2.9,-3.7 h 1.7 l -2.9,3.6 z"
   id="path3965" />
	</g><g
   id="g3971"
   transform="translate(132.42738,-28.834994)">
		<path
   d="m 562.5,212.2 h -6.4 v -9.9 h 1.5 v 8.5 h 4.9 z"
   id="path3969" />
	</g><g
   id="g3977"
   transform="translate(132.42738,-28.834994)">
		<path
   d="m 614.1,197.2 c 0,0.6 -0.5,1.1 -1.1,1.1 -0.6,0 -1.1,-0.5 -1.1,-1.1 0,-0.6 0.5,-1.1 1.1,-1.1 0.6,0 1.1,0.5 1.1,1.1 z m 0,5.5 c 0,0.6 -0.5,1.1 -1.1,1.1 -0.6,0 -1.1,-0.5 -1.1,-1.1 0,-0.6 0.5,-1.1 1.1,-1.1 0.6,0 1.1,0.5 1.1,1.1 z"
   id="path3973" />
		<path
   d="m 614.1,214.2 c 0,0.6 -0.5,1.1 -1.1,1.1 -0.6,0 -1.1,-0.5 -1.1,-1.1 0,-0.6 0.5,-1.1 1.1,-1.1 0.6,0 1.1,0.5 1.1,1.1 z m -0.1,4.5 -1.1,3.8 h -1 l 0.2,-3.8 z"
   id="path3975" />
	</g><g
   id="g3993"
   transform="translate(132.42738,-28.834994)">
		<path
   d="m 157.7,266.2 h -7.5 v -1.4 l 4.8,-5.9 c 0.3,-0.4 0.9,-1 1.1,-1.3 -0.4,0 -1.4,0 -2,0 h -3.7 v -1.4 h 7.3 v 1.4 l -4.8,5.9 c -0.3,0.4 -0.9,1 -1.1,1.3 0.4,0 1.4,0 2,0 h 3.9 z"
   id="path3991" />
	</g><g
   id="g3997"
   transform="translate(132.42738,-28.834994)">
		<path
   d="m 212,266.2 h -1.8 l -1.1,-1.9 c -0.4,-0.6 -0.9,-1.6 -1.1,-2 -0.2,0.4 -0.7,1.4 -1.1,2 l -1.1,1.9 h -1.7 l 3.1,-5.1 -2.9,-4.8 h 1.8 l 0.9,1.6 c 0.3,0.6 0.9,1.7 1.1,2 0.2,-0.4 0.7,-1.4 1.1,-2 l 0.9,-1.6 h 1.7 L 209,261 Z"
   id="path3995" />
	</g><g
   id="g4001"
   transform="translate(132.42738,-28.834994)">
		<path
   d="m 265.8,264.4 c -0.7,1.2 -1.9,1.9 -3.4,1.9 -2.6,0 -4.2,-2.1 -4.2,-5.1 0,-3 1.6,-5.1 4.2,-5.1 1.6,0 2.7,0.7 3.4,1.9 l -1.3,0.8 c -0.5,-0.8 -1,-1.2 -2.1,-1.2 -1.7,0 -2.7,1.4 -2.7,3.6 0,2.2 0.9,3.6 2.7,3.6 1,0 1.7,-0.4 2.2,-1.2 z"
   id="path3999" />
	</g><g
   id="g4005"
   transform="translate(132.42738,-28.834994)">
		<path
   d="m 320.2,256.2 -3.4,9.9 h -1.6 l -3.4,-9.9 h 1.6 l 2.1,6.3 c 0.2,0.6 0.5,1.5 0.6,1.8 0.1,-0.4 0.4,-1.2 0.6,-1.8 l 2,-6.3 z"
   id="path4003" />
	</g><g
   id="g4009"
   transform="translate(132.42738,-28.834994)">
		<path
   d="m 373.8,263.1 c 0,2 -1.2,3 -3.4,3 h -3.9 v -9.9 h 4.1 c 1.7,0 2.8,0.9 2.8,2.6 0,1 -0.5,1.6 -1.3,2 0.9,0.2 1.7,1 1.7,2.3 z m -1.8,-4.2 c 0,-0.7 -0.4,-1.3 -1.4,-1.3 h -2.7 v 2.6 h 2.7 c 1,0 1.4,-0.6 1.4,-1.3 z m 0.4,4.3 c 0,-1 -0.6,-1.6 -1.8,-1.6 h -2.7 v 3.3 h 2.7 c 1.3,-0.1 1.8,-0.8 1.8,-1.7 z"
   id="path4007" />
	</g><g
   id="g4013"
   transform="translate(132.42738,-28.834994)">
		<path
   d="m 427.8,266.2 h -1.4 l -4,-6.2 c -0.2,-0.4 -0.6,-1 -0.7,-1.2 0,0.4 0,1.7 0,2.3 v 5.1 h -1.4 v -9.9 h 1.5 l 3.8,6.1 c 0.3,0.4 0.7,1.1 0.8,1.4 0,-0.4 0,-1.8 0,-2.3 v -5.1 h 1.4 z"
   id="path4011" />
	</g><g
   id="g4017"
   transform="translate(132.42738,-28.834994)">
		<path
   d="M 482.4,266.2 H 481 V 261 c 0,-0.6 0,-1.5 0,-1.7 -0.1,0.3 -0.4,1 -0.6,1.6 l -2.4,5.6 -2.4,-5.6 c -0.2,-0.6 -0.5,-1.3 -0.6,-1.6 0,0.3 0,1.1 0,1.7 v 5.2 h -1.4 v -9.9 h 1.5 l 2.2,5.3 c 0.2,0.6 0.6,1.3 0.7,1.7 0.1,-0.4 0.4,-1.1 0.7,-1.7 l 2.2,-5.3 h 1.6 v 9.9 z"
   id="path4015" />
	</g><g
   id="g4023"
   transform="translate(132.42738,-28.834994)">
		<path
   d="m 534,257 -4.1,-3.6 v -1.2 l 4.1,-3.6 v 1.8 l -2.8,2.4 2.8,2.4 z"
   id="path4019" />
		<path
   d="m 533,272.7 -1.1,3.8 h -1 l 0.2,-3.8 z"
   id="path4021" />
	</g><g
   id="g4029"
   transform="translate(132.42738,-28.834994)">
		<path
   d="M 588.1,253.4 584,257 v -1.8 l 2.8,-2.4 -2.8,-2.4 v -1.9 l 4.1,3.6 z"
   id="path4025" />
		<path
   d="m 587.1,273.7 c 0,0.6 -0.5,1.1 -1.1,1.1 -0.6,0 -1.1,-0.5 -1.1,-1.1 0,-0.6 0.5,-1.1 1.1,-1.1 0.6,0 1.1,0.5 1.1,1.1 z"
   id="path4027" />
	</g><g
   id="g4035"
   transform="translate(132.42738,-28.834994)">
		<path
   d="m 643.3,250.2 c 0,1.4 -0.6,2 -1.8,2.7 -0.9,0.5 -1.1,0.9 -1.1,1.9 h -1.5 c 0,-1.7 0.3,-2.2 1.9,-3.1 0.7,-0.4 1,-0.7 1,-1.4 0,-0.8 -0.7,-1.2 -1.9,-1.2 -1,0 -1.8,0.4 -2.5,1.1 l -0.9,-1.1 c 0.8,-0.8 2,-1.5 3.5,-1.5 1.9,0 3.3,0.9 3.3,2.6 z m -2.6,6.6 c 0,0.6 -0.5,1.1 -1.1,1.1 -0.6,0 -1.1,-0.5 -1.1,-1.1 0,-0.6 0.5,-1.1 1.1,-1.1 0.6,0 1.1,0.5 1.1,1.1 z"
   id="path4031" />
		<path
   d="M 642.9,263.5 638.5,276 H 637 l 4.4,-12.5 z"
   id="path4033" />
	</g><path
   d="m 891.62738,68.365006 -5.1,-5.1 5.1,-5.1 h 9.5 v 10.2 z m -3.7,-5.1 4.1,4.1 h 8.1 v -8.2 h -8.1 z m 7.2,0.7 -2.3,2.3 -0.7,-0.7 2.3,-2.3 -2.3,-2.3 0.7,-0.7 2.3,2.3 2.3,-2.3 0.7,0.7 -2.3,2.3 2.3,2.3 -0.7,0.7 z"
   id="path4161" /><g
   id="g4181"
   transform="translate(132.42738,-28.834994)">
		<path
   d="m 735.4,109 c 0,1.6 -1,2.4 -2.7,2.4 h -3.2 v -7.9 h 3.3 c 1.4,0 2.3,0.7 2.3,2.1 0,0.8 -0.4,1.3 -1,1.6 0.6,0.1 1.3,0.7 1.3,1.8 z m -1.5,-3.4 c 0,-0.6 -0.3,-1 -1.1,-1 h -2.1 v 2.1 h 2.1 c 0.8,-0.1 1.1,-0.6 1.1,-1.1 z m 0.3,3.4 c 0,-0.8 -0.5,-1.3 -1.4,-1.3 h -2.2 v 2.6 h 2.1 c 1.2,0 1.5,-0.5 1.5,-1.3 z"
   id="path4163" />
		<path
   d="m 743.5,111.4 h -1.3 l -0.7,-1.9 h -3.2 l -0.7,1.9 h -1.2 l 2.9,-7.9 h 1.3 z m -2.3,-3 -0.6,-1.8 c -0.2,-0.6 -0.5,-1.5 -0.6,-1.8 -0.1,0.3 -0.4,1.2 -0.6,1.8 l -0.6,1.8 z"
   id="path4165" />
		<path
   d="m 750.5,110 c -0.6,1 -1.5,1.5 -2.7,1.5 -2.1,0 -3.4,-1.7 -3.4,-4.1 0,-2.4 1.3,-4.1 3.4,-4.1 1.3,0 2.2,0.5 2.7,1.5 l -1.1,0.7 c -0.4,-0.6 -0.8,-1 -1.6,-1 -1.4,0 -2.1,1.1 -2.1,2.9 0,1.8 0.7,2.9 2.1,2.9 0.8,0 1.3,-0.3 1.7,-1 z"
   id="path4167" />
		<path
   d="m 758.5,111.4 h -1.3 l -2.3,-4.1 -1.5,1.8 v 2.3 h -1.2 v -7.9 h 1.2 v 2.7 c 0,0.3 0,1.2 0,1.4 0.1,-0.2 0.7,-0.9 0.9,-1.2 l 2.3,-2.9 h 1.3 l -2.3,2.9 z"
   id="path4169" />
		<path
   d="m 764.9,109.1 c 0,1.4 -0.9,2.4 -2.9,2.4 -1.2,0 -2.2,-0.5 -2.8,-1.3 l 0.8,-0.8 c 0.5,0.6 1.3,0.9 2.1,0.9 1.1,0 1.6,-0.4 1.6,-1.2 0,-0.6 -0.5,-0.9 -1.8,-1.3 -1.7,-0.5 -2.5,-0.9 -2.5,-2.3 0,-1.4 1.2,-2.2 2.6,-2.2 1.1,0 1.9,0.4 2.6,1.1 l -0.8,0.9 c -0.5,-0.5 -1.1,-0.8 -1.8,-0.8 -0.9,0 -1.3,0.5 -1.3,1 0,0.6 0.4,0.8 1.7,1.2 1.5,0.5 2.5,1 2.5,2.4 z"
   id="path4171" />
		<path
   d="m 772.5,105.9 c 0,1.6 -1.1,2.5 -2.6,2.5 h -2.1 v 3 h -1.2 v -7.9 h 3.3 c 1.6,0 2.6,0.8 2.6,2.4 z m -1.2,0 c 0,-0.9 -0.5,-1.4 -1.4,-1.4 h -2.1 v 2.7 h 2.1 c 1,0.1 1.4,-0.4 1.4,-1.3 z"
   id="path4173" />
		<path
   d="m 779.8,111.4 h -1.3 l -0.7,-1.9 h -3.2 l -0.7,1.9 h -1.2 l 2.9,-7.9 h 1.3 z m -2.3,-3 -0.6,-1.8 c -0.2,-0.6 -0.5,-1.5 -0.6,-1.8 -0.1,0.3 -0.4,1.2 -0.6,1.8 l -0.6,1.8 z"
   id="path4175" />
		<path
   d="m 786.8,110 c -0.6,1 -1.5,1.5 -2.7,1.5 -2.1,0 -3.4,-1.7 -3.4,-4.1 0,-2.4 1.3,-4.1 3.4,-4.1 1.3,0 2.2,0.5 2.7,1.5 l -1.1,0.7 c -0.4,-0.6 -0.8,-1 -1.6,-1 -1.4,0 -2.1,1.1 -2.1,2.9 0,1.8 0.7,2.9 2.1,2.9 0.8,0 1.3,-0.3 1.7,-1 z"
   id="path4177" />
		<path
   d="m 793.8,111.4 h -5.3 v -7.9 h 5.1 v 1.2 h -3.9 v 2 h 2.3 v 1.2 h -2.3 v 2.5 h 4.1 z"
   id="path4179" />
	</g><path
   d="m 176.62738,112.46501 -1.9,2 h 10 v 0.9 h -10 l 1.9,2 -0.5,0.5 -3.1,-2.9 v 2.6 h -0.9 v -5.4 h 0.9 v 2.6 l 3.1,-2.9 z m 8.1,5.5 v 5.4 h -0.9 v -2.6 l -3.1,2.9 -0.5,-0.5 1.9,-2 h -10 v -0.9 h 10 l -1.9,-2 0.5,-0.5 3.1,2.9 v -2.6 h 0.9 z"
   id="path4239" /><g
   id="g4247"
   transform="translate(132.42738,-28.834994)">
		<path
   d="m 41.6,158.9 h -2.3 v 6.8 h -1.2 v -6.8 h -2.3 v -1.2 h 5.8 z"
   id="path4241" />
		<path
   d="m 48.6,165.6 h -1.3 l -0.7,-1.9 h -3.2 l -0.7,1.9 h -1.2 l 2.9,-7.9 h 1.3 z m -2.3,-2.9 -0.6,-1.8 c -0.2,-0.6 -0.5,-1.5 -0.6,-1.8 -0.1,0.3 -0.4,1.2 -0.6,1.8 l -0.6,1.8 z"
   id="path4243" />
		<path
   d="m 56,163.2 c 0,1.6 -1,2.4 -2.7,2.4 h -3.2 v -7.9 h 3.3 c 1.4,0 2.3,0.7 2.3,2.1 0,0.8 -0.4,1.3 -1,1.6 0.6,0.1 1.3,0.7 1.3,1.8 z m -1.5,-3.4 c 0,-0.6 -0.3,-1 -1.1,-1 h -2.1 v 2.1 h 2.1 c 0.8,-0.1 1.1,-0.6 1.1,-1.1 z m 0.4,3.4 c 0,-0.8 -0.5,-1.3 -1.4,-1.3 h -2.2 v 2.6 h 2.1 c 1.1,0 1.5,-0.5 1.5,-1.3 z"
   id="path4245" />
	</g><path
   d="m 179.62738,171.56501 5.6,-5.6 5.6,5.6 h -2.8 v 2.1 h -5.6 v -2.1 z m 5.6,-4.4 -3.7,3.7 h 1.7 v 2 h 4 v -2 h 1.7 z m -2.8,8.1 h 5.6 v 2.8 h -5.6 z m 0.8,0.8 v 1.2 h 4 v -1.2 z"
   id="path4281" /><g
   id="g4299"
   transform="translate(132.42738,-28.834994)">
		<path
   d="m 28.3,218.2 c -0.6,1 -1.5,1.5 -2.7,1.5 -2.1,0 -3.4,-1.7 -3.4,-4.1 0,-2.4 1.3,-4.1 3.4,-4.1 1.3,0 2.2,0.5 2.7,1.5 l -1.1,0.7 c -0.4,-0.6 -0.8,-1 -1.6,-1 -1.4,0 -2.1,1.1 -2.1,2.9 0,1.8 0.7,2.9 2.1,2.9 0.8,0 1.3,-0.3 1.7,-1 z"
   id="path4283" />
		<path
   d="M 36.3,219.5 H 35 l -0.7,-1.9 h -3.2 l -0.7,1.9 h -1.2 l 2.9,-7.9 h 1.3 z m -2.3,-2.9 -0.6,-1.8 c -0.2,-0.6 -0.5,-1.5 -0.6,-1.8 -0.1,0.3 -0.4,1.2 -0.6,1.8 l -0.6,1.8 z"
   id="path4285" />
		<path
   d="m 43.7,214.1 c 0,1.6 -1.1,2.5 -2.6,2.5 H 39 v 3 h -1.2 v -7.9 h 3.3 c 1.6,-0.1 2.6,0.8 2.6,2.4 z m -1.2,0 c 0,-0.9 -0.5,-1.4 -1.4,-1.4 H 39 v 2.7 h 2.1 c 1,0.1 1.4,-0.5 1.4,-1.3 z"
   id="path4287" />
		<path
   d="m 50.5,217.3 c 0,1.4 -0.9,2.4 -2.9,2.4 -1.2,0 -2.2,-0.5 -2.8,-1.3 l 0.9,-0.8 c 0.5,0.6 1.3,0.9 2.1,0.9 1.1,0 1.6,-0.4 1.6,-1.2 0,-0.6 -0.5,-0.9 -1.8,-1.3 -1.7,-0.5 -2.5,-0.9 -2.5,-2.3 0,-1.4 1.2,-2.2 2.6,-2.2 1.1,0 1.9,0.4 2.6,1.1 l -0.8,0.8 c -0.5,-0.5 -1.1,-0.8 -1.8,-0.8 -0.9,0 -1.3,0.5 -1.3,1 0,0.6 0.4,0.8 1.7,1.2 1.4,0.6 2.4,1.1 2.4,2.5 z"
   id="path4289" />
		<path
   d="m 60.5,219.5 h -5.1 v -7.9 h 1.2 v 6.8 h 4 v 1.1 z"
   id="path4291" />
		<path
   d="m 68.1,215.6 c 0,2.5 -1.4,4.1 -3.4,4.1 -2,0 -3.4,-1.6 -3.4,-4.1 0,-2.5 1.4,-4.1 3.4,-4.1 2.1,0 3.4,1.6 3.4,4.1 z m -1.2,0 c 0,-1.8 -0.9,-2.9 -2.2,-2.9 -1.3,0 -2.1,1.1 -2.1,2.9 0,1.8 0.9,2.9 2.2,2.9 1.2,0 2.1,-1.1 2.1,-2.9 z"
   id="path4293" />
		<path
   d="m 75.5,218.2 c -0.6,1 -1.5,1.5 -2.7,1.5 -2.1,0 -3.4,-1.7 -3.4,-4.1 0,-2.4 1.3,-4.1 3.4,-4.1 1.3,0 2.2,0.5 2.7,1.5 l -1.1,0.7 c -0.4,-0.6 -0.8,-1 -1.6,-1 -1.4,0 -2.1,1.1 -2.1,2.9 0,1.8 0.7,2.9 2.1,2.9 0.8,0 1.3,-0.3 1.7,-1 z"
   id="path4295" />
		<path
   d="m 83.5,219.5 h -1.3 l -2.3,-4.1 -1.5,1.8 v 2.3 h -1.2 v -7.9 h 1.2 v 2.7 c 0,0.3 0,1.2 0,1.4 0.1,-0.2 0.7,-0.9 0.9,-1.2 l 2.3,-2.9 H 83 l -2.3,2.9 z"
   id="path4297" />
	</g><path
   d="m 908.32738,153.76501 3,-3 v 2.5 h 7.1 v -4.4 h -3.5 v -1 h 4.6 v 6.4 h -8.1 v 2.5 z"
   id="path4301" /><g
   id="g4315"
   transform="translate(132.42738,-28.834994)">
		<path
   d="m 766,214.2 c 0,1.3 -0.7,2.1 -1.7,2.3 l 1.6,3.2 h -1.4 l -1.6,-3.1 h -1.8 v 3.1 h -1.2 v -7.9 h 3.5 c 1.4,0 2.6,0.8 2.6,2.4 z m -1.2,0.1 c 0,-0.8 -0.5,-1.3 -1.3,-1.3 h -2.3 v 2.6 h 2.3 c 0.7,-0.1 1.3,-0.5 1.3,-1.3 z"
   id="path4303" />
		<path
   d="m 773.1,219.8 h -5.3 v -7.9 h 5.1 v 1.2 H 769 v 2 h 2.3 v 1.2 H 769 v 2.5 h 4.1 z"
   id="path4305" />
		<path
   d="m 780.1,213 h -2.3 v 6.8 h -1.2 V 213 h -2.3 v -1.2 h 5.8 z"
   id="path4307" />
		<path
   d="m 787.6,216.5 c 0,2.2 -1.1,3.4 -3,3.4 -2,0 -3,-1.3 -3,-3.5 v -4.6 h 1.2 v 4.6 c 0,1.5 0.6,2.3 1.8,2.3 1.2,0 1.8,-0.8 1.8,-2.2 v -4.6 h 1.2 z"
   id="path4309" />
		<path
   d="m 795.7,214.2 c 0,1.3 -0.7,2.1 -1.7,2.3 l 1.6,3.2 h -1.4 l -1.6,-3.1 h -1.8 v 3.1 h -1.2 v -7.9 h 3.5 c 1.4,0 2.6,0.8 2.6,2.4 z m -1.2,0.1 c 0,-0.8 -0.5,-1.3 -1.3,-1.3 h -2.3 v 2.6 h 2.3 c 0.7,-0.1 1.3,-0.5 1.3,-1.3 z"
   id="path4311" />
		<path
   d="m 803.6,219.8 h -1.1 l -3.2,-5 c -0.2,-0.3 -0.5,-0.8 -0.6,-1 0,0.3 0,1.4 0,1.8 v 4.1 h -1.2 v -7.9 h 1.2 l 3,4.8 c 0.2,0.3 0.5,0.9 0.7,1.1 0,-0.3 0,-1.4 0,-1.9 v -4.1 h 1.2 z"
   id="path4313" />
	</g><path
   d="m 165.72738,225.56501 5.9,-5.9 5.9,5.9 h -2.9 v 5.2 h -5.9 v -5.2 z m 5.9,-4.6 -3.9,3.9 h 1.8 v 5.1 h 4.2 v -5.1 h 1.8 z"
   id="path4317" /><g
   id="g4329"
   transform="translate(132.42738,-28.834994)">
		<path
   d="m 29.6,271.5 c 0,1.4 -0.9,2.4 -2.9,2.4 -1.2,0 -2.2,-0.5 -2.8,-1.3 l 0.9,-0.8 c 0.5,0.6 1.3,0.9 2.1,0.9 1.1,0 1.6,-0.4 1.6,-1.2 0,-0.6 -0.5,-0.9 -1.8,-1.3 -1.7,-0.5 -2.5,-0.9 -2.5,-2.3 0,-1.4 1.2,-2.2 2.6,-2.2 1.1,0 1.9,0.4 2.6,1.1 l -0.8,0.8 c -0.5,-0.5 -1.1,-0.8 -1.8,-0.8 -0.9,0 -1.3,0.5 -1.3,1 0,0.6 0.4,0.8 1.7,1.2 1.4,0.6 2.4,1.1 2.4,2.5 z"
   id="path4319" />
		<path
   d="m 37.4,273.8 h -1.2 v -3.5 h -3.7 v 3.5 h -1.2 v -7.9 h 1.2 v 3.2 h 3.7 v -3.2 h 1.2 z"
   id="path4321" />
		<path
   d="m 40.7,273.8 h -1.2 v -7.9 h 1.2 z"
   id="path4323" />
		<path
   d="M 47.9,267.1 H 44 v 2.1 h 2.3 v 1.2 H 44 v 3.5 H 42.8 V 266 h 5.1 z"
   id="path4325" />
		<path
   d="m 54.7,267.1 h -2.3 v 6.8 h -1.2 v -6.8 h -2.3 v -1.2 h 5.8 z"
   id="path4327" />
	</g><path
   d="m 867.82738,225.56501 5.9,-5.9 5.9,5.9 h -2.9 v 5.2 h -5.9 v -5.2 z m 5.8,-4.6 -3.9,3.9 h 1.8 v 5.1 h 4.2 v -5.1 h 1.8 z"
   id="path4331" /><g
   id="g4343"
   transform="translate(132.42738,-28.834994)">
		<path
   d="m 731.6,271.5 c 0,1.4 -0.9,2.4 -2.9,2.4 -1.2,0 -2.2,-0.5 -2.8,-1.3 l 0.8,-0.8 c 0.5,0.6 1.3,0.9 2.1,0.9 1.1,0 1.6,-0.4 1.6,-1.2 0,-0.6 -0.5,-0.9 -1.8,-1.3 -1.7,-0.5 -2.5,-0.9 -2.5,-2.3 0,-1.4 1.2,-2.2 2.6,-2.2 1.1,0 1.9,0.4 2.6,1.1 l -0.8,0.8 c -0.5,-0.5 -1.1,-0.8 -1.8,-0.8 -0.9,0 -1.3,0.5 -1.3,1 0,0.6 0.4,0.8 1.7,1.2 1.5,0.6 2.5,1.1 2.5,2.5 z"
   id="path4333" />
		<path
   d="m 739.4,273.8 h -1.2 v -3.5 h -3.7 v 3.5 h -1.2 v -7.9 h 1.2 v 3.2 h 3.7 v -3.2 h 1.2 z"
   id="path4335" />
		<path
   d="m 742.7,273.8 h -1.2 v -7.9 h 1.2 z"
   id="path4337" />
		<path
   d="M 749.9,267.1 H 746 v 2.1 h 2.3 v 1.2 H 746 v 3.5 h -1.2 V 266 h 5.1 z"
   id="path4339" />
		<path
   d="m 756.7,267.1 h -2.3 v 6.8 h -1.2 v -6.8 h -2.3 v -1.2 h 5.8 z"
   id="path4341" />
	</g><g
   id="g4373"
   transform="translate(132.42738,-28.834994)">
		<path
   d="m 19.7,325 c -0.6,1 -1.5,1.5 -2.7,1.5 -2.1,0 -3.4,-1.7 -3.4,-4.1 0,-2.4 1.3,-4.1 3.4,-4.1 1.3,0 2.2,0.5 2.7,1.5 l -1.1,0.7 c -0.4,-0.6 -0.8,-1 -1.6,-1 -1.4,0 -2.1,1.1 -2.1,2.9 0,1.8 0.7,2.9 2.1,2.9 0.8,0 1.3,-0.3 1.7,-1 z"
   id="path4359" />
		<path
   d="m 27.5,322.5 c 0,2.5 -1.4,4.1 -3.4,4.1 -2,0 -3.4,-1.6 -3.4,-4.1 0,-2.5 1.4,-4.1 3.4,-4.1 2,0 3.4,1.6 3.4,4.1 z m -1.2,0 c 0,-1.8 -0.9,-2.9 -2.2,-2.9 -1.3,0 -2.1,1.1 -2.1,2.9 0,1.8 0.9,2.9 2.2,2.9 1.2,0 2.1,-1.1 2.1,-2.9 z"
   id="path4361" />
		<path
   d="m 35.2,326.4 h -1.1 l -3.2,-5 c -0.2,-0.3 -0.5,-0.8 -0.6,-1 0,0.3 0,1.4 0,1.8 v 4.1 h -1.2 v -7.9 h 1.2 l 3,4.8 c 0.2,0.3 0.5,0.9 0.7,1.1 0,-0.3 0,-1.4 0,-1.9 v -4.1 h 1.2 z"
   id="path4363" />
		<path
   d="m 42.6,319.7 h -2.3 v 6.8 h -1.2 v -6.8 h -2.3 v -1.2 h 5.8 z"
   id="path4365" />
		<path
   d="m 50.2,320.9 c 0,1.3 -0.7,2.1 -1.7,2.3 l 1.6,3.2 h -1.4 l -1.6,-3.1 h -1.8 v 3.1 h -1.2 v -7.9 h 3.5 c 1.4,0 2.6,0.7 2.6,2.4 z m -1.2,0 c 0,-0.8 -0.5,-1.3 -1.3,-1.3 h -2.3 v 2.6 h 2.3 c 0.7,0 1.3,-0.4 1.3,-1.3 z"
   id="path4367" />
		<path
   d="m 58.2,322.5 c 0,2.5 -1.4,4.1 -3.4,4.1 -2,0 -3.4,-1.6 -3.4,-4.1 0,-2.5 1.4,-4.1 3.4,-4.1 2,0 3.4,1.6 3.4,4.1 z m -1.2,0 c 0,-1.8 -0.9,-2.9 -2.2,-2.9 -1.3,0 -2.1,1.1 -2.1,2.9 0,1.8 0.9,2.9 2.2,2.9 1.2,0 2.1,-1.1 2.1,-2.9 z"
   id="path4369" />
		<path
   d="m 65,326.4 h -5.1 v -7.9 h 1.2 v 6.8 h 4 v 1.1 z"
   id="path4371" />
	</g><path
   d="m 243.42738,273.96501 v 8.8 h -8.7 v -8.8 z m -4.8,4 v -3.2 h -3.2 v 3.2 z m 0,0.8 h -3.2 v 3.2 h 3.2 z m 0.8,-0.8 h 3.3 v -3.3 h -3.3 z m 0,0.8 v 3.2 h 3.3 v -3.2 z"
   id="path4375" /><g
   id="g4383"
   transform="translate(132.42738,-28.834994)">
		<path
   d="m 105.3,318.5 -1.6,7.9 h -1.2 l -1.2,-5.1 c -0.1,-0.3 -0.2,-0.9 -0.2,-1.1 0,0.2 -0.2,0.8 -0.2,1.1 l -1.3,5.1 h -1.2 l -1.6,-7.9 H 98 l 1,5 c 0,0.2 0.1,0.8 0.2,1 0,-0.3 0.2,-0.8 0.2,-1 l 1.3,-5 h 1 l 1.3,5.1 c 0.1,0.2 0.1,0.6 0.2,0.9 0.1,-0.3 0.1,-0.7 0.2,-0.9 l 1,-5.1 z"
   id="path4377" />
		<path
   d="M 108.2,326.4 H 107 v -7.9 h 1.2 z"
   id="path4379" />
		<path
   d="m 116.3,326.4 h -1.1 l -3.2,-5 c -0.2,-0.3 -0.5,-0.8 -0.6,-1 0,0.3 0,1.4 0,1.8 v 4.1 h -1.2 v -7.9 h 1.2 l 3,4.8 c 0.2,0.3 0.5,0.9 0.7,1.1 0,-0.3 0,-1.4 0,-1.9 v -4.1 h 1.2 z"
   id="path4381" />
	</g><path
   d="m 312.52738,273.16501 v 1 h -3.1 l -4.6,9.2 h -4 v -1 h 3.2 l 4.6,-9.2 z m -4.7,10.3 v -1 h 4.8 v 1 z"
   id="path4385" /><g
   id="g4393"
   transform="translate(132.42738,-28.834994)">
		<path
   d="m 171.6,326.4 h -1.3 l -0.7,-1.9 h -3.2 l -0.7,1.9 h -1.2 l 2.9,-7.9 h 1.3 z m -2.3,-2.9 -0.6,-1.8 c -0.2,-0.6 -0.5,-1.5 -0.6,-1.8 -0.1,0.3 -0.4,1.2 -0.6,1.8 l -0.6,1.8 z"
   id="path4387" />
		<path
   d="m 178.4,326.4 h -5.1 v -7.9 h 1.2 v 6.8 h 4 v 1.1 z"
   id="path4389" />
		<path
   d="m 183.9,319.7 h -2.3 v 6.8 h -1.2 v -6.8 H 178 v -1.2 h 5.8 v 1.2 z"
   id="path4391" />
	</g><path
   d="m 507.22738,280.36501 v -2 h 0.7 v 1.4 h 2.6 v -1.4 h 0.7 v 2 z"
   id="path4395" /><g
   id="g4407"
   transform="translate(132.42738,-28.834994)">
		<path
   d="m 365.1,324.2 c 0,1.4 -0.9,2.4 -2.9,2.4 -1.2,0 -2.2,-0.5 -2.8,-1.3 l 0.9,-0.8 c 0.5,0.6 1.3,0.9 2.1,0.9 1.1,0 1.6,-0.4 1.6,-1.2 0,-0.6 -0.5,-0.9 -1.8,-1.3 -1.7,-0.5 -2.5,-0.9 -2.5,-2.3 0,-1.4 1.2,-2.2 2.6,-2.2 1.1,0 1.9,0.4 2.6,1.1 l -0.8,0.8 c -0.5,-0.5 -1.1,-0.8 -1.8,-0.8 -0.9,0 -1.3,0.5 -1.3,1 0,0.6 0.4,0.8 1.7,1.2 1.5,0.5 2.4,1 2.4,2.5 z"
   id="path4397" />
		<path
   d="m 372.8,321 c 0,1.6 -1.1,2.5 -2.6,2.5 h -2.1 v 3 h -1.2 v -7.9 h 3.3 c 1.5,-0.1 2.6,0.7 2.6,2.4 z m -1.2,0 c 0,-0.9 -0.5,-1.4 -1.4,-1.4 h -2.1 v 2.7 h 2.1 c 0.9,0.1 1.4,-0.5 1.4,-1.3 z"
   id="path4399" />
		<path
   d="m 380,326.4 h -1.3 l -0.7,-1.9 h -3.2 l -0.7,1.9 H 373 l 2.9,-7.9 h 1.3 z m -2.3,-2.9 -0.6,-1.8 c -0.2,-0.6 -0.5,-1.5 -0.6,-1.8 -0.1,0.3 -0.4,1.2 -0.6,1.8 l -0.6,1.8 z"
   id="path4401" />
		<path
   d="m 387.1,325 c -0.6,1 -1.5,1.5 -2.7,1.5 -2.1,0 -3.4,-1.7 -3.4,-4.1 0,-2.4 1.3,-4.1 3.4,-4.1 1.3,0 2.2,0.5 2.7,1.5 l -1.1,0.7 c -0.4,-0.6 -0.8,-1 -1.6,-1 -1.4,0 -2.1,1.1 -2.1,2.9 0,1.8 0.7,2.9 2.1,2.9 0.8,0 1.3,-0.3 1.7,-1 z"
   id="path4403" />
		<path
   d="m 394.1,326.4 h -5.3 v -7.9 h 5.1 v 1.2 H 390 v 2 h 2.3 v 1.2 H 390 v 2.5 h 4.1 z"
   id="path4405" />
	</g><path
   d="m 783.52738,273.96501 v 8.8 h -8.7 v -8.8 z m -4.8,4 v -3.2 h -3.2 v 3.2 z m 0,0.8 h -3.2 v 3.2 h 3.2 z m 0.8,-0.8 h 3.3 v -3.3 h -3.3 z m 0,0.8 v 3.2 h 3.3 v -3.2 z"
   id="path4409" /><g
   id="g4417"
   transform="translate(132.42738,-28.834994)">
		<path
   d="m 645.3,318.5 -1.6,7.9 h -1.2 l -1.2,-5.1 c -0.1,-0.3 -0.2,-0.9 -0.2,-1.1 0,0.2 -0.2,0.8 -0.2,1.1 l -1.3,5.1 h -1.2 l -1.6,-7.9 h 1.2 l 1,5 c 0,0.2 0.1,0.8 0.2,1 0,-0.3 0.2,-0.8 0.2,-1 l 1.3,-5 h 1 l 1.3,5.1 c 0.1,0.2 0.1,0.6 0.2,0.9 0.1,-0.3 0.1,-0.7 0.2,-0.9 l 1,-5.1 z"
   id="path4411" />
		<path
   d="M 648.2,326.4 H 647 v -7.9 h 1.2 z"
   id="path4413" />
		<path
   d="m 656.3,326.4 h -1.1 l -3.2,-5 c -0.2,-0.3 -0.5,-0.8 -0.6,-1 0,0.3 0,1.4 0,1.8 v 4.1 h -1.2 v -7.9 h 1.2 l 3,4.8 c 0.2,0.3 0.5,0.9 0.7,1.1 0,-0.3 0,-1.4 0,-1.9 v -4.1 h 1.2 z"
   id="path4415" />
	</g><path
   d="m 843.02738,274.56501 h 7.3 v 1.2 h -7.3 z m 0,2.5 h 7.3 v 1.2 h -7.3 z m 0,2.5 h 7.3 v 1.2 h -7.3 z m 0,2.5 h 7.3 v 1.2 h -7.3 z"
   id="path4419" /><g
   id="g4429"
   transform="translate(132.42738,-28.834994)">
		<path
   d="m 706.3,326.3 h -1.2 v -4.2 c 0,-0.5 0,-1.2 0,-1.4 -0.1,0.2 -0.3,0.8 -0.5,1.2 l -1.9,4.5 -1.9,-4.5 c -0.2,-0.5 -0.4,-1 -0.5,-1.2 0,0.2 0,0.9 0,1.4 v 4.2 h -1.1 v -7.9 h 1.2 l 1.8,4.2 c 0.2,0.5 0.4,1 0.5,1.4 0.1,-0.3 0.3,-0.9 0.5,-1.4 l 1.7,-4.2 h 1.3 v 7.9 z"
   id="path4421" />
		<path
   d="m 713.6,326.3 h -5.3 v -7.9 h 5.1 v 1.2 h -3.9 v 2 h 2.3 v 1.2 h -2.3 v 2.5 h 4.1 z"
   id="path4423" />
		<path
   d="m 721.3,326.3 h -1.1 l -3.2,-5 c -0.2,-0.3 -0.5,-0.8 -0.6,-1 0,0.3 0,1.4 0,1.8 v 4.1 h -1.2 v -7.9 h 1.2 l 3,4.8 c 0.2,0.3 0.5,0.9 0.7,1.1 0,-0.3 0,-1.4 0,-1.9 v -4.1 h 1.2 z"
   id="path4425" />
		<path
   d="m 729.4,323 c 0,2.2 -1.1,3.4 -3,3.4 -2,0 -3,-1.3 -3,-3.5 v -4.6 h 1.2 v 4.6 c 0,1.5 0.6,2.3 1.8,2.3 1.2,0 1.8,-0.8 1.8,-2.2 v -4.6 h 1.2 z"
   id="path4427" />
	</g><path
   d="m 913.62738,284.76501 v -1.4 c -1.5,-0.2 -2.7,-0.9 -3.6,-2.1 l -1.2,0.7 -0.5,-0.9 1.2,-0.7 c -0.3,-0.7 -0.4,-1.4 -0.4,-2.1 0,-0.7 0.1,-1.4 0.4,-2.1 l -1.2,-0.7 0.5,-0.9 1.2,0.7 c 0.9,-1.2 2.1,-1.9 3.6,-2.1 v -1.4 h 1 v 1.4 c 1.5,0.2 2.7,0.9 3.6,2.1 l 1.2,-0.7 0.5,0.9 -1.2,0.7 c 0.3,0.7 0.5,1.4 0.5,2.1 0,0.7 -0.2,1.4 -0.5,2.1 l 1.2,0.7 -0.5,0.9 -1.2,-0.7 c -0.9,1.2 -2.1,1.9 -3.6,2.1 v 1.4 z m -3.2,-8 v 0 c -0.2,0.5 -0.3,1 -0.3,1.6 0,0.5 0.1,1.1 0.3,1.6 v 0 l 2.8,-1.6 z m 3.2,-2.5 v 0 c -1.1,0.1 -2,0.7 -2.7,1.6 v 0 l 2.8,1.6 v -3.2 z m -2.7,6.5 v 0 c 0.7,0.9 1.6,1.4 2.7,1.6 v 0 -3.2 z m 6.5,-4.9 v 0 c -0.7,-0.9 -1.6,-1.4 -2.7,-1.6 v 0 3.2 z m -2.7,6.5 v 0 c 1.1,-0.1 2,-0.7 2.7,-1.6 v 0 l -2.8,-1.6 v 3.2 z m 3.2,-2.5 v 0 c 0.2,-0.5 0.3,-1 0.3,-1.6 0,-0.5 -0.1,-1.1 -0.3,-1.6 v 0 l -2.8,1.6 z"
   id="path4431" /><path
   d="m 171.12738,284.76501 v -1.4 c -1.5,-0.2 -2.7,-0.9 -3.6,-2.1 l -1.2,0.7 -0.5,-0.9 1.2,-0.7 c -0.3,-0.7 -0.4,-1.4 -0.4,-2.1 0,-0.7 0.1,-1.4 0.4,-2.1 l -1.2,-0.7 0.5,-0.9 1.2,0.7 c 0.9,-1.2 2.1,-1.9 3.6,-2.1 v -1.4 h 1 v 1.4 c 1.5,0.2 2.7,0.9 3.6,2.1 l 1.2,-0.7 0.5,0.9 -1.2,0.7 c 0.3,0.7 0.5,1.4 0.5,2.1 0,0.7 -0.2,1.4 -0.5,2.1 l 1.2,0.7 -0.5,0.9 -1.2,-0.7 c -0.9,1.2 -2.1,1.9 -3.6,2.1 v 1.4 z m -3.2,-8 v 0 c -0.2,0.5 -0.3,1 -0.3,1.6 0,0.5 0.1,1.1 0.3,1.6 v 0 l 2.8,-1.6 z m 3.2,-2.5 v 0 c -1.1,0.1 -2,0.7 -2.7,1.6 v 0 l 2.8,1.6 v -3.2 z m -2.7,6.5 v 0 c 0.7,0.9 1.6,1.4 2.7,1.6 v 0 -3.2 z m 6.5,-4.9 v 0 c -0.7,-0.9 -1.6,-1.4 -2.7,-1.6 v 0 3.2 z m -2.7,6.5 v 0 c 1.1,-0.1 2,-0.7 2.7,-1.6 v 0 l -2.8,-1.6 v 3.2 z m 3.2,-2.5 v 0 c 0.2,-0.5 0.3,-1 0.3,-1.6 0,-0.5 -0.1,-1.1 -0.3,-1.6 v 0 l -2.8,1.6 z"
   id="path4433" /><g
   id="g4449"
   transform="translate(132.42738,-28.834994)">
		<path
   d="m 762.2,325 c -0.6,1 -1.5,1.5 -2.7,1.5 -2.1,0 -3.4,-1.7 -3.4,-4.1 0,-2.4 1.3,-4.1 3.4,-4.1 1.3,0 2.2,0.5 2.7,1.5 l -1.1,0.7 c -0.4,-0.6 -0.8,-1 -1.6,-1 -1.4,0 -2.1,1.1 -2.1,2.9 0,1.8 0.7,2.9 2.1,2.9 0.8,0 1.3,-0.3 1.7,-1 z"
   id="path4435" />
		<path
   d="m 770,322.5 c 0,2.5 -1.4,4.1 -3.4,4.1 -2,0 -3.4,-1.6 -3.4,-4.1 0,-2.5 1.4,-4.1 3.4,-4.1 2,0 3.4,1.6 3.4,4.1 z m -1.2,0 c 0,-1.8 -0.9,-2.9 -2.2,-2.9 -1.3,0 -2.1,1.1 -2.1,2.9 0,1.8 0.9,2.9 2.2,2.9 1.2,0 2.1,-1.1 2.1,-2.9 z"
   id="path4437" />
		<path
   d="m 777.7,326.4 h -1.1 l -3.2,-5 c -0.2,-0.3 -0.5,-0.8 -0.6,-1 0,0.3 0,1.4 0,1.8 v 4.1 h -1.2 v -7.9 h 1.2 l 3,4.8 c 0.2,0.3 0.5,0.9 0.7,1.1 0,-0.3 0,-1.4 0,-1.9 v -4.1 h 1.2 z"
   id="path4439" />
		<path
   d="m 785.1,319.7 h -2.3 v 6.8 h -1.2 v -6.8 h -2.3 v -1.2 h 5.8 z"
   id="path4441" />
		<path
   d="m 792.7,320.9 c 0,1.3 -0.7,2.1 -1.7,2.3 l 1.6,3.2 h -1.4 l -1.6,-3.1 h -1.8 v 3.1 h -1.2 v -7.9 h 3.5 c 1.4,0 2.6,0.7 2.6,2.4 z m -1.2,0 c 0,-0.8 -0.5,-1.3 -1.3,-1.3 h -2.3 v 2.6 h 2.3 c 0.7,0 1.3,-0.4 1.3,-1.3 z"
   id="path4443" />
		<path
   d="m 800.7,322.5 c 0,2.5 -1.4,4.1 -3.4,4.1 -2,0 -3.4,-1.6 -3.4,-4.1 0,-2.5 1.4,-4.1 3.4,-4.1 2,0 3.4,1.6 3.4,4.1 z m -1.2,0 c 0,-1.8 -0.9,-2.9 -2.2,-2.9 -1.3,0 -2.1,1.1 -2.1,2.9 0,1.8 0.9,2.9 2.2,2.9 1.2,0 2.1,-1.1 2.1,-2.9 z"
   id="path4445" />
		<path
   d="m 807.5,326.4 h -5.1 v -7.9 h 1.2 v 6.8 h 4 v 1.1 z"
   id="path4447" />
	</g><g
   id="g4455"
   transform="translate(132.42738,-28.834994)">
		<path
   d="m 33.9,104.2 h -1.2 l -2.3,-2.3 h 2 z"
   id="path4451" />
		<path
   d="m 28.8,90.1 h 7.3 v 3.4 H 35 v -2.2 h -6.2 z"
   id="path4453" />
	</g><g
   id="g4461"
   transform="translate(132.42738,-28.834994)">
		<path
   d="m 143.8,111.3 h -7.1 c 0.1,-2.9 1.9,-4.2 3.8,-5.4 1.3,-0.8 1.7,-1.2 1.7,-1.9 0,-0.8 -0.5,-1.3 -1.9,-1.3 -0.8,0 -1.8,0.4 -2.4,1 l -0.9,-1.1 c 0.9,-0.8 2.2,-1.3 3.4,-1.3 2.1,0 3.4,0.9 3.4,2.7 0,1.5 -0.8,2.2 -2.5,3.2 -1.9,1.1 -2.4,1.8 -2.7,2.7 h 5.3 v 1.4 z"
   id="path4457" />
		<path
   d="m 139.9,84.3 -1.1,3.6 h -1 l 0.2,-3.6 z m 3.4,0 -1.1,3.6 h -1 l 0.2,-3.6 z"
   id="path4459" />
	</g><g
   id="g4467"
   transform="translate(132.42738,-28.834994)">
		<path
   d="m 197.8,109.7 c 0,2 -1.4,3.1 -3.7,3.1 -1.4,0 -2.9,-0.6 -3.6,-1.6 l 1.1,-1 c 0.6,0.8 1.5,1.1 2.4,1.1 1.6,0 2.2,-0.6 2.2,-1.6 0,-1 -0.8,-1.5 -1.8,-1.5 h -0.9 v -1.4 h 0.9 c 0.9,0 1.4,-0.6 1.4,-1.4 0,-0.6 -0.4,-1.4 -1.9,-1.4 -0.8,0 -1.4,0.3 -2,0.9 l -1.1,-1 c 0.8,-0.9 1.8,-1.3 3.1,-1.3 1.9,0 3.4,1 3.4,2.7 0,1.2 -0.5,1.8 -1.2,2.2 1.1,0.2 1.7,1 1.7,2.2 z"
   id="path4463" />
		<path
   d="m 198.4,86.9 -0.9,1.1 c -0.7,-0.6 -1.6,-1 -2.5,-1 -1.4,0 -1.8,0.5 -1.8,1.2 0,0.4 0.2,0.9 0.4,1.3 0.1,0.3 0.3,0.6 0.4,0.9 h 2.2 v 1.3 H 194 c -0.1,1 -0.4,1.7 -1.1,2.6 h 5.3 v 1.4 h -7 v -1.4 c 0.8,-0.9 1.2,-1.5 1.3,-2.5 h -1.3 v -1.3 h 1.1 c -0.1,-0.2 -0.2,-0.4 -0.3,-0.7 -0.3,-0.5 -0.5,-1 -0.5,-1.5 0,-1.7 1.3,-2.6 3.4,-2.6 1.4,-0.1 2.5,0.4 3.5,1.2 z"
   id="path4465" />
	</g><g
   id="g4473"
   transform="translate(132.42738,-28.834994)">
		<path
   d="m 668,210.8 -0.2,3.6 h -1.9 l 1.1,-3.6 z"
   id="path4469" />
		<path
   d="m 672.1,198.6 c 0,2.1 -0.9,2.9 -2.2,2.9 -0.7,0 -1.3,-0.4 -1.5,-0.9 -0.3,0.5 -1.1,0.9 -1.8,0.9 -1.1,0 -2.2,-0.6 -2.2,-1.9 0,-1.2 1.1,-1.8 2.3,-1.8 0.6,0 1.1,0.2 1.4,0.4 v -0.7 c 0,-0.6 -0.5,-0.8 -1.3,-0.8 -0.5,0 -1,0.1 -1.4,0.3 l -0.4,-0.7 c 0.5,-0.3 1.2,-0.5 1.8,-0.5 1.3,0 2.2,0.6 2.2,1.7 v 2.4 c 0,0.5 0.3,0.9 0.9,0.9 0.9,0 1.2,-0.7 1.2,-2.1 0,-2.3 -1.8,-4.2 -4.3,-4.2 -2.5,0 -4.3,1.8 -4.3,4.3 0,2.5 1.8,4.3 4.3,4.3 0.6,0 1.2,-0.1 1.8,-0.4 l 0.3,0.8 c -0.8,0.4 -1.4,0.5 -2.2,0.5 -3,0 -5.1,-2.2 -5.1,-5.1 0,-3 2.2,-5.1 5.1,-5.1 3.3,-0.2 5.4,2.1 5.4,4.8 z m -3.9,1.2 V 199 c -0.3,-0.2 -0.8,-0.4 -1.5,-0.4 -0.8,0 -1.3,0.3 -1.3,1 0,0.7 0.5,1.1 1.4,1.1 0.5,-0.1 1.1,-0.4 1.4,-0.9 z"
   id="path4471" />
	</g><g
   id="g4479"
   transform="translate(132.42738,-28.834994)">
		<path
   d="m 724.4,197.7 c -0.5,1.3 -1.1,2 -2.2,2 -0.6,0 -0.9,-0.2 -1.4,-0.5 -0.6,-0.4 -0.9,-0.6 -1.2,-0.6 -0.5,0 -0.7,0.3 -1,1.1 l -1,-0.5 c 0.5,-1.3 1.1,-2 2.2,-2 0.6,0 0.9,0.2 1.4,0.5 0.5,0.4 0.9,0.6 1.2,0.6 0.5,0 0.7,-0.3 1.1,-1.1 z"
   id="path4475" />
		<path
   d="m 725.3,218.4 h -1.7 v 2.3 h -1.4 v -2.3 h -2.3 v 2.3 h -1.4 v -2.3 h -1.7 v -1.3 h 1.7 v -2.7 h -1.7 V 213 h 1.7 v -2.3 h 1.4 v 2.3 h 2.3 v -2.3 h 1.4 v 2.3 h 1.7 v 1.3 h -1.7 v 2.7 h 1.7 z m -3.1,-1.3 v -2.7 h -2.3 v 2.7 z"
   id="path4477" />
	</g><path
   d="m 709.72738,277.36501 h -2.2 l 4.1,-4.1 4.1,4.1 h -2.2 l 2.2,2.2 h -2.2 v 3.9 h -3.8 v -3.9 h -2.2 z m 3,-0.9 h 1.1 l -2.2,-2.1 -2.1,2.1 h 1.1 l 1,-1 z m 0.1,2.2 h 1 l -2.2,-2.1 -2.1,2.1 h 1 v 4 h 2.3 z"
   id="path4481" /><g
   id="g4493"
   transform="translate(132.42738,-28.834994)">
		<path
   d="m 567.5,326.4 h -1.3 l -0.7,-1.9 h -3.2 l -0.7,1.9 h -1.2 l 2.9,-7.9 h 1.3 z m -2.3,-2.9 -0.6,-1.8 c -0.2,-0.6 -0.5,-1.5 -0.6,-1.8 -0.1,0.3 -0.4,1.2 -0.6,1.8 l -0.6,1.8 z"
   id="path4483" />
		<path
   d="M 574.2,326.4 H 569 v -7.9 h 1.2 v 6.8 h 4 z"
   id="path4485" />
		<path
   d="m 579.7,319.7 h -2.3 v 6.8 h -1.2 v -6.8 h -2.3 v -1.2 h 5.8 z"
   id="path4487" />
		<path
   d="m 590.3,323.3 c 0,2 -1.2,3.2 -3,3.2 -2.1,0 -3.4,-1.7 -3.4,-4.1 0,-2.4 1.3,-4.1 3.4,-4.1 1.3,0 2.2,0.5 2.7,1.5 l -1,0.6 c -0.4,-0.6 -0.8,-0.9 -1.7,-0.9 -1.4,0 -2.1,1.1 -2.1,2.9 0,1.8 0.8,2.9 2.1,2.9 1.3,0 1.8,-0.9 1.8,-1.8 v 0 h -1.3 v -1.1 h 2.5 z"
   id="path4489" />
		<path
   d="m 598,320.9 c 0,1.3 -0.7,2.1 -1.7,2.3 l 1.6,3.2 h -1.4 l -1.6,-3.1 h -1.8 v 3.1 H 592 v -7.9 h 3.5 c 1.4,0 2.5,0.7 2.5,2.4 z m -1.2,0 c 0,-0.8 -0.5,-1.3 -1.3,-1.3 h -2.3 v 2.6 h 2.3 c 0.8,0 1.3,-0.4 1.3,-1.3 z"
   id="path4491" />
	</g>
</svg>
